<svg width="71" height="40" viewBox="0 0 71 40" fill="none" xmlns="http://www.w3.org/2000/svg">
<path id="logoWahwahsda" fill-rule="evenodd" clip-rule="evenodd" d="M17.3626 5.71794L18.3542 7.98265L21.6071 0.554256L24.86 7.98261L25.8516 5.7179L30.5685 7.82511C31.7404 6.97024 33.1773 6.45943 34.7346 6.45943C34.7976 6.45943 34.8605 6.45994 34.9232 6.46162V5.53656H41.8491V6.51585H53.238V16.7872L53.2696 16.4585L60.061 17.0636L59.5436 22.7018C60.6319 22.0192 61.9162 21.628 63.2879 21.654V20.7654H70.1148V36.3656H63.2879V35.492C63.2543 35.4925 63.221 35.4925 63.1873 35.4925C61.3953 35.4925 59.7656 34.8015 58.5361 33.6793L58.2377 36.9305L51.4424 36.3247L51.5205 35.4544C51.4884 35.4522 51.4559 35.4493 51.4231 35.4465C49.5401 35.2784 47.9009 34.3642 46.7664 33.0227C46.4749 36.5067 43.4955 39.2557 39.8682 39.2557H37.3356V34.9884H35.2315V38.2574H28.3065V36.2461H23.6832V35.337C21.0419 35.4069 18.7018 34.0046 17.4226 31.8933L14.1074 39.4459L10.8566 32.0226L7.60592 39.4454L0.324829 22.8609L6.61202 20.0528L7.60357 22.317L10.8566 14.8881L14.1096 22.3175L15.1011 20.0528L16.388 20.6275L11.0758 8.5262L17.3626 5.71794ZM44.7334 12.409H48.2964V8.49906H51.255V21.233H48.2964V15.3679H44.7334V19.0381H41.7741V8.49906H44.7334V12.409ZM34.7343 18.6894C35.5076 18.6894 36.237 18.5228 36.9065 18.1939V19.5965H39.8659V7.5195H36.9065V8.93739C36.2377 8.60878 35.5086 8.4422 34.7343 8.4422C31.913 8.4422 29.6177 10.7442 29.6177 13.5738C29.6177 16.3946 31.913 18.6894 34.7343 18.6894ZM34.7343 11.4014C33.5451 11.4014 32.5772 12.376 32.5772 13.5738C32.5772 14.7828 33.5248 15.7298 34.7343 15.7298C35.9321 15.7298 36.9065 14.7628 36.9065 13.5738C36.9065 12.376 35.9321 11.4014 34.7343 11.4014ZM24.86 20.1727L21.607 12.7444L18.3541 20.1727L13.6835 9.53326L16.3474 8.34356L18.3538 12.9269L21.607 5.49802L24.8603 12.9269L26.8671 8.34356L29.5299 9.53326L24.86 20.1727ZM25.6662 23.6041C24.997 23.2752 24.2679 23.1086 23.4941 23.1086C20.6726 23.1086 18.3775 25.4106 18.3775 28.2402C18.3775 31.061 20.6726 33.3561 23.4941 33.3561C24.2676 33.3561 24.9967 33.1896 25.6662 32.8603V34.2632H28.6257V22.1862H25.6662V23.6041ZM23.4941 30.3966C24.6919 30.3966 25.6662 29.4292 25.6662 28.2402C25.6662 27.0424 24.6919 26.0682 23.4941 26.0682C22.3044 26.0682 21.3366 27.0424 21.3366 28.2402C21.3366 29.4495 22.2845 30.3966 23.4941 30.3966ZM10.8565 19.8323L14.1097 27.2613L16.1167 22.6781L18.7794 23.8677L14.1094 34.507L10.8565 27.0788L7.60375 34.507L2.93277 23.8677L5.59663 22.6781L7.60341 27.2613L10.8565 19.8323ZM36.811 30.4087H33.2482V36.2741H30.2897V23.5399H33.2482V27.4499H36.811V21.9465H39.7705V33.0054H36.811V30.4087ZM47.4455 21.8772V24.7224H46.8957C45.7079 24.7224 44.8122 25.5669 44.8122 26.6862V32.4644C44.8122 35.1157 42.5944 37.2726 39.8682 37.2726H39.3184V34.4281H39.8682C41.0562 34.4281 41.9517 33.5839 41.9517 32.4644V26.6862C41.9517 24.0346 44.1696 21.8772 46.8957 21.8772H47.4455ZM54.5102 24.2944C53.8982 23.924 53.2147 23.7034 52.4749 23.6372C49.7714 23.3941 47.368 25.4015 47.1265 28.1089C46.8844 30.8237 48.89 33.2295 51.5975 33.4713C52.3365 33.5366 53.0473 33.4408 53.715 33.1854L53.5949 34.5257L56.4438 34.7799L57.9045 18.8623L55.0558 18.6084L54.5102 24.2944ZM54.1108 28.747C54.2129 27.6025 53.365 26.5886 52.2208 26.4865C51.0896 26.3851 50.0765 27.2336 49.9744 28.3778C49.8715 29.5332 50.6961 30.5185 51.8519 30.622C52.4091 30.6715 52.9489 30.5051 53.3741 30.153C53.7998 29.8007 54.0612 29.3011 54.1108 28.747ZM65.2711 24.1092V22.7488H68.1316V34.3825H65.2711V33.0369C64.6285 33.3506 63.929 33.5096 63.1873 33.5096C60.4692 33.5096 58.2579 31.2986 58.2579 28.5809C58.2579 25.8547 60.4692 23.6366 63.1873 23.6366C63.9296 23.6366 64.6292 23.7956 65.2711 24.1092ZM65.2711 28.5809C65.2711 29.7214 64.3362 30.6491 63.1873 30.6491C62.0271 30.6491 61.1184 29.7407 61.1184 28.5809C61.1184 27.432 62.0464 26.4974 63.1873 26.4974C64.3362 26.4974 65.2711 27.432 65.2711 28.5809Z" fill="black"/>
</svg>
