<svg width="112" height="32" viewBox="0 0 112 32" fill="none" xmlns="http://www.w3.org/2000/svg">
<path id="angeleLogo" d="M20.2767 31.4728L17.5224 31.3929L16.7433 29.4804L15.9642 27.5679H12.171H8.37769L7.52612 29.4915L6.67455 31.4152H3.80398H0.933411L5.54943 19.9421L10.1655 8.46896H12.1403H14.1151L16.4681 14.3773C17.7623 17.6268 19.8025 22.7492 21.002 25.7604C22.2015 28.7715 23.1487 31.3066 23.1069 31.3939C23.0651 31.4812 21.7915 31.5167 20.2767 31.4728ZM13.084 20.5031C12.7015 19.4891 12.3194 18.5478 12.2348 18.4114C12.1219 18.229 10.5067 21.829 10.5001 22.2779C10.4995 22.3158 11.2372 22.3467 12.1393 22.3467H13.7795L13.084 20.5031ZM53.249 31.1857C51.3989 30.5285 49.0062 28.8897 47.945 27.5529C45.9132 24.9934 44.9244 21.3333 45.4347 18.261C46.5293 11.67 52.3233 7.32602 58.7026 8.31357C59.7123 8.46989 61.0231 8.79935 61.6153 9.04573C62.8443 9.55697 64.207 10.467 64.207 10.7765C64.207 10.8915 63.5276 11.858 62.6972 12.9243L61.1875 14.863L60.0384 14.2957C55.5612 12.0856 50.7353 15.0507 50.7172 20.023C50.7033 23.8339 54.1055 26.8482 57.8418 26.3355C59.7141 26.0786 60.2974 25.512 60.3926 23.8581L60.4716 22.4841L58.0596 22.4044L55.6476 22.3249L55.7271 19.9312L55.8065 17.5375H60.9018H65.9972L66.0726 22.2827L66.1479 27.0279L64.862 28.3995C64.0938 29.2189 62.8526 30.1265 61.7787 30.654C60.1983 31.4303 59.6627 31.5469 57.343 31.6198C55.2995 31.684 54.3766 31.5862 53.249 31.1857ZM24.8212 19.8734V8.33159L27.5066 8.33988L30.192 8.34816L34.0479 14.8044L37.9039 21.2607L37.9777 14.7964L38.0516 8.33221H40.8008H43.5501V19.874V31.4158L40.8647 31.414L38.1793 31.4121L34.3234 25.1104L30.4674 18.8087L30.3935 25.1121L30.3195 31.4154H27.5704H24.8212V19.8734ZM68.3384 19.8734V8.33159H74.9486H81.5588V11.0796V13.8277H77.5651H73.5715V15.4765V17.1254H77.5651H81.5588V19.8734V22.6215H77.552H73.5452L73.6272 24.339L73.7091 26.0565L77.634 26.1328L81.5588 26.2091V28.8122V31.4153H74.9486H68.3384L68.3384 19.8734ZM84.0376 19.8635V8.31171L86.723 8.39037L89.4084 8.46905L89.4811 17.3315L89.5538 26.194H92.9928H96.4318V28.8046V31.4153H90.2347H84.0377L84.0376 19.8635ZM98.3597 19.8734V8.33159H104.97H111.58V11.0796V13.8277H107.586H103.593V15.4765V17.1254H107.586H111.58V19.8734V22.6215H107.586H103.593V24.4077V26.1939H107.586H111.58V28.8046V31.4152H104.97H98.3597V19.8734ZM76.6012 6.76293C76.3739 6.67975 75.6922 6.40222 75.0863 6.14624C74.4804 5.89025 73.4269 5.44994 72.7452 5.16779C70.7626 4.34718 70.7797 4.39569 71.7241 2.27506C72.1926 1.22303 72.6986 0.362278 72.8486 0.362278C73.0799 0.362278 78.7522 2.7812 79.0415 3.00324C79.2583 3.16961 77.596 6.95614 77.315 6.93588C77.1496 6.92391 76.8284 6.84609 76.6012 6.76293Z" fill="black"/>
</svg>
