<svg width="79" height="40" viewBox="0 0 79 40" fill="none" xmlns="http://www.w3.org/2000/svg">
<path id="logoBlackwave" d="M75.9445 38.2401C75.5341 36.947 76.6934 35.6494 77.8593 36.0968C78.7311 36.4314 78.8971 37.1832 78.3906 38.503C77.9541 39.6405 76.3337 39.4664 75.9445 38.2401ZM67.2764 33.5741C61.8176 31.4479 56.6065 30.3962 49.7319 30.0329C43.8761 29.7235 42.3065 29.1855 41.6563 27.2654C41.2921 26.1898 41.2602 26.2071 40.9934 27.6244C40.7724 28.7979 40.4551 29.1134 39.4958 29.1134C38.4236 29.1134 37.9937 28.4668 35.89 23.6908C34.2484 19.9641 33.6616 18.1082 34.0136 17.7562C34.7073 17.0625 35.5386 18.0042 37.3935 21.585C39.0674 24.8163 39.0738 24.8107 40.0143 19.2732C40.3715 17.1701 40.8661 15.7793 41.3186 15.6056C41.7196 15.4517 44.8764 15.9185 48.3338 16.6429C51.7912 17.3673 55.7553 17.9569 57.143 17.953C60.1138 17.9447 60.6253 18.2835 59.5074 19.5188C58.5042 20.6273 56.9286 20.6546 51.254 19.662C48.8567 19.2427 46.679 19.0332 46.4148 19.1965C45.2154 19.9378 46.0968 20.8624 48.54 21.4262C50.8699 21.9639 52.3865 22.9565 52.3865 23.9437C52.3865 24.7285 50.7918 24.8132 48.8586 24.1311C45.6274 22.9911 44.578 23.1604 44.1997 24.8825C44.0213 25.6947 44.0168 26.5881 44.1896 26.8678C44.3633 27.1488 46.3486 27.3762 48.6284 27.3762C53.8762 27.3762 60.2523 28.4873 66.0649 30.4148C71.2004 32.1177 73.8975 33.5665 73.6021 34.4637C73.2601 35.5025 71.644 35.2752 67.2764 33.5741ZM42.4174 22.4129C42.4417 21.7511 42.3912 21.7511 41.9636 22.4129C41.699 22.8224 41.4947 23.6041 41.5098 24.1501C41.5371 25.1427 41.5371 25.1427 41.9636 24.1501C42.1982 23.6041 42.4024 22.8224 42.4174 22.4129ZM43.4057 18.5147C42.6721 18.2626 42.2995 18.7739 42.7205 19.4549C42.9873 19.8867 43.1885 19.8631 43.4987 19.3638C43.7445 18.9683 43.7061 18.6179 43.4057 18.5147ZM16.4611 30.7264C16.0712 30.1122 15.3544 28.2696 14.8682 26.6317C13.7307 22.7999 13.1766 22.1888 13.1766 24.766C13.1766 28.2648 12.0162 27.9398 9.20587 23.6538C8.31091 22.2888 6.46236 20.0173 5.09796 18.6058C3.42077 16.8707 2.71732 15.7786 2.92624 15.2342C3.38137 14.0481 4.60029 14.8673 8.1584 18.7503C10.8643 21.7033 11.1913 21.9246 11.1913 20.8025C11.1913 20.1108 11.6122 19.0251 12.1266 18.3898L13.062 17.2346L14.5662 19.6063C15.3934 20.9108 16.3538 23.1368 16.7003 24.5531C17.4122 27.4626 17.2645 27.7198 18.8038 20.8922C19.2078 19.1004 19.8641 16.8547 20.2622 15.9019L20.9861 14.1694L18.718 14.1964C16.8359 14.2189 16.3517 14.0295 15.8726 13.0835C15.2964 11.9456 15.291 11.9476 12.8721 14.2003C11.5393 15.4415 10.0633 16.457 9.592 16.457C9.1207 16.457 8.38252 15.7752 7.95159 14.9418C7.52066 14.1085 5.61648 11.7932 3.72007 9.7968C1.82366 7.80038 0.272034 5.92876 0.272034 5.63764C0.272034 5.34652 0.718725 4.96655 1.26469 4.79327C1.81345 4.6191 2.25735 4.0423 2.25735 3.50342C2.25735 2.15041 3.73243 1.68686 4.53692 2.78707C5.15135 3.62735 5.35413 3.63038 8.55986 2.84733C12.6241 1.85457 16.2272 1.6225 16.4819 2.33708C16.5842 2.62407 15.6614 3.61299 14.4313 4.53466C13.2013 5.45633 12.2578 6.27339 12.3347 6.35037C12.4118 6.42738 13.9169 6.1578 15.6795 5.75137C19.0308 4.97862 20.1252 4.11577 20.1252 2.24605C20.1252 0.822059 20.9443 0.308886 21.922 1.12032C22.9563 1.97874 22.45 4.49305 20.5058 8.15232C19.6692 9.72684 19.1154 11.1457 19.275 11.3053C19.8594 11.8897 24.7226 10.8669 25.6183 9.97121C26.1232 9.46623 27.0213 7.42457 27.614 5.43417C28.2066 3.44378 28.832 1.65708 29.0035 1.46371C29.7632 0.607688 30.7241 2.22948 31.576 5.80528C32.0825 7.93114 32.6769 9.85045 32.8969 10.0704C33.1169 10.2904 34.9363 8.57196 36.9401 6.25161C38.9438 3.93125 41.2203 1.70337 41.9989 1.30073C43.3037 0.626004 43.4547 0.643701 43.9272 1.52664C44.3346 2.28768 44.0579 3.22737 42.5814 6.09759C40.6151 9.92 39.5952 10.7928 39.1379 9.04448C38.8692 8.01677 38.8253 8.01059 37.8791 8.86693C36.9787 9.68182 35.5113 12.0633 35.5113 12.7099C35.5113 13.2548 39.3628 12.9645 41.8219 12.2343C44.6586 11.3919 45.068 10.7855 45.1395 7.32054C45.2205 3.39409 46.737 3.89192 47.6465 8.14348C47.8291 8.99718 48.2602 9.50667 48.7976 9.50382C49.2701 9.50106 52.1943 8.2729 55.2958 6.77401C61.2198 3.91112 62.3131 3.597 62.3131 4.75781C62.3131 5.85465 61.1901 6.74093 57.1938 8.79814L53.509 10.695L58.7796 13.3988C61.6785 14.8859 65.121 16.6425 66.4297 17.3023C67.8663 18.0265 69.4398 18.4409 70.4004 18.348C71.8739 18.2055 72.0012 18.0474 72.1238 16.2088C72.3267 13.1635 72.6906 11.99 73.432 11.99C74.7014 11.99 75.1124 15.7733 74.1999 19.0588C73.2353 22.5321 69.6174 22.0828 61.3204 17.4592C56.4196 14.7283 51.9178 12.9827 49.7753 12.9827C48.9869 12.9827 48.8866 13.2254 49.1604 14.4717C49.441 15.7494 49.3426 15.9606 48.4668 15.9606C47.9054 15.9606 47.0938 15.4229 46.6631 14.7657L45.8802 13.5708L42.557 14.4744C40.7292 14.9713 38.3963 15.5192 37.3726 15.6918C36.3489 15.8644 35.5113 16.2188 35.5113 16.4795C35.5113 17.6288 33.8972 16.786 32.6527 14.9868C31.5609 13.4083 30.9823 13.0166 29.7201 13.0015C27.796 12.9785 26.5774 13.4096 26.5774 14.1134C26.5774 14.404 26.2062 15.0519 25.7524 15.5533C25.0075 16.3764 24.8455 16.3909 24.0854 15.7031C23.3069 14.9985 23.1448 15.2398 21.9325 18.9079C21.2115 21.0896 20.6215 23.1057 20.6215 23.3882C20.6215 23.6707 21.3918 23.9019 22.3334 23.9019C23.6845 23.9019 24.3068 23.559 25.2864 22.2747C26.8727 20.1949 28.5378 16.5325 28.5518 15.0921C28.563 13.9543 29.728 13.5463 30.3041 14.4785C30.4752 14.7552 31.0616 16.5929 31.6073 18.5622C32.7188 22.5733 33.2296 23.4056 34.5795 23.4056C35.6536 23.4056 35.7759 23.9351 34.9034 24.8077C34.4236 25.2874 34.4272 25.6266 34.9202 26.4161C36.2801 28.5936 34.1174 29.1043 32.5943 26.9653C31.6087 25.5812 31.5482 25.5672 28.2176 25.9557C25.1802 26.31 24.6813 26.5306 23.2606 28.1478C22.0701 29.503 21.4323 29.867 20.6715 29.6255C19.8752 29.3728 19.5946 29.5733 19.3434 30.5741C18.9426 32.1712 17.4291 32.2512 16.4611 30.7264ZM30.5481 23.1897C30.5481 23.071 30.3079 22.3451 30.0143 21.5767L29.4806 20.1795L28.7911 21.4203C27.8279 23.1535 27.8935 23.4056 29.3072 23.4056C29.9897 23.4056 30.5481 23.3084 30.5481 23.1897ZM14.9669 8.65159C14.7334 8.41816 12.2058 9.09969 9.55665 10.1104L8.17017 10.6393L9.25712 11.7963L10.3441 12.9533L12.7729 10.9198C14.1087 9.80141 15.096 8.78072 14.9669 8.65159ZM30.0517 9.53768C30.0517 9.00783 29.8284 8.43627 29.5554 8.26756C29.2824 8.09885 29.0591 8.17905 29.0591 8.44584C29.0591 8.71261 28.9235 9.28416 28.7578 9.71596C28.5601 10.2311 28.7308 10.5011 29.2541 10.5011C29.7128 10.5011 30.0517 10.0916 30.0517 9.53768ZM7.46527 6.03978C7.63916 5.75843 7.43997 5.67521 6.99825 5.8447C6.1384 6.17466 5.98107 6.53042 6.69501 6.53042C6.95188 6.53042 7.2985 6.30963 7.46527 6.03978Z" fill="black"/>
</svg>
