<svg width="569" height="5246" viewBox="0 0 569 5246" fill="none" xmlns="http://www.w3.org/2000/svg">
<g id="Frame 42" clip-path="url(#clip0_833_569)">
<g id="Logo" opacity="0.5">
<path id="sunMoon" d="M261.889 348.597C262.874 338.834 267.409 329.649 274.813 322.424C278.484 318.842 282.121 316.289 286.902 313.938C301.509 306.756 318.533 307.68 331.57 316.362C334.647 318.412 338.149 321.574 340.114 324.077C340.591 324.683 341.037 325.18 341.106 325.18C341.254 325.18 341.919 321.358 342.167 319.083C342.424 316.72 342.377 311.087 342.078 308.567C341.006 299.533 337.861 291.681 332.316 284.194C330.568 281.835 325.746 276.925 323.421 275.138C313.939 267.851 302.675 264.182 291.146 264.628C287.609 264.765 287.308 264.796 284.073 265.372C273.811 267.198 265.001 271.825 257.544 279.306C250.332 286.54 245.591 295.757 243.855 305.917C241.656 318.786 244.825 332.529 252.415 343.044C254.467 345.886 258.677 350.424 260.906 352.196L261.613 352.759L261.653 351.65C261.675 351.04 261.782 349.666 261.889 348.597ZM298.398 363.442C305.124 362.664 311.651 360.531 317.496 357.201C324.528 353.195 331.147 346.709 335.327 339.729C335.467 339.494 334.287 338.014 332.69 336.423C325.054 328.813 313.598 325.844 302.615 328.628C297.051 330.039 291.905 332.908 287.723 336.931C281.399 343.014 277.971 350.993 277.971 359.63C277.971 361.194 278.011 361.419 278.312 361.58C279.285 362.1 284.298 363.108 288.317 363.591C289.865 363.777 296.326 363.682 298.398 363.442ZM300.077 389.248C296.183 388.192 293.239 386.91 290.295 384.989C282.474 379.885 277.587 372.132 276.458 363.039C275.054 351.722 280.099 340.246 289.643 333.052C294.683 329.253 301.035 326.692 306.886 326.1C308.534 325.934 313.475 325.941 315.004 326.112C319.409 326.605 324.076 328.196 327.937 330.521C339.294 337.36 344.882 349.969 342.33 363.001C341.992 364.728 341.011 367.873 340.332 369.407C340.171 369.772 340.075 370.07 340.119 370.07C340.262 370.07 342.114 366.985 342.835 365.546C344.632 361.963 346.03 357.558 346.698 353.369C347.133 350.646 347.136 345.065 346.705 342.411C345.806 336.886 343.947 332.035 340.987 327.498C335.082 318.443 325.086 312.19 313.694 310.422C311.092 310.018 305.689 309.88 303.028 310.149C289.542 311.512 277.566 318.539 270.211 329.406C262.508 340.786 261.057 354.375 266.247 366.521C270.773 377.112 280.445 385.215 292.201 388.265C294.91 388.967 298.715 389.553 301.138 389.64C301.381 389.648 300.904 389.472 300.077 389.248ZM298.397 391.676C296.836 391.553 293.207 390.867 291.176 390.311C284.309 388.43 278.166 384.896 273.196 379.967C266.611 373.438 262.776 365.436 261.868 356.33L261.652 354.166L260.837 353.508C259.236 352.217 255.44 348.388 253.902 346.515C246.101 337.01 242.079 325.819 242.074 313.604C242.068 299.658 247.419 286.748 257.273 276.932C265.681 268.556 276.047 263.591 288.317 262.061C290.571 261.781 296.977 261.782 299.281 262.063C304.579 262.711 308.907 263.818 313.542 265.713C334.741 274.376 347.719 296.129 345.332 318.994C345.081 321.394 344.562 324.239 343.934 326.657C343.587 327.992 343.449 328.823 343.554 328.953C343.909 329.393 345.736 333.183 346.312 334.675C347.157 336.859 347.922 339.71 348.367 342.323C348.799 344.864 348.965 349.976 348.694 352.397C348.315 355.779 347.404 359.67 346.311 362.571C343.991 368.732 338.582 375.11 332.46 378.905C331.652 379.406 330.952 379.776 330.904 379.729C330.857 379.681 330.981 379.555 331.18 379.448C331.822 379.105 334.552 375.873 335.893 373.87C341.61 365.327 342.76 354.86 338.977 345.778C338.105 343.684 337.214 342.073 337.034 342.267C336.96 342.346 336.235 343.298 335.422 344.383C330.429 351.039 324.326 356.166 317.101 359.773C309.658 363.489 302.06 365.297 293.887 365.297C288.65 365.297 284.234 364.657 278.558 363.073C278.249 362.987 278.186 363.031 278.24 363.293C278.278 363.472 278.438 364.295 278.596 365.122C279.206 368.317 280.879 372.329 282.796 375.192C288.416 383.587 297.785 388.45 308.336 388.45C310.641 388.45 314.026 388.135 315.041 387.826C315.931 387.555 313.217 388.839 311.719 389.398C307.695 390.899 301.654 391.932 298.397 391.676Z" fill="#FF0000"/>
<g id="Mask group">
<mask id="mask0_833_569" style="mask-type:alpha" maskUnits="userSpaceOnUse" x="136" y="156" width="313" height="314">
<circle id="rayMask" cx="292.425" cy="312.969" r="156.119" fill="#D9D9D9"/>
</mask>
<g mask="url(#mask0_833_569)">
<path id="ray1" d="M191.052 348.973C195.462 346.674 200.268 345.3 204.859 343.424C211.205 340.962 217.551 338.482 223.904 336.04C227.338 334.798 230.77 333.542 234.179 332.239C235.218 332.02 238.495 330.933 238.093 332.671C237.081 333.757 235.726 334.101 234.304 334.758C231.684 335.811 229.007 336.717 226.444 337.905C223.792 338.867 221.186 339.964 218.533 340.929C217.182 341.613 215.661 341.972 214.232 342.576C211.91 343.389 209.63 344.308 207.322 345.151C205.153 346.013 202.943 346.795 200.734 347.535C199.024 348.211 197.12 349.21 195.255 349.823C193.484 350.285 191.705 351.513 189.842 351.069C189.077 350.35 190.52 349.313 191.052 348.973Z" fill="#FF0000"/>
</g>
</g>
<g id="Mask group_2">
<mask id="mask1_833_569" style="mask-type:alpha" maskUnits="userSpaceOnUse" x="136" y="156" width="313" height="314">
<circle id="rayMask_2" cx="292.425" cy="312.969" r="156.119" fill="#D9D9D9"/>
</mask>
<g mask="url(#mask1_833_569)">
<g id="ray2">
<path d="M157.894 314.792C157.037 314.667 156.689 313.508 157.334 312.924C157.817 312.487 158.873 312.543 159.211 313.025C159.885 313.986 159.148 314.975 157.894 314.792Z" fill="#FF0000"/>
<path d="M161.962 314.637C161.215 314.35 161.036 313.414 161.626 312.88C161.956 312.582 162.347 312.537 165.083 312.485C168.638 312.417 169.036 312.528 169.036 313.586C169.036 314.589 168.801 314.66 165.339 314.702C163.628 314.722 162.108 314.693 161.962 314.637Z" fill="#FF0000"/>
<path d="M171.104 314.261C170.365 313.445 170.99 312.392 172.156 312.488C172.707 312.533 172.882 312.642 173.084 313.064C173.297 313.511 173.297 313.647 173.079 314.036C172.746 314.631 171.562 314.767 171.104 314.261Z" fill="#FF0000"/>
<path d="M175.296 314.441C174.645 314.006 174.657 312.82 175.315 312.568C175.795 312.383 176.731 312.44 176.958 312.667C177.28 312.989 177.214 313.951 176.847 314.283C176.515 314.584 175.643 314.672 175.296 314.441Z" fill="#FF0000"/>
<path d="M184.721 314.084C183.984 313.27 184.607 312.215 185.769 312.311C186.29 312.354 186.505 312.477 186.715 312.853C186.958 313.289 186.958 313.388 186.714 313.825C186.364 314.454 185.194 314.606 184.721 314.084Z" fill="#FF0000"/>
<path d="M188.233 314.006C187.625 313.139 188.12 312.278 189.227 312.278C190.296 312.278 190.855 313.434 190.11 314.107C189.627 314.544 188.571 314.488 188.233 314.006Z" fill="#FF0000"/>
<path d="M201.405 313.659C200.931 313.151 200.949 312.607 201.454 312.132C202.265 311.371 203.52 311.883 203.52 312.975C203.52 313.965 202.114 314.42 201.405 313.659Z" fill="#FF0000"/>
<path d="M204.75 313.594C204.409 313.183 204.47 312.312 204.861 312.016C205.374 311.628 206.474 311.673 206.697 312.09C206.977 312.613 206.916 313.361 206.571 313.623C206.142 313.948 205.03 313.931 204.75 313.594Z" fill="#FF0000"/>
<path d="M210.152 313.609C210.055 313.575 209.77 313.502 209.519 313.447C208.584 313.243 208.536 311.917 209.451 311.569C209.704 311.473 211.292 311.395 212.98 311.395C216.351 311.395 216.607 311.469 216.607 312.44C216.607 313.36 216.257 313.475 213.158 313.578C211.602 313.63 210.249 313.644 210.152 313.609Z" fill="#FF0000"/>
<path d="M218.633 313.082C218.394 312.843 218.198 312.521 218.198 312.367C218.198 311.901 219.019 311.218 219.578 311.218C220.226 311.218 220.674 311.707 220.674 312.415C220.674 313.461 219.421 313.87 218.633 313.082Z" fill="#FF0000"/>
<path d="M227.761 312.873C227.286 312.27 227.299 312.004 227.829 311.475C228.631 310.673 229.87 311.097 229.87 312.173C229.87 313.325 228.48 313.787 227.761 312.873Z" fill="#FF0000"/>
</g>
</g>
</g>
<g id="Mask group_3">
<mask id="mask2_833_569" style="mask-type:alpha" maskUnits="userSpaceOnUse" x="136" y="156" width="313" height="314">
<circle id="rayMask_3" cx="292.425" cy="312.969" r="156.119" fill="#D9D9D9"/>
</mask>
<g mask="url(#mask2_833_569)">
<path id="ray3" d="M235.706 289.087C234.364 288.837 232.976 288.087 231.604 287.655C229.135 286.646 226.592 285.831 224.14 284.781C221.685 284.035 219.396 282.823 216.96 282.021C213.288 280.526 209.645 278.959 205.925 277.589C204.287 277.011 202.93 276.017 201.537 275.771C199.106 274.962 196.669 274.051 194.405 272.893C193.281 272.341 192.939 270.546 194.634 270.949C198.022 271.281 201.009 273.078 204.168 274.193C208.861 276.042 213.559 277.871 218.266 279.684C221.656 281.006 225.054 282.318 228.414 283.721C230.868 284.746 233.35 285.716 235.797 286.747C237.018 287.058 238.467 289.504 236.228 289.177L235.979 289.141L235.706 289.087Z" fill="#FF0000"/>
</g>
</g>
<g id="Mask group_4">
<mask id="mask3_833_569" style="mask-type:alpha" maskUnits="userSpaceOnUse" x="136" y="156" width="313" height="314">
<circle id="rayMask_4" cx="292.425" cy="312.969" r="156.119" fill="#D9D9D9"/>
</mask>
<g mask="url(#mask3_833_569)">
<g id="ray4">
<path d="M246.529 268.227C246.12 267.734 246.098 267.076 246.478 266.696C246.976 266.199 248.172 266.183 248.433 266.67C248.712 267.191 248.652 267.831 248.292 268.156C247.912 268.5 246.794 268.545 246.529 268.227Z" fill="#FF0000"/>
<path d="M243.78 265.651C243.079 264.877 243.877 263.523 244.894 263.763C245.429 263.889 245.963 264.47 245.963 264.927C245.963 265.799 244.387 266.322 243.78 265.651Z" fill="#FF0000"/>
<path d="M239.383 261.071C238.131 259.833 237.061 258.639 237.005 258.419C236.865 257.86 237.377 257.138 237.914 257.138C238.471 257.138 239.585 258.109 242.117 260.802C243.205 261.959 243.342 262.408 242.78 262.97C242.121 263.628 241.772 263.434 239.383 261.071Z" fill="#FF0000"/>
<path d="M229.556 252.267C229.281 252.075 229.163 251.812 229.163 251.394C229.163 250.374 230.285 249.897 231.11 250.565C232.271 251.504 230.787 253.129 229.556 252.267Z" fill="#FF0000"/>
<path d="M226.57 249.208C225.561 248.402 223.163 245.943 222.723 245.262C222.454 244.847 222.445 244.721 222.651 244.29C222.829 243.916 223.034 243.78 223.485 243.737C224.042 243.684 224.243 243.84 226.446 246.042C227.745 247.341 228.809 248.543 228.809 248.714C228.809 249.089 228.042 249.891 227.683 249.891C227.542 249.891 227.041 249.584 226.57 249.208Z" fill="#FF0000"/>
<path d="M216.147 239.31C215.124 238.557 211.832 235.139 211.832 234.831C211.832 234.358 212.728 233.612 213.141 233.741C213.983 234.004 218.198 238.138 218.198 238.701C218.198 239.221 217.688 239.818 217.242 239.818C217.019 239.818 216.526 239.589 216.147 239.31Z" fill="#FF0000"/>
<path d="M209.278 232.886C208.9 232.346 208.933 231.944 209.389 231.518C209.877 231.064 210.904 231.036 211.232 231.467C211.569 231.91 211.531 232.645 211.155 232.986C210.671 233.424 209.615 233.367 209.278 232.886Z" fill="#FF0000"/>
<path d="M201.707 225.71C201.44 225.534 200.306 224.503 199.187 223.42C197 221.301 196.795 220.901 197.541 220.207C198.276 219.523 198.444 219.623 201.545 222.586C203.514 224.469 203.727 224.92 203.028 225.723C202.684 226.117 202.319 226.113 201.707 225.71Z" fill="#FF0000"/>
</g>
</g>
</g>
<g id="Mask group_5">
<mask id="mask4_833_569" style="mask-type:alpha" maskUnits="userSpaceOnUse" x="136" y="156" width="313" height="314">
<circle id="rayMask_5" cx="292.425" cy="312.969" r="156.119" fill="#D9D9D9"/>
</mask>
<g mask="url(#mask4_833_569)">
<path id="ray5" d="M271.361 257.086C269.879 255.957 269.538 254.054 268.749 252.471C267 248.469 265.33 244.435 263.686 240.389C261.963 236.393 260.532 232.277 258.776 228.294C257.766 225.274 256.253 222.458 255.154 219.473C254.839 218.195 253.306 215.417 255.176 215.358C256.747 215.308 257.019 217.874 257.748 219.178C259.243 222.667 260.564 226.222 262.079 229.698C263.487 233.163 264.999 236.588 266.377 240.067C268.02 243.834 269.485 247.678 270.961 251.513C271.525 253.029 272.315 254.5 272.643 256.115C272.947 256.889 271.989 257.414 271.361 257.086Z" fill="#FF0000"/>
</g>
</g>
<g id="Mask group_6">
<mask id="mask5_833_569" style="mask-type:alpha" maskUnits="userSpaceOnUse" x="136" y="156" width="313" height="314">
<circle id="rayMask_6" cx="292.425" cy="312.969" r="156.119" fill="#D9D9D9"/>
</mask>
<g mask="url(#mask5_833_569)">
<g id="ray6">
<path d="M302.096 250.247C301.272 250.062 301.139 249.925 301.139 249.263C301.139 248.572 301.646 247.947 302.208 247.947C302.407 247.947 302.772 248.15 303.021 248.398C303.371 248.749 303.446 248.955 303.355 249.326C303.174 250.069 302.734 250.391 302.096 250.247Z" fill="#FF0000"/>
<path d="M302.083 247.064C301.588 246.865 301.434 246.356 301.676 245.721C301.908 245.112 302.136 244.949 302.764 244.946C303.292 244.943 303.791 245.5 303.791 246.092C303.791 246.998 303.015 247.44 302.083 247.064Z" fill="#FF0000"/>
<path d="M302.677 244.285C301.999 244.183 301.763 243.54 302.103 242.725C302.334 242.173 302.426 242.115 303.069 242.115C303.836 242.115 304.145 242.431 304.145 243.213C304.145 243.707 303.68 244.423 303.383 244.386C303.267 244.372 302.949 244.326 302.677 244.285Z" fill="#FF0000"/>
<path d="M303.703 237.569C303.143 237.432 302.907 237.16 302.907 236.654C302.907 235.9 303.368 235.399 304.063 235.399C304.823 235.399 305.309 236.026 305.123 236.767C304.902 237.645 304.632 237.797 303.703 237.569Z" fill="#FF0000"/>
<path d="M303.662 234.118C303.313 233.673 303.304 233.06 303.607 230.29C303.941 227.239 304.18 226.563 304.925 226.563C305.155 226.563 305.53 226.713 305.757 226.897L306.169 227.231L305.873 230.151C305.711 231.757 305.458 233.357 305.312 233.705C305.081 234.258 304.97 234.339 304.441 234.339C304.108 234.339 303.757 234.24 303.662 234.118Z" fill="#FF0000"/>
<path d="M304.735 225.856C304.241 225.657 304.087 225.148 304.328 224.513C304.559 223.908 304.789 223.741 305.4 223.738C306.31 223.732 306.747 224.814 306.169 225.64C305.883 226.047 305.393 226.121 304.735 225.856Z" fill="#FF0000"/>
<path d="M306.267 218.04C305.552 217.843 305.389 217.647 305.386 216.975C305.382 216.375 305.946 215.782 306.52 215.782C307.114 215.782 307.736 216.597 307.592 217.188C307.404 217.961 306.978 218.235 306.267 218.04Z" fill="#FF0000"/>
<path d="M307.132 209.656C306.606 209.516 306.436 208.819 306.766 208.159C307.394 206.902 309.129 207.55 308.794 208.916C308.596 209.721 308.138 209.925 307.132 209.656Z" fill="#FF0000"/>
<path d="M307.429 205.961C307.007 205.538 307.072 204.547 307.544 204.216C308.401 203.616 309.45 204.097 309.45 205.09C309.45 206.076 308.118 206.65 307.429 205.961Z" fill="#FF0000"/>
<path d="M307.865 202.362C307.592 201.853 307.637 201.109 308.116 198.191C308.48 195.971 308.613 195.495 308.945 195.226C309.613 194.684 310.688 195.181 310.688 196.031C310.688 196.927 309.76 201.949 309.53 202.301C309.183 202.829 308.136 202.868 307.865 202.362Z" fill="#FF0000"/>
</g>
</g>
</g>
<g id="Mask group_7">
<mask id="mask6_833_569" style="mask-type:alpha" maskUnits="userSpaceOnUse" x="136" y="156" width="313" height="314">
<circle id="rayMask_7" cx="292.425" cy="312.969" r="156.119" fill="#D9D9D9"/>
</mask>
<g mask="url(#mask6_833_569)">
<path id="ray7" d="M327.957 262.852C327.22 261.385 328.911 259.832 329.508 258.495C333.734 252.428 338.115 246.47 342.344 240.405C345.867 235.432 349.345 230.416 353.131 225.641C353.636 224.619 355.79 223.936 355.271 225.773C354.833 227.44 353.487 228.644 352.753 230.169C351.446 231.853 350.162 233.567 349.091 235.403C347.793 237.073 346.724 238.914 345.326 240.506C344.493 241.901 343.535 243.262 342.497 244.527C340.963 246.763 339.223 248.871 337.769 251.145C335.017 254.512 332.861 258.316 330.132 261.696C329.601 262.245 328.844 263.316 327.957 262.852Z" fill="#FF0000"/>
</g>
</g>
<g id="Mask group_8">
<mask id="mask7_833_569" style="mask-type:alpha" maskUnits="userSpaceOnUse" x="136" y="156" width="313" height="314">
<circle id="rayMask_8" cx="292.425" cy="312.969" r="156.119" fill="#D9D9D9"/>
</mask>
<g mask="url(#mask7_833_569)">
<g id="ray8">
<path d="M345.956 276.024C345.686 275.503 345.689 275.443 346.013 275.008C346.451 274.419 347.599 274.263 347.951 274.744C348.237 275.136 348.247 276.086 347.966 276.366C347.85 276.483 347.414 276.578 346.998 276.578C346.33 276.578 346.209 276.514 345.956 276.024Z" fill="#FF0000"/>
<path d="M349.096 274.097C348.23 273.29 348.664 272.694 351.627 270.621C354.023 268.944 354.445 268.737 354.891 269.015C355.084 269.136 355.335 269.458 355.448 269.732C355.63 270.17 355.604 270.284 355.233 270.681C354.753 271.194 351.211 273.724 350.354 274.166C349.635 274.537 349.564 274.533 349.096 274.097Z" fill="#FF0000"/>
<path d="M359.947 266.479C359.363 266.02 359.376 265.447 359.983 264.876C360.654 264.246 364.595 261.717 365.159 261.555C365.68 261.406 366.047 261.611 366.383 262.241C366.724 262.881 366.242 263.378 363.675 265.031C360.888 266.824 360.552 266.955 359.947 266.479Z" fill="#FF0000"/>
<path d="M368.089 261.548C367.478 261.366 367.284 261.106 367.281 260.461C367.275 259.503 368.919 259.029 369.478 259.828C369.883 260.405 369.815 260.952 369.288 261.366C368.773 261.771 368.813 261.765 368.089 261.548Z" fill="#FF0000"/>
<path d="M370.812 259.469C369.982 258.797 370.562 257.491 371.691 257.491C372.314 257.491 372.76 257.991 372.76 258.688C372.76 259.66 371.616 260.119 370.812 259.469Z" fill="#FF0000"/>
<path d="M377.221 255.272C376.667 254.884 376.708 254.135 377.314 253.567C377.982 252.942 381.94 250.433 382.467 250.3C382.702 250.241 383.022 250.273 383.177 250.37C383.587 250.627 383.838 251.436 383.621 251.801C383.278 252.379 378.315 255.547 377.753 255.547C377.676 255.547 377.437 255.423 377.221 255.272Z" fill="#FF0000"/>
<path d="M385.569 249.453C385.064 248.948 385.037 248.702 385.428 248.145C385.759 247.672 389.914 244.923 390.71 244.649C391.4 244.412 391.63 244.506 391.968 245.16C392.228 245.661 392.224 245.729 391.905 246.16C391.523 246.676 387.395 249.395 386.544 249.692C386.063 249.859 385.947 249.831 385.569 249.453Z" fill="#FF0000"/>
<path d="M393.88 243.974C393.003 243.097 393.331 242.679 396.522 240.619C399.473 238.712 399.744 238.645 400.283 239.686C400.539 240.181 400.534 240.251 400.216 240.681C399.835 241.197 395.707 243.916 394.856 244.213C394.375 244.381 394.258 244.352 393.88 243.974Z" fill="#FF0000"/>
<path d="M405.3 236.283C404.503 235.487 404.964 234.916 407.985 232.961C410.245 231.499 410.889 231.205 411.289 231.453C411.686 231.7 412.045 232.478 411.916 232.813C411.801 233.112 408.837 235.18 407.231 236.082C406.076 236.731 405.778 236.762 405.3 236.283Z" fill="#FF0000"/>
</g>
</g>
</g>
<g id="Mask group_9">
<mask id="mask8_833_569" style="mask-type:alpha" maskUnits="userSpaceOnUse" x="136" y="156" width="313" height="314">
<circle id="rayMask_9" cx="292.425" cy="312.969" r="156.119" fill="#D9D9D9"/>
</mask>
<g mask="url(#mask8_833_569)">
<path id="ray9" d="M352.487 293.172C354.5 291.573 357.147 291.168 359.533 290.369C365.426 288.678 371.267 286.82 377.144 285.071C382.535 283.422 387.963 281.901 393.384 280.361C394.476 279.741 396.821 280.522 395.262 281.857C394.142 282.863 392.541 282.901 391.219 283.526C389.143 284.073 387.102 284.727 385.087 285.462C382.163 286.318 379.255 287.235 376.317 288.047C371.265 289.525 366.2 290.951 361.158 292.46C358.631 293.251 356.118 294.191 353.506 294.625C352.668 294.718 351.657 293.996 352.487 293.172Z" fill="#FF0000"/>
</g>
</g>
</g>
<g id="leg">
<mask id="mask9_833_569" style="mask-type:alpha" maskUnits="userSpaceOnUse" x="-57" y="270" width="573" height="1194">
<g id="Group">
<path id="Subtract" fill-rule="evenodd" clip-rule="evenodd" d="M504.5 270L-57 270L-46 1463.5H515.5L504.5 270ZM342.921 980.263C343.626 976.718 342.921 971.643 342.921 971.643L324.931 962.273L265.711 967.145C265.688 967.46 265.666 967.79 265.643 968.134C265.471 970.503 265.268 973.277 265.711 975.391L291.198 992.632L340.298 1005.38C341.677 1003.81 341.28 1001.5 341.107 1000.49C341.077 1000.34 341.055 1000.22 341.047 1000.13C341.535 999.244 348.221 1009.12 341.797 1011.75C341.797 1012.65 323.806 1012.12 314.811 1011.75L278.454 1000.5L266.085 1004.25C266.385 1006.65 266.708 1009.75 266.835 1011L272.457 1013.62L336.55 1038.36C336.46 1036.46 336.482 1035.22 336.55 1032.74C340.852 1032.95 342.509 1041.29 337.299 1045.11C335.133 1046.69 324.053 1045.61 318.184 1044.36L285.576 1038.36L264.586 1042.48C264.586 1043.98 264.586 1046.23 265.336 1047.35L267.96 1049.6L301.692 1054.85L333.926 1055.97C334.713 1055.14 334.676 1053.73 334.301 1052.6C337.876 1053.19 338.169 1058.34 334.676 1061.97C332.959 1063.76 322.179 1068.47 316.31 1070.22L263.087 1071.34L266.835 1091.58L267.21 1096.08L268.334 1097.58L269.084 1098.33L306.565 1108.07L309.938 1124.19L302.442 1131.69L300.568 1129.06C300.433 1127.98 300.403 1126.77 300.381 1125.82C300.358 1124.74 300.343 1124.01 300.193 1124.19C299.953 1124.49 298.806 1124.04 297.562 1123.55C296.625 1123.19 295.643 1122.8 294.946 1122.69L263.837 1119.69L252.218 1132.81C252.3 1133.52 252.36 1134.2 252.42 1134.85C252.772 1138.84 253.012 1141.54 257.84 1142.18C263.087 1142.56 276.745 1141.45 273.582 1132.81L264.586 1135.43L264.594 1135.49C264.766 1137.95 264.939 1140.29 262.337 1138.81C261.603 1137.64 261.25 1134.03 262.337 1131.31C262.937 1129.81 267.082 1128.44 267.96 1128.31L281.078 1126.81L298.319 1130.94L303.566 1139.18L303.192 1153.43L300.568 1147.05C300.568 1145.18 300.568 1143.31 299.443 1141.43C298.611 1140.04 295.673 1139.19 293.559 1138.58C293.387 1138.52 293.229 1138.48 293.072 1138.43L272.082 1140.68L261.588 1143.68L254.841 1149.68L250.718 1160.55L257.465 1170.67C268.807 1170.78 272.832 1160.17 262.712 1160.55C262.195 1161.62 262.337 1162.55 262.712 1164.29C259.017 1161.85 258.642 1159.51 261.213 1156.42C262.735 1154.59 262.457 1153.13 262.315 1152.41C262.262 1152.13 262.232 1151.96 262.337 1151.93L273.956 1150.05L284.826 1151.93L294.571 1161.67L299.818 1164.29L325.305 1152.68L372.906 1045.11L342.921 980.263Z" fill="#D9D9D9"/>
</g>
</mask>
<g mask="url(#mask9_833_569)">
<g id="Group_2">
<path id="fullLeg" d="M281.08 1288.62C268.602 1288.15 279.747 1299.9 283.378 1291.62C281.504 1301.74 295.747 1298.74 288.25 1290.12C295.371 1296.27 299.632 1287.77 289 1287.5C299.12 1284.13 289 1275.5 286.001 1284.5C286.376 1274.38 276.327 1277.51 283.378 1285.53C274.008 1275.88 272.508 1287.5 281.504 1288.16C281.789 1290.16 283.826 1292.7 285.369 1292.61C287.043 1292.51 290.8 1289.28 288.651 1285.53C286.97 1282.61 281.073 1285.14 281.08 1288.16C274.708 1285.91 260.056 1289.61 255.182 1303.86C254.85 1305.74 246.562 1298.61 249.56 1297.48C252.559 1296.36 254.433 1303.48 254.433 1304.6C252.974 1306 257.985 1312.67 260.056 1310.6C261.555 1309.1 255.175 1302.51 254.143 1305.35C252.234 1310.6 249.048 1325.22 247.396 1347.71C247.245 1349.77 238.776 1344.33 240.275 1342.09C241.774 1339.84 247 1347.6 247.021 1348.46C247.396 1363.82 243.273 1396.81 238.404 1420.05C243.885 1387.5 186.859 1392.82 227.5 1347.71C269.247 1301.36 196.805 1245.09 197.5 1274C198.32 1308.17 285.203 1245 285.203 1177.79C306.942 1152.3 260.091 1146.68 261.215 1160.55C261.395 1162.8 263.651 1163.73 266.463 1163.55C264.641 1172.31 254.221 1164.65 253.719 1157.92L259.716 1149.68L265.495 1143.49L275.458 1144.8L283.704 1142.56L293.824 1146.68L293.074 1149.68C300.42 1146.89 301.08 1145.7 301.32 1143.68C303.194 1128.69 264.588 1125.31 263.839 1135.06C263.089 1144.8 272.085 1132.81 272.459 1134.31C271.41 1143.55 256.238 1143.32 255.593 1133.56L265.495 1125.69H274.334L281.455 1123.44L292.324 1126.44C294.858 1128.87 299.086 1129.97 300.945 1126.81C307.692 1109.95 260.938 1113.31 267.962 1096.45L278.456 1083.34L285.203 1075.46L304.318 1080.34L319.311 1075.46L338.149 1072.47L346.297 1052.98C340.84 1047.34 328.793 1051.21 328.681 1054.1C327.122 1055.13 335.87 1052.98 335.195 1055.53C331.672 1068.78 263.839 1064.6 263.839 1046.23C263.839 1041.75 270.383 1043.91 274.334 1043.61L291.575 1051.1L299.821 1043.61L326.807 1049.6L344.798 1043.61C342.601 1029.39 337.706 1026.93 331.305 1034.61C334.408 1035.32 338.621 1035.74 338.149 1038.31C335.428 1053.15 259.716 1025.24 266.088 1007.62C268.344 1001.38 274.236 1008.7 278.456 1011.37L285.203 1009.5L299.821 1017.74L306.942 1015.87L322.684 1021.49L344.798 1017.74C353.178 993.614 347.586 995.263 333.179 1000.5C338.381 1002.58 342.661 1001.63 342.032 1004.78C339.633 1016.87 261.59 997.505 264.588 971.268C265.211 965.811 273.269 971.883 278.456 974.544L291.575 967.52L306.942 976.515L322.684 974.544L327.556 973.892C335.113 970.976 342.174 981.013 344.423 976.141C372.502 967.52 372.002 909.5 413.502 879.5C447.002 853.5 454.003 810.5 454.003 779C454.003 747 401.003 725 384.503 709C370.43 695.354 389.739 677.224 374.503 659C360.518 642.274 336.799 662.748 357.003 678C398.377 709.234 432.549 656.057 425.503 622C416.679 597 369.503 587.5 369.503 551.5C369.503 522.588 387.112 496.827 380.503 471C374.539 447.696 348.503 446 324.002 384" stroke="#FF0000" stroke-width="1.52977" stroke-linecap="round"/>
</g>
</g>
</g>
<g id="Mask group_10">
<mask id="mask10_833_569" style="mask-type:alpha" maskUnits="userSpaceOnUse" x="-321" y="-74" width="725" height="473">
<path id="SunMask" fill-rule="evenodd" clip-rule="evenodd" d="M404 -74H-321V399H404V-74ZM290.452 388.549C293.479 390.52 296.508 391.836 300.512 392.919C301.363 393.149 301.854 393.33 301.603 393.321C299.111 393.232 295.198 392.632 292.412 391.911C280.32 388.781 270.373 380.467 265.718 369.599C260.38 357.136 261.872 343.192 269.795 331.515C277.36 320.364 289.677 313.153 303.548 311.754C306.284 311.479 311.841 311.621 314.517 312.035C326.234 313.849 336.515 320.266 342.589 329.556C345.633 334.212 347.545 339.19 348.469 344.86C348.913 347.582 348.91 353.309 348.463 356.103C347.774 360.402 346.338 364.922 344.49 368.599C343.748 370.075 341.842 373.241 341.696 373.241C341.651 373.241 341.749 372.934 341.915 372.56C342.613 370.986 343.622 367.759 343.97 365.987C346.595 352.615 340.848 339.676 329.166 332.658C325.195 330.273 320.396 328.641 315.865 328.135C314.292 327.959 309.21 327.951 307.515 328.122C301.498 328.729 294.965 331.357 289.781 335.256C279.965 342.638 274.776 354.413 276.22 366.026C277.381 375.356 282.408 383.312 290.452 388.549Z" fill="#D9D9D9"/>
</mask>
<g mask="url(#mask10_833_569)">
<path id="left" opacity="0.5" d="M-213 -177C-213 -153.5 -62.0317 -196 -58 -132.5C-56 -101 -113.5 -66.5 -100.5 -22C-87.5 22.5 17.1687 -30 29 36.5C43.5 118 115.986 55.9045 119.499 98.5C123.499 147 167.999 114.5 176.499 152.5C184.999 190.5 132.499 179 119.499 220C106.499 261 138.499 281.984 161.499 280.5C184.499 279.016 198.822 292.15 210.999 300.5C223.176 308.85 242.999 306 246.999 294C265.5 254.5 304 263.5 308.5 265C325.5 270.667 351.5 292.5 343 327C334.5 361.5 290 375 263.5 355C236.823 334.867 241 305.5 246.5 295" stroke="#FF0000" stroke-width="1.5"/>
</g>
</g>
<path id="right" opacity="0.5" d="M656.555 593.5C600.055 567.5 570.555 657.5 547.555 633.5C524.555 609.5 550.5 529.5 529 513C509.104 497.731 478 561.071 458 565C418.5 572.759 459.055 499 446.055 446C439.564 419.539 385.555 438 376.055 424C366.555 410 399.1 390.559 394.055 377.5C391.11 367.5 379.5 365.5 369.5 365.5C360.85 365.5 348.611 363.938 347.759 346.774C346.339 314.415 313.575 308.093 302.5 309.5C279.782 312.877 262 329.608 262 352.964C262 379.132 292.953 396.296 309.707 389.262C303.176 389.825 283.043 387.199 277.902 367.314C273.413 349.95 284.744 336.726 294.373 331.017C304.783 324.844 330.125 325.309 338.672 343.116C346.431 359.283 339.53 370.777 335.549 375.474C339.997 372.848 348.782 363.657 348.327 347.899" stroke="#FF0000" stroke-width="1.5"/>
<g id="droplet">
<path id="droplet0" d="M294.615 1288.8C294.615 1290.86 292.267 1292.72 290.097 1292.72C287.928 1292.72 285.973 1290.86 285.973 1288.8C285.973 1286.74 288.321 1286 290.491 1286C292.66 1286 294.615 1286.74 294.615 1288.8Z" fill="#FF0000"/>
<path id="droplet0a" d="M294.307 1291.97C291.137 1295.22 290.947 1301.1 290.091 1301.34C289.07 1301.62 289.373 1299.34 288.505 1299.04C286.343 1298.3 290.607 1297.01 290.607 1293.06C290.607 1287.67 295.932 1290.31 294.307 1291.97Z" fill="#FF0000"/>
<path id="droplet1" d="M293.059 1299.77C293.981 1302.77 291.713 1306.97 286.432 1306.97C281.15 1306.97 279.752 1302.79 280.576 1299.77C282.016 1294.49 283.684 1298.33 286.818 1298.33C289.952 1298.33 291.139 1293.53 293.059 1299.77Z" fill="#FF0000"/>
<path id="droplet2" d="M293.655 1301.21C294.958 1305.35 293.389 1311.29 285.921 1311.29C278.453 1311.29 277.22 1304.57 279.251 1300.73C282.612 1294.37 282.036 1299.33 286.468 1299.33C290.898 1299.33 290.939 1292.57 293.655 1301.21Z" fill="#FF0000"/>
<path id="droplet3" d="M293.568 1308C294.871 1312.15 293.302 1318.08 285.834 1318.08C278.366 1318.08 277.134 1311.36 279.164 1307.52C281.195 1303.69 283.092 1304.09 285.493 1303.61C287.894 1303.13 292.186 1303.61 293.568 1308Z" fill="#FF0000"/>
<path id="droplet4" d="M293.175 1327.23C293.175 1331.9 289.52 1335.69 285.013 1335.69C280.505 1335.69 278.291 1331.9 278.291 1327.23C278.291 1322.56 286.453 1309.77 286.453 1314.09C286.453 1318.41 293.175 1323.21 293.175 1327.23Z" fill="#FF0000"/>
<path id="droplet5" d="M297.021 1333.05C296.5 1334.36 272.454 1336.52 273.009 1333.53C273.009 1329.21 282.355 1334.91 281.652 1332.09C279.251 1322.49 292.215 1325.37 288.854 1330.65C285.493 1335.93 298.661 1328.94 297.021 1333.05Z" fill="#FF0000"/>
<path id="droplet5b" d="M288.373 1333.29C288.373 1334.18 286.416 1334.97 284.609 1334.97C282.801 1334.97 281.171 1334.18 281.171 1333.29C281.171 1332.41 283.128 1332.09 284.936 1332.09C286.744 1332.09 288.373 1332.41 288.373 1333.29Z" fill="#FF0000"/>
<path id="droplet6" d="M290.294 1949.2C290.294 1952.29 287.555 1955.08 285.023 1955.08C282.492 1955.08 280.211 1952.29 280.211 1949.2C280.211 1946.1 282.951 1945 285.482 1945C288.014 1945 290.294 1946.1 290.294 1949.2Z" fill="#FF0000"/>
<path id="droplet7" d="M288.373 1953.4C288.373 1954.29 286.416 1955.08 284.609 1955.08C282.801 1955.08 281.171 1954.29 281.171 1953.4C281.171 1952.52 283.128 1952.2 284.936 1952.2C286.744 1952.2 288.373 1952.52 288.373 1953.4Z" fill="#FF0000"/>
</g>
<g id="waves">
<path id="wave1a" d="M373 2013.62C395.72 2024.31 405.65 1995.78 423.11 2004.79C440.58 2013.8 429.12 2039.94 441.54 2046.28C453.96 2052.63 475.6 2031.33 486.23 2038.81C496.86 2046.3 488.29 2061.81 500.54 2066.58C512.8 2071.36 519.9 2064.75 525.6 2069.09C531.29 2073.43 536.49 2086.88 542.62 2089.27" stroke="#FF0000" stroke-width="2" stroke-linecap="round"/>
<path id="wave1b" d="M200.465 1881.71C180.405 1864.39 200.936 1842.1 193.213 1832.89C185.49 1823.67 165.361 1836.85 154.913 1824.39C144.464 1811.93 165.524 1800.38 154.247 1792.25C142.97 1784.12 134.504 1796.02 122 1782" stroke="#FF0000" stroke-width="2" stroke-linecap="round"/>
<path id="wave02" d="M166.066 2062C141.846 2072.77 155.037 2100.05 144.975 2106.63C134.914 2113.2 116.612 2097.73 103 2106.63C89.388 2115.53 95.093 2127.53 90.5 2134.53C85.907 2141.53 74.5 2134.53 68 2146.67C64.5 2155.17 63.5 2154.67 58 2159.67" stroke="#FF0000" stroke-width="2" stroke-linecap="round"/>
<path id="wave03" d="M121.731 2004.05C95.268 2002.57 94.554 2032.87 82.599 2034.13C70.644 2035.39 61.423 2013.26 45.25 2014.97C29.077 2016.68 28.675 2029.96 21.393 2034.09C14.111 2038.22 7.15699 2026.79 -4.16901 2034.63C-11.163 2040.59 -11.824 2039.69 -19 2041.63" stroke="#FF0000" stroke-width="2" stroke-linecap="round"/>
<path id="wave04" d="M419 1912.39C445.5 1912.61 444.78 1882.32 456.66 1880.49C468.54 1878.66 478.8 1900.32 494.88 1897.85C510.95 1895.38 508.1 1883.75 517.8 1877.62C527.5 1871.49 531.5 1885.01 543.46 1881.59" stroke="#FF0000" stroke-width="2" stroke-linecap="round"/>
<path id="Wave05" d="M128.646 1897.34C124.772 1893.57 122.393 1891.6 118.164 1890.81C113.249 1889.89 102.171 1897.5 94.672 1894.06C87.173 1890.63 89.986 1880.99 82.819 1873.04C75.652 1865.09 63.562 1875.4 55.292 1867.92C51.048 1864.07 53.041 1860.89 46 1855" stroke="#FF0000" stroke-width="2" stroke-linecap="round"/>
<path id="wave06" d="M334.604 2099C339.622 2107.19 360.154 2100.19 365.048 2109.38C369.942 2118.56 355.734 2127.36 361.745 2135.67C367.755 2143.98 379.106 2141.88 382.513 2146.85C384.929 2151.68 379.467 2159.06 386.036 2166.94" stroke="#FF0000" stroke-width="2" stroke-linecap="round"/>
<path id="wave07" d="M204.445 1808.6C193.32 1795.16 203.836 1787.71 200.156 1781.44C196.477 1775.17 189.434 1775.78 185.909 1767.99C182.383 1760.21 189.199 1761 187.237 1754.12C185.275 1747.23 174.766 1742.74 172.42 1737.22C170.075 1731.7 169.821 1723.96 166 1719" stroke="#FF0000" stroke-width="2" stroke-linecap="round"/>
<path id="wave08" d="M462 1982.02C478.56 1976.53 483.42 1989.42 490.6 1988.27C497.78 1987.11 500.6 1980.48 509.14 1980.02C517.67 1979.56 520.16 1986.64 527.28 1987.31C534.41 1987.98 536.54 1982.89 544.12 1982.13C550.07 1981.53 556.24 1984.01 561.13 1984.01" stroke="#FF0000" stroke-width="2" stroke-linecap="round"/>
<path id="wave09" d="M100.473 1933.86C83.456 1937.71 79.868 1924.41 72.612 1924.86C65.357 1925.31 61.899 1931.64 53.363 1931.26C44.827 1930.89 43.037 1923.61 36.009 1922.24C28.981 1920.88 26.366 1925.75 18.751 1925.76C12.767 1925.78 6.87 1922.71 2 1922.23" stroke="#FF0000" stroke-width="2" stroke-linecap="round"/>
<path id="wave10" d="M414 2091C425.71 2103.94 432.54 2091.12 438.22 2095.66C443.9 2100.2 444.33 2110.56 451.53 2115.16C458.73 2119.77 458.92 2112.91 465.46 2115.84C471.99 2118.76 475.11 2130.91 480.24 2134.02C485.53 2137.23 493.67 2136.85 497.33 2141.32" stroke="#FF0000" stroke-width="2" stroke-linecap="round"/>
<path id="wave11" d="M106.068 1837.65C89.19 1833.23 92.125 1819.78 85.478 1816.84C78.831 1813.89 72.847 1817.92 65.442 1813.66C58.036 1809.4 59.8 1802.11 54.188 1797.66C48.576 1793.22 44.015 1796.33 37.246 1792.84C31.928 1790.1 28.105 1784.66 24 1782" stroke="#FF0000" stroke-width="2" stroke-linecap="round"/>
</g>
<g id="fish">
<path id="toFishPath" d="M373.922 2214.58L386.297 2201.19C383.455 2201.45 378.9 2202.48 373.922 2202.64C367.922 2202.64 361.583 2201.05 356.021 2196.1C345.922 2187.12 361.922 2175.12 370.178 2187.73C372.691 2191.57 372.433 2195.13 372.036 2201.19C370.299 2227.68 391.464 2222.08 398.422 2217.62C415.602 2206.61 401.693 2188 408.73 2181.96C415.767 2175.91 429.066 2195.13 440.709 2185.72" stroke="#FF0000" stroke-width="2" stroke-linecap="round"/>
<path id="fish_2" d="M371.406 2202.33C365.795 2201.75 359.963 2199.8 355.899 2194.35C346.176 2181.31 367.237 2176.62 370.748 2187.28C372.329 2192.08 371.258 2196.94 371.406 2202.33ZM371.406 2202.33C377.021 2202.91 382.414 2202.13 385.597 2202.13L371.809 2215.92L371.406 2202.33Z" stroke="#FF0000" stroke-width="2" stroke-linecap="round"/>
<path id="fishFinal" d="M361.65 2190.31C359.993 2190.14 358.597 2187.48 357.397 2185.87C354.526 2182.02 358.86 2183.55 359.897 2186.7C360.364 2188.11 361.606 2188.72 361.65 2190.31ZM361.65 2190.31C363.308 2190.48 358.957 2188.2 359.897 2188.2L358.397 2186.7L361.65 2190.31Z" stroke="#FF0000" stroke-width="2" stroke-linecap="round"/>
<path id="fishUp" d="M324.684 2151.8C320.545 2155.63 315.236 2158.73 308.46 2158.19C292.247 2156.9 302.61 2137.97 312.939 2142.37C317.589 2144.35 320.533 2148.35 324.684 2151.8ZM324.684 2151.8C328.825 2147.96 331.795 2143.39 333.894 2141L335.164 2160.46L324.684 2151.8Z" stroke="#FF0000" stroke-width="2" stroke-linecap="round"/>
<path id="fishDown" d="M271.941 2187.66C275.227 2192.25 277.64 2197.9 276.257 2204.56C272.948 2220.48 255.466 2207.83 261.116 2198.14C263.66 2193.77 268.004 2191.35 271.941 2187.66ZM271.941 2187.66C268.654 2183.07 264.491 2179.56 262.38 2177.17L281.845 2178.35L271.941 2187.66Z" stroke="#FF0000" stroke-width="2" stroke-linecap="round"/>
<path id="alongPath" d="M368.423 2196.62C344.923 2176.12 346.423 2150.12 316.923 2150.12C299.923 2150.12 266.423 2159.12 266.423 2185.62" stroke="black"/>
</g>
<g id="animalsGroup">
<path id="animalStart" d="M363.511 2566.45C361.475 2568.05 350.852 2576.65 341.487 2580.95C332.121 2585.24 323.939 2597.89 318.511 2602.16C313.083 2606.43 305.551 2613.74 298.999 2620.21C292.448 2626.69 280.88 2629.86 276.276 2632.38C271.671 2634.91 263.918 2643.2 261.883 2644.81C259.848 2646.41 255.988 2646.81 252.74 2648.27C249.492 2649.72 244.287 2653.16 244.887 2652.25C245.488 2651.34 247.067 2649.43 246.077 2648.45C245.088 2647.48 247.813 2647.31 250.004 2646.46C252.195 2645.62 252.64 2643.95 254.664 2640.38C257.667 2635.82 264.096 2634.49 276.798 2631.09C289.501 2627.69 296.563 2617.95 296.786 2617.12C297.008 2616.29 294.361 2616.83 295.429 2618.19C296.497 2619.54 298.755 2617.11 301.402 2616.56C304.049 2616.02 304.572 2614.73 302.903 2614.28C301.235 2613.84 298.143 2616.05 297.231 2615.45C296.319 2614.85 292.459 2615.25 290.813 2618.74C289.167 2622.24 284.195 2626.81 280.113 2628.04C276.031 2629.28 265.598 2632.21 262.25 2629.36C258.902 2626.5 267.243 2615.32 267.677 2611.68C268.111 2608.04 254.785 2595.02 253.884 2596.39C252.983 2597.76 254.518 2601.38 255.286 2603.2C256.054 2605.01 251.715 2601.17 250.737 2602.16C249.758 2603.15 250.904 2604.89 251.749 2607.08C252.594 2609.27 249.78 2607.09 249.102 2607.62C248.423 2608.16 250.57 2612.84 250.971 2616.7C251.371 2620.56 248.502 2621.94 248.079 2627.54C247.656 2633.15 249.648 2637.08 249.737 2639.42C249.525 2642.23 246.2 2643.3 243.252 2644.31C240.305 2645.31 240.549 2648.41 242.151 2650.45C243.753 2652.48 240.727 2653.1 237.613 2651.38C234.499 2649.66 236.647 2646.42 241.295 2646.29C246.255 2646.14 249.315 2643.95 248.991 2641.55C248.729 2639.6 240.783 2636.14 236.011 2635.94C231.239 2635.74 221.707 2637.31 219.582 2636.56C217.458 2635.82 218.437 2634.83 218.959 2633.54C219.482 2632.25 214.099 2630.99 214.922 2629.25C215.745 2627.5 226.668 2630.77 229.092 2631.06C231.517 2631.35 244.375 2628.7 245.588 2628.84C246.8 2628.99 246.188 2627.93 244.064 2627.19C241.939 2626.44 232.563 2628.77 229.838 2628.93C227.112 2629.1 217.858 2626.28 214.677 2626.14C212.33 2626.23 207.959 2629.89 205.701 2632.33C203.443 2634.76 199.139 2636.83 199.072 2638.42C199.005 2640.01 203.098 2640.75 204.255 2644.45C205.412 2648.16 199.428 2661.21 196.036 2663.88C192.644 2666.55 193.233 2663.67 191.865 2662.77C190.497 2661.87 188.061 2659.61 188.873 2655.9C189.685 2652.18 188.283 2645.37 188.794 2642.12C189.306 2638.86 191.653 2638.77 194.979 2637.69C198.304 2636.61 203.576 2631.58 207.569 2628C211.562 2624.42 221.384 2620.43 223.942 2617.53C226.5 2614.64 232.306 2610.29 236.155 2607.92C240.003 2605.55 242.795 2603.8 242.261 2603.12C241.727 2602.44 240.67 2603.05 237.567 2603.3C234.464 2603.54 231.149 2606.59 234.775 2605.05C238.401 2603.52 233.852 2602.48 230.827 2603.11C227.801 2603.73 228.046 2606.83 226.923 2609.04C225.799 2611.24 217.658 2617.64 211.384 2619.72C205.111 2621.81 197.614 2621.77 195.1 2619.14C192.587 2616.5 199.182 2604.5 198.103 2601.17C197.024 2597.85 174.6 2582.75 173.699 2584.12C172.798 2585.49 177.603 2591.6 178.293 2593.03C178.983 2594.47 174.723 2591.01 174.122 2591.92C173.521 2592.83 176.803 2597.28 177.648 2599.47C178.494 2601.66 175.145 2598.8 174.623 2600.09C174.1 2601.38 175.468 2602.29 177.459 2606.21C179.45 2610.14 176.647 2609.93 176.592 2613.49C176.002 2616.37 182.114 2623.07 181.598 2628.22C180.953 2634.66 172.488 2637.59 168.784 2638.75C165.08 2639.9 170.542 2641.54 169.952 2644.42C169.363 2647.3 169.597 2648.43 173.156 2648.49C176.715 2648.55 180.386 2641.48 183.189 2641.69C185.991 2641.9 186.57 2650.46 186.815 2653.56C187.06 2656.66 186.092 2659.62 187.16 2660.98C188.228 2662.34 189.868 2663.65 188.773 2664.98C186.839 2667.35 183.98 2668.72 189.396 2668.01C193.3 2667.5 198.094 2666.22 203.299 2662.78C208.505 2659.34 207.281 2657.23 209.706 2657.52C211.752 2657.89 215.912 2657.03 214.7 2656.89C213.488 2656.74 209.617 2655.17 212.865 2653.72C216.112 2652.26 215.668 2653.93 218.548 2654.52C221.429 2655.11 223.309 2652.75 224.455 2654.48C225.6 2656.22 213.966 2660.98 209.584 2662.67C205.201 2664.36 199.785 2670.6 193.589 2673.06C187.394 2675.52 185.292 2678.71 182.956 2680.77C180.62 2682.83 177.072 2684.74 178.674 2686.77C180.276 2688.81 186.315 2685.6 188.595 2687.1C191.332 2688.9 183.435 2698.41 181.633 2701.15C179.23 2704.79 174.515 2714.44 172.546 2714.45C170.955 2714.38 173.558 2705.96 172.423 2706.2C171.289 2706.43 168.119 2708.26 166.906 2708.12C165.694 2707.98 167.118 2705.32 167.64 2704.03C168.163 2702.74 164.926 2706.16 163.636 2705.64C162.346 2705.12 164.748 2701.47 164.737 2699.5C164.726 2697.53 163.391 2702.54 161.645 2701.71C159.899 2700.89 166.595 2693.2 164.915 2690.79C163.235 2688.38 155.149 2691.22 153.636 2691.54C152.124 2691.85 154.415 2695.32 155.928 2695.01C157.44 2694.69 158.33 2691.36 157.107 2689.24C155.427 2686.83 151.645 2687.61 151.801 2688.37C152.035 2689.5 155.803 2688.16 157.474 2687.2C159.587 2685.97 166.361 2678.67 168.696 2676.61C171.255 2673.72 183.957 2670.31 183.567 2668.42C183.178 2666.53 174.324 2667.57 172.344 2665.61C170.364 2663.65 167.332 2648.92 166.704 2645.88C165.303 2639.07 144.947 2614.88 141.688 2614.37C140.163 2614.13 141.955 2621.41 142.567 2622.46C143.179 2623.52 139.753 2620.28 138.396 2621.35C137.039 2622.42 140.476 2627.62 141.466 2628.6C142.456 2629.58 138.808 2627.18 137.451 2628.25C136.094 2629.31 139.52 2632.55 140.743 2634.66C141.967 2636.78 139.987 2634.82 139.386 2635.73C138.786 2636.64 141.311 2641.25 142.757 2642.53C144.203 2643.81 141.544 2642.38 140.488 2643C139.431 2643.61 144.248 2651.68 148.808 2654.69C153.68 2659.2 153.191 2666.4 154.515 2672.83C155.838 2679.26 157.351 2678.94 161.066 2679.76C165.994 2680.71 153.436 2682.9 150.789 2683.45C147.74 2684.08 146.306 2694.23 150.333 2696.55C154.36 2698.88 157.908 2696.96 160.466 2694.07C162.652 2691.6 161.1 2699.07 152.402 2700.86C143.548 2701.89 137.238 2707.09 126.51 2706.2C75.5108 2701.95 140.487 2607.92 121.011 2574.45C103.017 2543.52 144.011 2488.43 121.011 2467.93C114.115 2461.78 94.1919 2475.24 114.511 2483.35C133.109 2490.78 155.338 2460.23 185.543 2463.65C193.629 2464.56 202.626 2456.44 204.05 2455.95C205.474 2455.47 207.86 2457.36 209.288 2457.83C210.717 2458.3 214.041 2457.33 216.418 2457.32C218.795 2457.31 222.142 2461.58 222.147 2462.53C222.151 2463.48 210.73 2461.15 205.494 2459.75C200.257 2458.35 199.272 2450.75 198.291 2444.09C197.31 2437.44 197.766 2433.16 199.185 2431.73C200.605 2430.3 205.362 2430.75 205.333 2424.57C205.305 2418.39 201.489 2415.55 200.058 2414.61C198.628 2413.66 199.097 2412.24 198.122 2407.01C197.147 2401.79 195.697 2396.56 195.187 2388.96C194.677 2381.35 200.832 2375.62 199.879 2375.15C198.926 2374.68 195.617 2378.97 193.251 2381.36C190.884 2383.75 188.025 2382.33 184.217 2381.4C180.41 2380.47 178.988 2381.42 176.133 2380.96C173.278 2380.5 175.629 2374.78 175.638 2376.68C175.647 2378.59 172.695 2377.65 174.199 2373.84C175.139 2371.46 181.317 2370.95 185.581 2367.61C189.845 2364.26 194.134 2366.62 195.563 2367.09C196.991 2367.55 192.231 2366.15 191.759 2367.1C191.288 2368.06 190.819 2369.48 187.963 2368.55C185.106 2367.61 190.793 2363.78 192.689 2362.34C194.584 2360.91 203.602 2357.54 202.649 2357.07C201.696 2356.6 200.723 2351.85 200.242 2350.42C199.76 2349 201.676 2352.32 204.064 2354.68C206.452 2357.05 211.661 2352.27 212.603 2350.37C213.545 2348.46 201.638 2343.76 198.774 2341.4C195.911 2339.03 201.156 2342.34 203.535 2342.8C205.914 2343.27 210.682 2346.1 209.705 2340.4C208.728 2334.7 208.685 2325.19 206.772 2322.82C204.859 2320.45 211.596 2338.01 211.606 2340.39C211.617 2342.76 214.485 2346.08 216.391 2347.02C218.297 2347.96 223.974 2341.76 225.85 2336.04C227.351 2331.47 221.669 2322.75 218.641 2318.96C216.285 2315.56 225.926 2324.05 226.299 2330.34C226.56 2334.71 228.655 2325.57 228.642 2322.72C228.629 2319.87 230.589 2332.69 227.771 2340.31C225.424 2346.98 210.733 2357.51 206.941 2359.9C203.148 2362.3 206.455 2357.53 210.736 2357.98C215.017 2358.44 219.28 2355.09 219.758 2355.56C220.236 2356.04 218.837 2362.22 214.574 2365.57C210.31 2368.92 202.684 2364.68 205.541 2365.61C208.397 2366.55 215.129 2383.16 218.969 2391.23C222.81 2399.29 217.599 2403.59 219.065 2412.15C220.53 2420.7 229.122 2428.26 229.146 2433.49C229.17 2438.72 207.78 2439.77 206.84 2442.15C205.9 2444.54 221.637 2454.92 224.971 2456.33C228.306 2457.75 228.301 2456.79 235.452 2461.04C242.603 2465.29 227.372 2461.55 224.993 2461.09C222.614 2460.62 216.411 2455.9 212.115 2452.11C207.819 2448.33 204.007 2446.45 202.55 2439.8C201.094 2433.15 211.54 2430.25 211.99 2424.54C212.439 2418.83 205.305 2418.39 205.275 2411.73C204.754 2401.75 216.627 2398.84 226.611 2398.8C235.493 2398.76 255.163 2404.37 252.803 2408.19C250.443 2412 239.495 2409.2 233.339 2414.46C227.182 2419.72 232.969 2437.76 233.449 2438.7C233.929 2439.65 236.308 2440.12 245.346 2441.03C254.383 2441.94 267.708 2444.73 273.871 2440.9C280.035 2437.07 264.687 2407.66 258.037 2409.12C251.388 2410.57 267.159 2428.57 276.713 2438.51C286.267 2448.45 308.649 2456.43 315.796 2459.72C322.943 2463.02 341.588 2485.76 343.976 2488.12C346.364 2490.49 354.432 2487.12 354.905 2486.65C355.378 2486.17 353.472 2485.23 347.283 2483.35C341.094 2481.48 338.213 2475.31 331.995 2467.26C325.778 2459.2 313.875 2455.45 308.636 2453.58C303.398 2451.7 293.857 2444.61 282.379 2429.92C270.902 2415.24 286.101 2411.84 300.37 2413.2C314.64 2414.56 314.735 2435.48 317.613 2441.17C320.492 2446.87 328.103 2447.78 332.417 2455.37C336.73 2462.96 339.514 2465.8 341.487 2463.41C343.459 2461.02 339.537 2452.96 336.683 2452.5C333.828 2452.04 334.331 2458.21 336.25 2462.01C338.169 2465.8 356.303 2480.46 359.633 2480.92C362.963 2481.38 370.596 2487.05 366.797 2488.02C362.998 2488.99 357.224 2482.87 362.01 2480.91C366.797 2478.95 377.511 2489.45 385.511 2480.92C394.751 2471.07 408.521 2489.24 413.511 2465.45C417.957 2444.24 383.412 2431.95 399.011 2414.46C427.528 2382.48 386.483 2351.97 383.412 2350.03C381.591 2348.69 382.383 2347.69 382.984 2346.44C383.586 2345.19 385.47 2342.55 386.831 2342.28C388.193 2342.01 390.069 2342.92 390.314 2342.73C390.559 2342.54 386.047 2339.75 383.807 2343.45C381.567 2347.14 381.5 2347 380.697 2347.03C379.5 2347 376.352 2344.6 374.799 2342.96C373.47 2341.25 366.076 2334 366.076 2336.77C366.156 2337.88 371.381 2340.34 371 2340.5C367.5 2342 360.907 2335.67 361.264 2334.61C361.62 2333.54 365.182 2335.1 365.863 2334.97C366.543 2334.83 369.021 2334.49 368.261 2333.51C368.117 2333.17 364.976 2329.77 361.604 2328.46C356.601 2326.05 354.877 2325.02 355.461 2322C355.905 2319.69 359.886 2318.79 361.433 2318.77C357.612 2318.39 354.108 2321.31 355.461 2324.58C357.116 2327.22 361.984 2328.95 363.67 2329.6C365.356 2330.26 368.831 2334.24 369.971 2335.71C371.111 2337.19 375.045 2342.77 376.62 2344.3C378.195 2345.83 382.517 2348.37 385.945 2349.25C388.62 2349.66 393.916 2350.93 395.063 2348.86C395.794 2347.34 394.335 2345.89 393.821 2344.72C393.306 2343.55 392.253 2339.66 391.169 2337.75C389.098 2334.11 384.486 2330.34 382.944 2327.63C381.86 2325.72 377.88 2313.89 375.907 2309.92C374.498 2307.09 371.316 2306.02 370.881 2305.97C370.445 2305.91 371.063 2309.75 371.007 2310.19C370.952 2310.62 367.39 2309.06 366.844 2309.88C366.298 2310.69 368.007 2312.9 367.952 2313.34C367.897 2313.77 365.633 2314.18 365.554 2314.8C365.443 2315.67 370.984 2320.8 372.044 2321.16C372.869 2321.43 370.688 2315.88 370.778 2315.47C371.148 2313.76 373.899 2321.18 374.031 2321.19C374.438 2321.21 373.04 2314.26 373.176 2314C374.139 2312.15 380.308 2325.75 379.572 2326.32C378.836 2326.89 371.34 2319.74 361.952 2318.77C360.155 2318.98 365.846 2305.55 364.224 2300.92C363.721 2299.49 360.898 2298.78 359.086 2297.83C357.274 2296.88 356.687 2292.7 355.833 2292.11C354.978 2291.51 353.981 2292.76 351.772 2294.47C349.564 2296.18 346.572 2295.35 345.266 2295.19C344.83 2295.13 343.714 2295.21 342.052 2296.1C340.39 2297 339.923 2298.93 338.91 2301.68C337.73 2305.73 333.812 2305.23 332.34 2306.37C330.868 2307.51 331.588 2314.02 330.986 2315.27C330.385 2316.52 329.158 2317.47 328.422 2318.04C327.686 2318.61 328.145 2320.22 328.849 2321.63C329.511 2322.82 330.66 2324.78 330.472 2326.26L330.465 2326.32C330.246 2328.04 330.029 2329.75 331.359 2331.46C333.448 2334.16 361.058 2330.17 360.5 2328.5C360.303 2327.91 338.803 2331.19 338.601 2330.17C338.332 2328.81 351.646 2326.75 351.567 2325.63C351.516 2324.88 335.15 2327.74 334.881 2326.38C334.638 2325.17 351.052 2324.46 350.973 2323.34C350.924 2322.65 335.546 2321.16 335.087 2319.55C334.762 2318.62 352.636 2322.45 353.237 2321.2C353.839 2319.95 336.939 2312.45 337.501 2311.01C338.158 2309.32 354.654 2320.49 355.691 2319.3C356.728 2318.1 341.735 2303.81 343.018 2302.42C344.3 2301.04 356.862 2318.78 357.844 2318.02C358.825 2317.26 355.398 2304.22 358.01 2304.55C360.848 2304.91 359.641 2317.81 360.511 2317.92C361.628 2317.84 362.554 2313.65 363.139 2311.18C363.814 2308.33 365.173 2302.14 363.654 2300.18C362.514 2298.71 360.282 2298.87 359.031 2298.27C357.78 2297.66 357.329 2292.52 355.888 2291.67C354.448 2290.82 353.394 2294.13 349.5 2295.19C346 2295.86 287.826 2298.58 292.51 2270.45C297.366 2241.29 261.677 2238.95 267.677 2215.95" stroke="#FF0000"/>
</g>
<path id="Vector 112" d="M295 0V313" stroke="#FF0000"/>
</g>
<defs>
<clipPath id="clip0_833_569">
<rect width="569" height="5246" fill="white"/>
</clipPath>
</defs>
</svg>
