<svg width="1782" height="5240" viewBox="0 0 1782 5240" fill="none" xmlns="http://www.w3.org/2000/svg">
<g id="Frame 33">
<g id="Group 42">
<g id="SunGroupS">
<g id="sun">
<path fill-rule="evenodd" clip-rule="evenodd" d="M833.064 310.066L833.064 310.079L831.814 309.086C832.235 309.42 832.652 309.747 833.064 310.066Z" fill="#FFF5EA"/>
<path fill-rule="evenodd" clip-rule="evenodd" d="M831.69 311.405L833.132 312.568C834.073 313.484 835.102 314.379 836.221 315.256C841.699 319.546 849.324 323.382 859.178 326.943C860.218 327.32 861.284 327.693 862.374 328.063C862.819 328.214 863.268 328.364 863.722 328.515C873.437 331.178 881.103 332.26 890.158 332.26C904.616 332.26 918.057 329.061 931.224 322.487C944.005 316.106 954.8 307.037 963.632 295.262C964.823 293.448 965.719 292.3 966.554 291.1C967.046 290.393 967.516 289.668 968.014 288.778C968.145 288.537 968.274 288.297 968.403 288.057C972.074 281.214 974.756 274.915 976.468 270.427C976.922 269.236 977.308 268.172 977.626 267.259C978.154 265.745 978.347 265.072 978.5 264.5C978.508 264.47 978.549 264.346 978.59 264.218C978.592 264.214 978.593 264.209 978.595 264.205L978.691 263.904C979.802 259.626 980.72 254.594 981.164 250.349C985.388 209.9 962.428 171.418 924.927 156.092C916.727 152.742 909.072 150.782 899.7 149.637C895.623 149.138 884.291 149.136 880.303 149.633C858.597 152.339 840.261 161.122 825.386 175.939C807.954 193.304 798.488 216.143 798.498 240.813C798.507 262.422 805.623 282.22 819.423 299.033C822.144 302.347 828.859 309.121 831.69 311.405ZM975.565 250.505C975.126 254.53 973.95 261.291 973.688 261.291C973.454 262.124 973.147 263.156 972.776 264.337C971.202 269.348 968.472 277.047 965.228 283.652C964.7 284.728 964.158 285.775 963.605 286.776C963.559 286.858 963.514 286.941 963.468 287.022L963.465 287.028C963.056 287.71 962.635 288.39 962.201 289.066C954.775 300.631 943.675 311.242 931.922 317.937C921.582 323.828 910.036 327.601 898.137 328.978C894.472 329.402 883.042 329.571 880.303 329.242C874.49 328.543 867.501 327.224 864.205 326.263C863.47 326.048 862.918 325.852 862.605 325.684C862.558 325.659 862.515 325.633 862.476 325.605L862.14 325.478C861.058 325.065 860.006 324.662 858.979 324.261C850.651 321.016 843.953 317.994 835.964 312.234C835.017 311.552 834.052 310.831 833.064 310.066L833.064 310.079L831.814 309.086L831.813 309.084C827.87 305.949 820.423 297.921 816.793 292.893C803.365 274.293 797.759 249.98 801.649 227.215C804.72 209.242 813.108 192.936 825.864 180.139C839.057 166.905 854.641 158.72 872.795 155.49C878.519 154.471 879.051 154.415 885.309 154.173C905.702 153.385 925.63 159.875 942.403 172.766C946.516 175.928 955.047 184.613 958.138 188.786C967.949 202.03 973.512 215.921 975.408 231.903C975.936 236.36 976.02 246.326 975.565 250.505Z" fill="#FFF5EA"/>
</g>
</g>
<g id="SunGroupM">
<path id="moon" fill-rule="evenodd" clip-rule="evenodd" d="M833.446 302.604C835.188 285.333 843.211 269.085 856.309 256.304C862.803 249.967 869.237 245.451 877.695 241.292C903.535 228.587 933.651 230.221 956.714 245.58C962.157 249.206 968.352 254.799 971.828 259.227C972.671 260.301 973.46 261.179 973.582 261.179C975.752 263.928 976.586 265.445 977.426 266.975C977.577 267.25 977.729 267.527 977.889 267.811C977.896 267.828 977.904 267.842 977.913 267.854C978.541 268.632 981.774 275.337 982.793 277.975C984.286 281.84 985.641 286.882 986.428 291.506C987.192 296 987.486 305.043 987.006 309.326C986.335 315.309 984.723 322.192 982.791 327.325C978.686 338.223 969.117 349.507 958.287 356.22C956.858 357.106 955.62 357.762 955.536 357.677C955.451 357.593 955.671 357.37 956.024 357.181C957.158 356.575 961.988 350.857 964.36 347.313C974.475 332.2 976.508 313.683 969.817 297.617C968.89 295.39 967.95 293.472 967.278 292.371C966.964 291.832 964.844 288.22 963.12 286.203C962.495 285.154 960.799 283.166 958.694 281.068C945.187 267.607 924.92 262.354 905.491 267.28C895.649 269.775 886.546 274.85 879.146 281.967C867.96 292.728 861.896 306.844 861.896 322.121C861.896 323.512 861.913 324.304 861.998 324.784C862.077 326.157 862.199 327.661 862.356 328.519C862.361 328.545 862.366 328.572 862.372 328.601C862.438 328.919 862.721 330.375 863 331.837C864.08 337.489 867.04 344.587 870.43 349.651C880.372 364.502 896.946 373.106 915.612 373.106C919.69 373.106 925.677 372.548 927.472 372.001C929.047 371.521 924.246 373.794 921.597 374.782C914.477 377.438 903.791 379.266 898.029 378.812C895.267 378.595 888.848 377.381 885.255 376.397C873.108 373.069 862.24 366.817 853.448 358.099C841.8 346.55 835.015 332.392 833.408 316.284L833.026 312.456C832.979 311.98 832.958 311.113 832.958 309.967L833.029 308.005C833.068 306.926 833.256 304.496 833.446 302.604ZM901.001 374.517C894.113 372.649 888.904 370.381 883.697 366.983C869.862 357.954 861.216 344.238 859.219 328.153C856.734 308.132 865.66 287.832 882.544 275.105C891.459 268.384 902.696 263.853 913.046 262.807C915.962 262.512 924.703 262.525 927.408 262.828C935.201 263.701 943.456 266.515 950.286 270.627C970.378 282.725 980.263 305.032 975.748 328.085C975.15 331.141 973.415 336.704 972.214 339.418C971.929 340.063 971.759 340.591 971.837 340.591C972.089 340.591 975.366 335.133 976.642 332.588C979.821 326.249 982.292 318.457 983.476 311.046C984.245 306.229 984.25 296.355 983.487 291.662C981.897 281.887 978.608 273.305 973.373 265.279C962.925 249.262 945.243 238.199 925.09 235.072C920.487 234.358 910.929 234.113 906.223 234.588C882.365 237 861.179 249.432 848.167 268.655C834.54 288.787 831.973 312.826 841.155 334.312C849.162 353.049 866.271 367.382 887.069 372.778C891.861 374.021 898.591 375.056 902.878 375.21C903.309 375.225 902.464 374.913 901.001 374.517Z" fill="#FFF5EA"/>
</g>
<g id="SunGroupS_2">
<g id="rays">
<path d="M708.239 303.383C716.04 299.315 724.542 296.885 732.664 293.566C743.89 289.21 755.116 284.824 766.355 280.503C772.43 278.306 778.5 276.084 784.532 273.78C786.37 273.393 792.166 271.468 791.456 274.543C789.666 276.464 787.269 277.074 784.752 278.235C780.118 280.098 775.381 281.7 770.848 283.802C766.156 285.504 761.547 287.444 756.853 289.151C754.463 290.362 751.773 290.998 749.245 292.066C745.137 293.503 741.103 295.129 737.021 296.62C733.184 298.146 729.275 299.528 725.367 300.837C722.342 302.035 718.973 303.801 715.673 304.886C712.541 305.703 709.393 307.876 706.099 307.089C704.744 305.818 707.299 303.984 708.239 303.383Z" fill="#FFF5EA"/>
<path d="M649.581 242.915C648.064 242.694 647.448 240.643 648.589 239.611C649.445 238.837 651.313 238.936 651.91 239.788C653.102 241.49 651.799 243.239 649.581 242.915Z" fill="#FFF5EA"/>
<path d="M656.777 242.641C655.456 242.133 655.14 240.477 656.183 239.533C656.766 239.005 657.458 238.925 662.299 238.833C668.587 238.713 669.29 238.909 669.29 240.782C669.29 242.556 668.875 242.682 662.752 242.755C659.723 242.792 657.035 242.74 656.777 242.641Z" fill="#FFF5EA"/>
<path d="M672.95 241.976C671.643 240.532 672.748 238.669 674.81 238.838C675.785 238.919 676.095 239.111 676.451 239.857C676.829 240.649 676.828 240.889 676.444 241.577C675.855 242.631 673.76 242.87 672.95 241.976Z" fill="#FFF5EA"/>
<path d="M680.365 242.293C679.214 241.525 679.234 239.426 680.398 238.98C681.249 238.653 682.903 238.754 683.306 239.156C683.876 239.725 683.758 241.428 683.109 242.015C682.522 242.546 680.978 242.703 680.365 242.293Z" fill="#FFF5EA"/>
<path d="M697.039 241.663C695.734 240.222 696.836 238.356 698.892 238.526C699.815 238.602 700.194 238.82 700.565 239.484C700.995 240.256 700.995 240.432 700.565 241.204C699.944 242.317 697.875 242.586 697.039 241.663Z" fill="#FFF5EA"/>
<path d="M703.252 241.525C702.176 239.991 703.052 238.468 705.009 238.468C706.901 238.468 707.889 240.512 706.572 241.703C705.716 242.477 703.849 242.377 703.252 241.525Z" fill="#FFF5EA"/>
<path d="M726.553 240.91C725.715 240.011 725.745 239.049 726.639 238.21C728.073 236.863 730.295 237.769 730.295 239.701C730.295 241.453 727.807 242.256 726.553 240.91Z" fill="#FFF5EA"/>
<path d="M732.471 240.796C731.866 240.068 731.974 238.527 732.667 238.004C733.574 237.318 735.52 237.397 735.915 238.135C736.41 239.06 736.301 240.384 735.691 240.847C734.933 241.422 732.965 241.391 732.471 240.796Z" fill="#FFF5EA"/>
<path d="M742.026 240.823C741.854 240.761 741.351 240.632 740.907 240.535C739.253 240.174 739.168 237.828 740.787 237.213C741.233 237.044 744.042 236.905 747.03 236.905C752.992 236.905 753.445 237.036 753.445 238.755C753.445 240.381 752.826 240.585 747.345 240.767C744.592 240.859 742.198 240.884 742.026 240.823Z" fill="#FFF5EA"/>
<path d="M757.029 239.889C756.606 239.467 756.261 238.898 756.261 238.625C756.261 237.801 757.711 236.592 758.701 236.592C759.848 236.592 760.641 237.458 760.641 238.71C760.641 240.56 758.424 241.284 757.029 239.889Z" fill="#FFF5EA"/>
<path d="M773.177 239.52C772.337 238.453 772.36 237.983 773.297 237.047C774.716 235.629 776.909 236.378 776.909 238.281C776.909 240.32 774.45 241.137 773.177 239.52Z" fill="#FFF5EA"/>
<path d="M993.821 204.669C997.381 201.84 1002.06 201.124 1006.28 199.711C1016.71 196.718 1027.04 193.432 1037.44 190.337C1046.98 187.421 1056.58 184.729 1066.17 182.006C1068.1 180.908 1072.25 182.29 1069.49 184.652C1067.51 186.431 1064.68 186.499 1062.34 187.605C1058.67 188.572 1055.06 189.728 1051.49 191.03C1046.32 192.544 1041.17 194.166 1035.98 195.603C1027.04 198.218 1018.08 200.739 1009.16 203.41C1004.69 204.808 1000.24 206.471 995.624 207.238C994.142 207.403 992.353 206.125 993.821 204.669Z" fill="#FFF5EA"/>
<path d="M787.232 197.443C784.858 196.999 782.404 195.673 779.977 194.909C775.608 193.124 771.111 191.682 766.773 189.826C762.429 188.504 758.381 186.361 754.071 184.942C747.575 182.297 741.131 179.525 734.55 177.103C731.653 176.079 729.252 174.32 726.787 173.885C722.487 172.454 718.175 170.843 714.17 168.795C712.182 167.818 711.578 164.643 714.576 165.356C720.57 165.944 725.853 169.122 731.442 171.095C739.743 174.364 748.054 177.6 756.381 180.809C762.378 183.147 768.389 185.468 774.333 187.949C778.674 189.762 783.066 191.479 787.395 193.303C789.555 193.853 792.117 198.18 788.156 197.601L787.715 197.538L787.232 197.443Z" fill="#FFF5EA"/>
<path d="M982.268 174.334C981.791 173.412 981.797 173.306 982.369 172.536C983.144 171.495 985.174 171.217 985.797 172.068C986.304 172.762 986.321 174.443 985.825 174.939C985.618 175.145 984.848 175.314 984.112 175.314C982.93 175.314 982.716 175.2 982.268 174.334Z" fill="#FFF5EA"/>
<path d="M987.823 170.925C986.29 169.497 987.058 168.443 992.301 164.775C996.54 161.809 997.286 161.442 998.074 161.934C998.416 162.148 998.86 162.718 999.061 163.203C999.382 163.978 999.336 164.179 998.679 164.882C997.83 165.79 991.564 170.265 990.048 171.046C988.776 171.702 988.651 171.695 987.823 170.925Z" fill="#FFF5EA"/>
<path d="M806.379 160.54C805.655 159.667 805.616 158.505 806.289 157.833C807.169 156.953 809.285 156.924 809.746 157.785C810.24 158.708 810.133 159.84 809.498 160.415C808.824 161.024 806.847 161.103 806.379 160.54Z" fill="#FFF5EA"/>
<path d="M1007.02 157.449C1005.99 156.636 1006.01 155.623 1007.08 154.613C1008.27 153.497 1015.24 149.023 1016.24 148.737C1017.16 148.473 1017.81 148.837 1018.4 149.95C1019.01 151.084 1018.16 151.962 1013.61 154.886C1008.68 158.058 1008.09 158.289 1007.02 157.449Z" fill="#FFF5EA"/>
<path d="M801.515 155.984C800.275 154.614 801.688 152.219 803.486 152.643C804.433 152.866 805.377 153.894 805.377 154.702C805.377 156.246 802.59 157.171 801.515 155.984Z" fill="#FFF5EA"/>
<path d="M793.738 147.882C791.522 145.691 789.629 143.58 789.531 143.19C789.282 142.2 790.188 140.923 791.139 140.923C792.125 140.923 794.094 142.641 798.573 147.404C800.498 149.453 800.741 150.246 799.746 151.24C798.58 152.405 797.964 152.061 793.738 147.882Z" fill="#FFF5EA"/>
<path d="M950.427 151.031C949.123 148.437 952.115 145.69 953.171 143.323C960.647 132.592 968.398 122.052 975.879 111.322C982.11 102.526 988.264 93.6523 994.961 85.204C995.854 83.396 999.664 82.1885 998.746 85.439C997.972 88.3876 995.59 90.5166 994.292 93.2153C991.98 96.194 989.708 99.2266 987.813 102.475C985.517 105.427 983.626 108.684 981.154 111.501C979.679 113.969 977.985 116.376 976.148 118.615C973.435 122.57 970.358 126.299 967.785 130.322C962.916 136.278 959.103 143.008 954.275 148.987C953.335 149.958 951.996 151.852 950.427 151.031Z" fill="#FFF5EA"/>
<path d="M1021.42 148.726C1020.34 148.402 1020 147.942 1019.99 146.803C1019.98 145.107 1022.89 144.269 1023.88 145.682C1024.6 146.703 1024.48 147.67 1023.54 148.404C1022.63 149.119 1022.7 149.108 1021.42 148.726Z" fill="#FFF5EA"/>
<path d="M1026.24 145.047C1024.77 143.858 1025.8 141.548 1027.79 141.548C1028.9 141.548 1029.69 142.432 1029.69 143.665C1029.69 145.385 1027.66 146.197 1026.24 145.047Z" fill="#FFF5EA"/>
<path d="M850.309 140.832C847.686 138.834 847.083 135.468 845.686 132.668C842.593 125.588 839.638 118.451 836.73 111.295C833.682 104.225 831.151 96.9433 828.044 89.8972C826.257 84.5554 823.581 79.5739 821.637 74.2937C821.081 72.032 818.368 67.1178 821.676 67.0134C824.456 66.9257 824.936 71.4654 826.227 73.7721C828.871 79.9439 831.208 86.2333 833.888 92.3817C836.378 98.5108 839.053 104.57 841.491 110.725C844.397 117.389 846.99 124.188 849.601 130.973C850.597 133.655 851.996 136.256 852.575 139.113C853.113 140.482 851.419 141.412 850.309 140.832Z" fill="#FFF5EA"/>
<path d="M1037.58 137.623C1036.6 136.937 1036.67 135.61 1037.74 134.607C1038.92 133.5 1045.93 129.061 1046.86 128.828C1047.27 128.723 1047.84 128.779 1048.11 128.951C1048.84 129.405 1049.28 130.836 1048.9 131.482C1048.29 132.504 1039.51 138.109 1038.52 138.109C1038.38 138.109 1037.96 137.89 1037.58 137.623Z" fill="#FFF5EA"/>
<path d="M776.352 132.307C775.867 131.967 775.657 131.502 775.657 130.762C775.657 128.958 777.642 128.113 779.103 129.296C781.156 130.957 778.531 133.832 776.352 132.307Z" fill="#FFF5EA"/>
<path d="M904.677 128.734C903.219 128.406 902.984 128.164 902.984 126.992C902.984 125.77 903.882 124.665 904.875 124.665C905.227 124.665 905.874 125.024 906.313 125.463C906.933 126.083 907.065 126.448 906.905 127.104C906.584 128.419 905.807 128.987 904.677 128.734Z" fill="#FFF5EA"/>
<path d="M771.071 126.895C769.285 125.469 765.044 121.119 764.264 119.914C763.79 119.181 763.773 118.957 764.137 118.195C764.453 117.533 764.815 117.293 765.612 117.217C766.598 117.123 766.954 117.4 770.85 121.294C773.15 123.592 775.031 125.719 775.031 126.021C775.031 126.685 773.674 128.104 773.04 128.104C772.79 128.104 771.903 127.56 771.071 126.895Z" fill="#FFF5EA"/>
<path d="M1052.34 127.329C1051.45 126.436 1051.4 126 1052.09 125.014C1052.68 124.179 1060.03 119.315 1061.44 118.831C1062.66 118.412 1063.07 118.577 1063.67 119.733C1064.12 120.62 1064.12 120.74 1063.55 121.503C1062.88 122.415 1055.58 127.227 1054.07 127.751C1053.22 128.048 1053.01 127.997 1052.34 127.329Z" fill="#FFF5EA"/>
<path d="M904.654 123.102C903.779 122.75 903.507 121.85 903.934 120.727C904.344 119.649 904.748 119.361 905.86 119.355C906.793 119.35 907.677 120.336 907.677 121.382C907.677 122.985 906.303 123.767 904.654 123.102Z" fill="#FFF5EA"/>
<path d="M905.705 118.187C904.506 118.007 904.088 116.868 904.691 115.427C905.099 114.451 905.262 114.348 906.398 114.348C907.755 114.348 908.302 114.906 908.302 116.29C908.302 117.165 907.48 118.431 906.955 118.365C906.75 118.34 906.187 118.259 905.705 118.187Z" fill="#FFF5EA"/>
<path d="M1067.05 117.637C1065.49 116.085 1066.08 115.346 1071.72 111.7C1076.94 108.328 1077.42 108.209 1078.37 110.051C1078.83 110.926 1078.82 111.051 1078.26 111.811C1077.58 112.723 1070.28 117.534 1068.77 118.059C1067.92 118.355 1067.72 118.305 1067.05 117.637Z" fill="#FFF5EA"/>
<path d="M752.632 109.385C750.823 108.053 744.998 102.007 744.998 101.461C744.998 100.625 746.584 99.306 747.315 99.5342C748.805 99.9991 756.261 107.312 756.261 108.308C756.261 109.228 755.357 110.284 754.569 110.284C754.175 110.284 753.303 109.879 752.632 109.385Z" fill="#FFF5EA"/>
<path d="M907.52 106.306C906.53 106.063 906.112 105.582 906.112 104.687C906.112 103.352 906.927 102.468 908.156 102.468C909.501 102.468 910.361 103.577 910.032 104.887C909.642 106.44 909.165 106.71 907.52 106.306Z" fill="#FFF5EA"/>
<path d="M1087.25 104.031C1085.84 102.622 1086.65 101.612 1092 98.1541C1096 95.5674 1097.14 95.0478 1097.84 95.4868C1098.55 95.9223 1099.18 97.2991 1098.95 97.8929C1098.75 98.4218 1093.51 102.08 1090.66 103.676C1088.62 104.823 1088.1 104.877 1087.25 104.031Z" fill="#FFF5EA"/>
<path d="M907.447 100.201C906.831 99.413 906.815 98.3296 907.351 93.4293C907.942 88.0311 908.365 86.8352 909.683 86.8352C910.09 86.8352 910.752 87.1011 911.153 87.4261L911.883 88.0171L911.36 93.1831C911.072 96.0244 910.625 98.8537 910.367 99.4703C909.959 100.448 909.761 100.592 908.826 100.592C908.236 100.592 907.616 100.416 907.447 100.201Z" fill="#FFF5EA"/>
<path d="M740.48 98.0209C739.811 97.0667 739.869 96.3539 740.678 95.6015C741.54 94.7983 743.358 94.748 743.937 95.5111C744.533 96.2954 744.467 97.5958 743.801 98.1983C742.945 98.9725 741.077 98.8727 740.48 98.0209Z" fill="#FFF5EA"/>
<path d="M727.088 85.3265C726.615 85.0147 724.609 83.1914 722.63 81.2748C718.761 77.5275 718.399 76.82 719.717 75.5924C721.018 74.3811 721.316 74.5578 726.8 79.8009C730.284 83.1317 730.662 83.9298 729.423 85.3504C728.816 86.0465 728.171 86.0399 727.088 85.3265Z" fill="#FFF5EA"/>
<path d="M909.347 85.5851C908.472 85.2326 908.199 84.3331 908.627 83.2093C909.034 82.1386 909.441 81.8441 910.522 81.8377C912.132 81.8282 912.906 83.7423 911.882 85.2025C911.377 85.9232 910.51 86.0541 909.347 85.5851Z" fill="#FFF5EA"/>
<path d="M912.057 71.7581C910.791 71.4103 910.504 71.0635 910.497 69.8742C910.491 68.8127 911.488 67.7639 912.503 67.7639C913.555 67.7639 914.656 69.2062 914.401 70.2515C914.068 71.6183 913.313 72.1033 912.057 71.7581Z" fill="#FFF5EA"/>
<path d="M913.586 56.9271C912.656 56.6788 912.355 55.4457 912.939 54.2779C914.051 52.0553 917.12 53.2018 916.526 55.6177C916.176 57.0422 915.367 57.4028 913.586 56.9271Z" fill="#FFF5EA"/>
<path d="M914.112 50.3899C913.365 49.6427 913.48 47.8885 914.316 47.3035C915.831 46.2427 917.688 47.0936 917.688 48.849C917.688 50.5928 915.331 51.6083 914.112 50.3899Z" fill="#FFF5EA"/>
<path d="M914.883 44.0235C914.401 43.1232 914.48 41.8069 915.327 36.6453C915.971 32.7175 916.207 31.8752 916.793 31.3998C917.975 30.4415 919.877 31.3202 919.877 32.8243C919.877 34.4091 918.236 43.293 917.828 43.915C917.215 44.8496 915.362 44.9178 914.883 44.0235Z" fill="#FFF5EA"/>
</g>
</g>
</g>
<path id="Vector 69" d="M985 300C986.5 330.5 1008.77 328.5 1024 328.5C1038.5 328.5 1075.5 303.887 1115 323C1154.5 342.113 1148.5 376.5 1211.5 387C1274.5 397.5 1297.5 339 1366.5 337C1435.5 335 1457.5 458.5 1538 473.5C1618.5 488.5 1656 337 1735.5 337" stroke="#FFF5EA" stroke-width="2"/>
<path id="Vector 68" d="M816 189.5C796.5 219.5 768 216.167 746.5 209C711.04 197.18 700 175.043 661.5 165C616 153.13 577.5 194 509 174C436.304 152.775 459.603 52.8869 422 25.5C335.5 -37.5 235.277 146.095 24.5 1.99998" stroke="#FFF5EA" stroke-width="2"/>
<path id="Right" d="M1735.5 336C1656 336 1618.5 487.5 1538 472.5C1457.5 457.5 1435.5 334 1366.5 336C1297.5 338 1274.5 396.5 1211.5 386C1148.5 375.5 1154.5 341.113 1115 322C1075.5 302.887 1038.5 327.5 1024 327.5C1008.77 327.5 986.5 329.5 985 299C982.5 241.5 926.5 231.5 907 234C867 240 834 268.497 834 310C834 356.5 888.5 387 918 374.5C906.5 375.5 871.051 370.834 862 335.5C854.095 304.644 874.047 281.145 891 271C909.329 260.032 953.951 260.857 969 292.5C982.662 321.228 970.511 341.652 963.5 350C971.333 345.333 986.8 329 986 301" stroke="#FF0000" stroke-width="2"/>
<g id="Mask group">
<mask id="mask0_322_1017" style="mask-type:alpha" maskUnits="userSpaceOnUse" x="-168" y="-46" width="1247" height="431">
<path id="SunMask" fill-rule="evenodd" clip-rule="evenodd" d="M1079 -46H-168V385H1079V-46ZM883.697 366.983C888.904 370.381 894.113 372.649 901.001 374.517C902.464 374.913 903.309 375.225 902.878 375.21C898.591 375.056 891.861 374.021 887.069 372.778C866.271 367.382 849.162 353.049 841.155 334.312C831.973 312.826 834.54 288.787 848.167 268.655C861.179 249.432 882.365 237 906.223 234.588C910.929 234.113 920.487 234.358 925.09 235.072C945.243 238.199 962.925 249.262 973.373 265.279C978.608 273.305 981.897 281.887 983.487 291.662C984.25 296.355 984.245 306.229 983.476 311.046C982.292 318.457 979.821 326.249 976.642 332.588C975.366 335.133 972.089 340.591 971.837 340.591C971.759 340.591 971.929 340.063 972.214 339.418C973.415 336.704 975.15 331.141 975.748 328.085C980.263 305.032 970.378 282.725 950.286 270.627C943.456 266.515 935.201 263.701 927.408 262.828C924.703 262.525 915.962 262.512 913.046 262.807C902.696 263.853 891.459 268.384 882.544 275.105C865.66 287.832 856.734 308.132 859.219 328.153C861.216 344.238 869.862 357.954 883.697 366.983Z" fill="#D9D9D9"/>
</mask>
<g mask="url(#mask0_322_1017)">
<path id="Left" d="M24.5 1C235.277 145.095 335.5 -38.5 422 24.5C459.603 51.8869 436.304 151.775 509 173C577.5 193 616 152.13 661.5 164C700 174.043 711.04 196.18 746.5 208C768 215.167 796.5 218.5 816 188.5C842.385 154.12 888.5 141.526 928 160.5C967.5 179.474 994.808 240.5 968.5 282.5C942.192 324.5 889 346.268 841.5 317.5C803.571 294.529 783 239.5 816 189.5C828 172.5 854.5 152 883.5 153" stroke="#FF0000" stroke-width="2"/>
<g id="SunGroupS_3">
<g id="sun_2">
<path fill-rule="evenodd" clip-rule="evenodd" d="M833.064 310.066L833.064 310.079L831.814 309.086C832.235 309.42 832.652 309.747 833.064 310.066Z" fill="#FF0000"/>
<path fill-rule="evenodd" clip-rule="evenodd" d="M831.69 311.405L833.132 312.568C834.073 313.484 835.102 314.379 836.221 315.256C841.699 319.546 849.324 323.382 859.178 326.943C860.218 327.32 861.284 327.693 862.374 328.063C862.819 328.214 863.268 328.364 863.722 328.515C873.437 331.178 881.103 332.26 890.158 332.26C904.616 332.26 918.057 329.061 931.224 322.487C944.005 316.106 954.8 307.037 963.632 295.262C964.823 293.448 965.719 292.3 966.554 291.1C967.046 290.393 967.516 289.668 968.014 288.778C968.145 288.537 968.274 288.297 968.403 288.057C972.074 281.214 974.756 274.915 976.468 270.427C976.922 269.236 977.308 268.172 977.626 267.259C978.154 265.745 978.347 265.072 978.5 264.5C978.508 264.47 978.549 264.346 978.59 264.218C978.592 264.214 978.593 264.209 978.595 264.205L978.691 263.904C979.802 259.626 980.72 254.594 981.164 250.349C985.388 209.9 962.428 171.418 924.927 156.092C916.727 152.742 909.072 150.782 899.7 149.637C895.623 149.138 884.291 149.136 880.303 149.633C858.597 152.339 840.261 161.122 825.386 175.939C807.954 193.304 798.488 216.143 798.498 240.813C798.507 262.422 805.623 282.22 819.423 299.033C822.144 302.347 828.859 309.121 831.69 311.405ZM975.565 250.505C975.126 254.53 973.95 261.291 973.688 261.291C973.454 262.124 973.147 263.156 972.776 264.337C971.202 269.348 968.472 277.047 965.228 283.652C964.7 284.728 964.158 285.775 963.605 286.776C963.559 286.858 963.514 286.941 963.468 287.022L963.465 287.028C963.056 287.71 962.635 288.39 962.201 289.066C954.775 300.631 943.675 311.242 931.922 317.937C921.582 323.828 910.036 327.601 898.137 328.978C894.472 329.402 883.042 329.571 880.303 329.242C874.49 328.543 867.501 327.224 864.205 326.263C863.47 326.048 862.918 325.852 862.605 325.684C862.558 325.659 862.515 325.633 862.476 325.605L862.14 325.478C861.058 325.065 860.006 324.662 858.979 324.261C850.651 321.016 843.953 317.994 835.964 312.234C835.017 311.552 834.052 310.831 833.064 310.066L833.064 310.079L831.814 309.086L831.813 309.084C827.87 305.949 820.423 297.921 816.793 292.893C803.365 274.293 797.759 249.98 801.649 227.215C804.72 209.242 813.108 192.936 825.864 180.139C839.057 166.905 854.641 158.72 872.795 155.49C878.519 154.471 879.051 154.415 885.309 154.173C905.702 153.385 925.63 159.875 942.403 172.766C946.516 175.928 955.047 184.613 958.138 188.786C967.949 202.03 973.512 215.921 975.408 231.903C975.936 236.36 976.02 246.326 975.565 250.505Z" fill="#FF0000"/>
</g>
</g>
</g>
</g>
<g id="Group 42_2">
<g id="SunGroupM_2">
<path id="moon_2" fill-rule="evenodd" clip-rule="evenodd" d="M833.446 302.604C835.188 285.333 843.211 269.085 856.309 256.304C862.803 249.967 869.237 245.451 877.695 241.292C903.535 228.587 933.651 230.221 956.714 245.58C962.157 249.206 968.352 254.799 971.828 259.227C972.671 260.301 973.46 261.179 973.582 261.179C975.752 263.928 976.586 265.445 977.426 266.975C977.577 267.25 977.729 267.527 977.889 267.811C977.896 267.828 977.904 267.842 977.913 267.854C978.541 268.632 981.774 275.337 982.793 277.975C984.286 281.84 985.641 286.882 986.428 291.506C987.192 296 987.486 305.043 987.006 309.326C986.335 315.309 984.723 322.192 982.791 327.325C978.686 338.223 969.117 349.507 958.287 356.22C956.858 357.106 955.62 357.762 955.536 357.677C955.451 357.593 955.671 357.37 956.024 357.181C957.158 356.575 961.988 350.857 964.36 347.313C974.475 332.2 976.508 313.683 969.817 297.617C968.89 295.39 967.95 293.472 967.278 292.371C966.964 291.832 964.844 288.22 963.12 286.203C962.495 285.154 960.799 283.166 958.694 281.068C945.187 267.607 924.92 262.354 905.491 267.28C895.649 269.775 886.546 274.85 879.146 281.967C867.96 292.728 861.896 306.844 861.896 322.121C861.896 323.512 861.913 324.304 861.998 324.784C862.077 326.157 862.199 327.661 862.356 328.519C862.361 328.545 862.366 328.572 862.372 328.601C862.438 328.919 862.721 330.375 863 331.837C864.08 337.489 867.04 344.587 870.43 349.651C880.372 364.502 896.946 373.106 915.612 373.106C919.69 373.106 925.677 372.548 927.472 372.001C929.047 371.521 924.246 373.794 921.597 374.782C914.477 377.438 903.791 379.266 898.029 378.812C895.267 378.595 888.848 377.381 885.255 376.397C873.108 373.069 862.24 366.817 853.448 358.099C841.8 346.55 835.015 332.392 833.408 316.284L833.026 312.456C832.979 311.98 832.958 311.113 832.958 309.967L833.029 308.005C833.068 306.926 833.256 304.496 833.446 302.604ZM901.001 374.517C894.113 372.649 888.904 370.381 883.697 366.983C869.862 357.954 861.216 344.238 859.219 328.153C856.734 308.132 865.66 287.832 882.544 275.105C891.459 268.384 902.696 263.853 913.046 262.807C915.962 262.512 924.703 262.525 927.408 262.828C935.201 263.701 943.456 266.515 950.286 270.627C970.378 282.725 980.263 305.032 975.748 328.085C975.15 331.141 973.415 336.704 972.214 339.418C971.929 340.063 971.759 340.591 971.837 340.591C972.089 340.591 975.366 335.133 976.642 332.588C979.821 326.249 982.292 318.457 983.476 311.046C984.245 306.229 984.25 296.355 983.487 291.662C981.897 281.887 978.608 273.305 973.373 265.279C962.925 249.262 945.243 238.199 925.09 235.072C920.487 234.358 910.929 234.113 906.223 234.588C882.365 237 861.179 249.432 848.167 268.655C834.54 288.787 831.973 312.826 841.155 334.312C849.162 353.049 866.271 367.382 887.069 372.778C891.861 374.021 898.591 375.056 902.878 375.21C903.309 375.225 902.464 374.913 901.001 374.517Z" fill="#FF0000"/>
</g>
<g id="SunGroupS_4">
<g id="rays_2">
<path d="M708.239 303.383C716.04 299.315 724.542 296.885 732.664 293.566C743.89 289.21 755.116 284.824 766.355 280.503C772.43 278.306 778.5 276.084 784.532 273.78C786.37 273.393 792.166 271.468 791.456 274.543C789.666 276.464 787.269 277.074 784.752 278.235C780.118 280.098 775.381 281.7 770.848 283.802C766.156 285.504 761.547 287.444 756.853 289.151C754.463 290.362 751.773 290.998 749.245 292.066C745.137 293.503 741.103 295.129 737.021 296.62C733.184 298.146 729.275 299.528 725.367 300.837C722.342 302.035 718.973 303.801 715.673 304.886C712.541 305.703 709.393 307.876 706.099 307.089C704.744 305.818 707.299 303.984 708.239 303.383Z" fill="#FF0000"/>
<path d="M649.581 242.915C648.064 242.694 647.448 240.643 648.589 239.611C649.445 238.837 651.313 238.936 651.91 239.788C653.102 241.49 651.799 243.239 649.581 242.915Z" fill="#FF0000"/>
<path d="M656.777 242.641C655.456 242.133 655.14 240.477 656.183 239.533C656.766 239.005 657.458 238.925 662.299 238.833C668.587 238.713 669.29 238.909 669.29 240.782C669.29 242.556 668.875 242.682 662.752 242.755C659.723 242.792 657.035 242.74 656.777 242.641Z" fill="#FF0000"/>
<path d="M672.95 241.976C671.643 240.532 672.748 238.669 674.81 238.838C675.785 238.919 676.095 239.111 676.451 239.857C676.829 240.649 676.828 240.889 676.444 241.577C675.855 242.631 673.76 242.87 672.95 241.976Z" fill="#FF0000"/>
<path d="M680.365 242.293C679.214 241.525 679.234 239.426 680.398 238.98C681.249 238.653 682.903 238.754 683.306 239.156C683.876 239.725 683.758 241.428 683.109 242.015C682.522 242.546 680.978 242.703 680.365 242.293Z" fill="#FF0000"/>
<path d="M697.039 241.663C695.734 240.222 696.836 238.356 698.892 238.526C699.815 238.602 700.194 238.82 700.565 239.484C700.995 240.256 700.995 240.432 700.565 241.204C699.944 242.317 697.875 242.586 697.039 241.663Z" fill="#FF0000"/>
<path d="M703.252 241.525C702.176 239.991 703.052 238.468 705.009 238.468C706.901 238.468 707.889 240.512 706.572 241.703C705.716 242.477 703.849 242.377 703.252 241.525Z" fill="#FF0000"/>
<path d="M726.553 240.91C725.715 240.011 725.745 239.049 726.639 238.21C728.073 236.863 730.295 237.769 730.295 239.701C730.295 241.453 727.807 242.256 726.553 240.91Z" fill="#FF0000"/>
<path d="M732.471 240.796C731.866 240.068 731.974 238.527 732.667 238.004C733.574 237.318 735.52 237.397 735.915 238.135C736.41 239.06 736.301 240.384 735.691 240.847C734.933 241.422 732.965 241.391 732.471 240.796Z" fill="#FF0000"/>
<path d="M742.026 240.823C741.854 240.761 741.351 240.632 740.907 240.535C739.253 240.174 739.168 237.828 740.787 237.213C741.233 237.044 744.042 236.905 747.03 236.905C752.992 236.905 753.445 237.036 753.445 238.755C753.445 240.381 752.826 240.585 747.345 240.767C744.592 240.859 742.198 240.884 742.026 240.823Z" fill="#FF0000"/>
<path d="M757.029 239.889C756.606 239.467 756.261 238.898 756.261 238.625C756.261 237.801 757.711 236.592 758.701 236.592C759.848 236.592 760.641 237.458 760.641 238.71C760.641 240.56 758.424 241.284 757.029 239.889Z" fill="#FF0000"/>
<path d="M773.177 239.52C772.337 238.453 772.36 237.983 773.297 237.047C774.716 235.629 776.909 236.378 776.909 238.281C776.909 240.32 774.45 241.137 773.177 239.52Z" fill="#FF0000"/>
<path d="M993.821 204.669C997.381 201.84 1002.06 201.124 1006.28 199.711C1016.71 196.718 1027.04 193.432 1037.44 190.337C1046.98 187.421 1056.58 184.729 1066.17 182.006C1068.1 180.908 1072.25 182.29 1069.49 184.652C1067.51 186.431 1064.68 186.499 1062.34 187.605C1058.67 188.572 1055.06 189.728 1051.49 191.03C1046.32 192.544 1041.17 194.166 1035.98 195.603C1027.04 198.218 1018.08 200.739 1009.16 203.41C1004.69 204.808 1000.24 206.471 995.624 207.238C994.142 207.403 992.353 206.125 993.821 204.669Z" fill="#FF0000"/>
<path d="M787.232 197.443C784.858 196.999 782.404 195.673 779.977 194.909C775.608 193.124 771.111 191.682 766.773 189.826C762.429 188.504 758.381 186.361 754.071 184.942C747.575 182.297 741.131 179.525 734.55 177.103C731.653 176.079 729.252 174.32 726.787 173.885C722.487 172.454 718.175 170.843 714.17 168.795C712.182 167.818 711.578 164.643 714.576 165.356C720.57 165.944 725.853 169.122 731.442 171.095C739.743 174.364 748.054 177.6 756.381 180.809C762.378 183.147 768.389 185.468 774.333 187.949C778.674 189.762 783.066 191.479 787.395 193.303C789.555 193.853 792.117 198.18 788.156 197.601L787.715 197.538L787.232 197.443Z" fill="#FF0000"/>
<path d="M982.268 174.334C981.791 173.412 981.797 173.306 982.369 172.536C983.144 171.495 985.174 171.217 985.797 172.068C986.304 172.762 986.321 174.443 985.825 174.939C985.618 175.145 984.848 175.314 984.112 175.314C982.93 175.314 982.716 175.2 982.268 174.334Z" fill="#FF0000"/>
<path d="M987.823 170.925C986.29 169.497 987.058 168.443 992.301 164.775C996.54 161.809 997.286 161.442 998.074 161.934C998.416 162.148 998.86 162.718 999.061 163.203C999.382 163.978 999.336 164.179 998.679 164.882C997.83 165.79 991.564 170.265 990.048 171.046C988.776 171.702 988.651 171.695 987.823 170.925Z" fill="#FF0000"/>
<path d="M806.379 160.54C805.655 159.667 805.616 158.505 806.289 157.833C807.169 156.953 809.285 156.924 809.746 157.785C810.24 158.708 810.133 159.84 809.498 160.415C808.824 161.024 806.847 161.103 806.379 160.54Z" fill="#FF0000"/>
<path d="M1007.02 157.449C1005.99 156.636 1006.01 155.623 1007.08 154.613C1008.27 153.497 1015.24 149.023 1016.24 148.737C1017.16 148.473 1017.81 148.837 1018.4 149.95C1019.01 151.084 1018.16 151.962 1013.61 154.886C1008.68 158.058 1008.09 158.289 1007.02 157.449Z" fill="#FF0000"/>
<path d="M801.515 155.984C800.275 154.614 801.688 152.219 803.486 152.643C804.433 152.866 805.377 153.894 805.377 154.702C805.377 156.246 802.59 157.171 801.515 155.984Z" fill="#FF0000"/>
<path d="M793.738 147.882C791.522 145.691 789.629 143.58 789.531 143.19C789.282 142.2 790.188 140.923 791.139 140.923C792.125 140.923 794.094 142.641 798.573 147.404C800.498 149.453 800.741 150.246 799.746 151.24C798.58 152.405 797.964 152.061 793.738 147.882Z" fill="#FF0000"/>
<path d="M950.427 151.031C949.123 148.437 952.115 145.69 953.171 143.323C960.647 132.592 968.398 122.052 975.879 111.322C982.11 102.526 988.264 93.6523 994.961 85.204C995.854 83.396 999.664 82.1885 998.746 85.439C997.972 88.3876 995.59 90.5166 994.292 93.2153C991.98 96.194 989.708 99.2266 987.813 102.475C985.517 105.427 983.626 108.684 981.154 111.501C979.679 113.969 977.985 116.376 976.148 118.615C973.435 122.57 970.358 126.299 967.785 130.322C962.916 136.278 959.103 143.008 954.275 148.987C953.335 149.958 951.996 151.852 950.427 151.031Z" fill="#FF0000"/>
<path d="M1021.42 148.726C1020.34 148.402 1020 147.942 1019.99 146.803C1019.98 145.107 1022.89 144.269 1023.88 145.682C1024.6 146.703 1024.48 147.67 1023.54 148.404C1022.63 149.119 1022.7 149.108 1021.42 148.726Z" fill="#FF0000"/>
<path d="M1026.24 145.047C1024.77 143.858 1025.8 141.548 1027.79 141.548C1028.9 141.548 1029.69 142.432 1029.69 143.665C1029.69 145.385 1027.66 146.197 1026.24 145.047Z" fill="#FF0000"/>
<path d="M850.309 140.832C847.686 138.834 847.083 135.468 845.686 132.668C842.593 125.588 839.638 118.451 836.73 111.295C833.682 104.225 831.151 96.9433 828.044 89.8972C826.257 84.5554 823.581 79.5739 821.637 74.2937C821.081 72.032 818.368 67.1178 821.676 67.0134C824.456 66.9257 824.936 71.4654 826.227 73.7721C828.871 79.9439 831.208 86.2333 833.888 92.3817C836.378 98.5108 839.053 104.57 841.491 110.725C844.397 117.389 846.99 124.188 849.601 130.973C850.597 133.655 851.996 136.256 852.575 139.113C853.113 140.482 851.419 141.412 850.309 140.832Z" fill="#FF0000"/>
<path d="M1037.58 137.623C1036.6 136.937 1036.67 135.61 1037.74 134.607C1038.92 133.5 1045.93 129.061 1046.86 128.828C1047.27 128.723 1047.84 128.779 1048.11 128.951C1048.84 129.405 1049.28 130.836 1048.9 131.482C1048.29 132.504 1039.51 138.109 1038.52 138.109C1038.38 138.109 1037.96 137.89 1037.58 137.623Z" fill="#FF0000"/>
<path d="M776.352 132.307C775.867 131.967 775.657 131.502 775.657 130.762C775.657 128.958 777.642 128.113 779.103 129.296C781.156 130.957 778.531 133.832 776.352 132.307Z" fill="#FF0000"/>
<path d="M904.677 128.734C903.219 128.406 902.984 128.164 902.984 126.992C902.984 125.77 903.882 124.665 904.875 124.665C905.227 124.665 905.874 125.024 906.313 125.463C906.933 126.083 907.065 126.448 906.905 127.104C906.584 128.419 905.807 128.987 904.677 128.734Z" fill="#FF0000"/>
<path d="M771.071 126.895C769.285 125.469 765.044 121.119 764.264 119.914C763.79 119.181 763.773 118.957 764.137 118.195C764.453 117.533 764.815 117.293 765.612 117.217C766.598 117.123 766.954 117.4 770.85 121.294C773.15 123.592 775.031 125.719 775.031 126.021C775.031 126.685 773.674 128.104 773.04 128.104C772.79 128.104 771.903 127.56 771.071 126.895Z" fill="#FF0000"/>
<path d="M1052.34 127.329C1051.45 126.436 1051.4 126 1052.09 125.014C1052.68 124.179 1060.03 119.315 1061.44 118.831C1062.66 118.412 1063.07 118.577 1063.67 119.733C1064.12 120.62 1064.12 120.74 1063.55 121.503C1062.88 122.415 1055.58 127.227 1054.07 127.751C1053.22 128.048 1053.01 127.997 1052.34 127.329Z" fill="#FF0000"/>
<path d="M904.654 123.102C903.779 122.75 903.507 121.85 903.934 120.727C904.344 119.649 904.748 119.361 905.86 119.355C906.793 119.35 907.677 120.336 907.677 121.382C907.677 122.985 906.303 123.767 904.654 123.102Z" fill="#FF0000"/>
<path d="M905.705 118.187C904.506 118.007 904.088 116.868 904.691 115.427C905.099 114.451 905.262 114.348 906.398 114.348C907.755 114.348 908.302 114.906 908.302 116.29C908.302 117.165 907.48 118.431 906.955 118.365C906.75 118.34 906.187 118.259 905.705 118.187Z" fill="#FF0000"/>
<path d="M1067.05 117.637C1065.49 116.085 1066.08 115.346 1071.72 111.7C1076.94 108.328 1077.42 108.209 1078.37 110.051C1078.83 110.926 1078.82 111.051 1078.26 111.811C1077.58 112.723 1070.28 117.534 1068.77 118.059C1067.92 118.355 1067.72 118.305 1067.05 117.637Z" fill="#FF0000"/>
<path d="M752.632 109.385C750.823 108.053 744.998 102.007 744.998 101.461C744.998 100.625 746.584 99.306 747.315 99.5342C748.805 99.9991 756.261 107.312 756.261 108.308C756.261 109.228 755.357 110.284 754.569 110.284C754.175 110.284 753.303 109.879 752.632 109.385Z" fill="#FF0000"/>
<path d="M907.52 106.306C906.53 106.063 906.112 105.582 906.112 104.687C906.112 103.352 906.927 102.468 908.156 102.468C909.501 102.468 910.361 103.577 910.032 104.887C909.642 106.44 909.165 106.71 907.52 106.306Z" fill="#FF0000"/>
<path d="M1087.25 104.031C1085.84 102.622 1086.65 101.612 1092 98.1541C1096 95.5674 1097.14 95.0478 1097.84 95.4868C1098.55 95.9223 1099.18 97.2991 1098.95 97.8929C1098.75 98.4218 1093.51 102.08 1090.66 103.676C1088.62 104.823 1088.1 104.877 1087.25 104.031Z" fill="#FF0000"/>
<path d="M907.447 100.201C906.831 99.413 906.815 98.3296 907.351 93.4293C907.942 88.0311 908.365 86.8352 909.683 86.8352C910.09 86.8352 910.752 87.1011 911.153 87.4261L911.883 88.0171L911.36 93.1831C911.072 96.0244 910.625 98.8537 910.367 99.4703C909.959 100.448 909.761 100.592 908.826 100.592C908.236 100.592 907.616 100.416 907.447 100.201Z" fill="#FF0000"/>
<path d="M740.48 98.0209C739.811 97.0667 739.869 96.3539 740.678 95.6015C741.54 94.7983 743.358 94.748 743.937 95.5111C744.533 96.2954 744.467 97.5958 743.801 98.1983C742.945 98.9725 741.077 98.8727 740.48 98.0209Z" fill="#FF0000"/>
<path d="M727.088 85.3265C726.615 85.0147 724.609 83.1914 722.63 81.2748C718.761 77.5275 718.399 76.82 719.717 75.5924C721.018 74.3811 721.316 74.5578 726.8 79.8009C730.284 83.1317 730.662 83.9298 729.423 85.3504C728.816 86.0465 728.171 86.0399 727.088 85.3265Z" fill="#FF0000"/>
<path d="M909.347 85.5851C908.472 85.2326 908.199 84.3331 908.627 83.2093C909.034 82.1386 909.441 81.8441 910.522 81.8377C912.132 81.8282 912.906 83.7423 911.882 85.2025C911.377 85.9232 910.51 86.0541 909.347 85.5851Z" fill="#FF0000"/>
<path d="M912.057 71.7581C910.791 71.4103 910.504 71.0635 910.497 69.8742C910.491 68.8127 911.488 67.7639 912.503 67.7639C913.555 67.7639 914.656 69.2062 914.401 70.2515C914.068 71.6183 913.313 72.1033 912.057 71.7581Z" fill="#FF0000"/>
<path d="M913.586 56.9271C912.656 56.6788 912.355 55.4457 912.939 54.2779C914.051 52.0553 917.12 53.2018 916.526 55.6177C916.176 57.0422 915.367 57.4028 913.586 56.9271Z" fill="#FF0000"/>
<path d="M914.112 50.3899C913.365 49.6427 913.48 47.8885 914.316 47.3035C915.831 46.2427 917.688 47.0936 917.688 48.849C917.688 50.5928 915.331 51.6083 914.112 50.3899Z" fill="#FF0000"/>
<path d="M914.883 44.0235C914.401 43.1232 914.48 41.8069 915.327 36.6453C915.971 32.7175 916.207 31.8752 916.793 31.3998C917.975 30.4415 919.877 31.3202 919.877 32.8243C919.877 34.4091 918.236 43.293 917.828 43.915C917.215 44.8496 915.362 44.9178 914.883 44.0235Z" fill="#FF0000"/>
</g>
</g>
</g>
<g id="scroll">
<circle id="circle" cx="942" cy="365" r="2" fill="#FF0000"/>
</g>
<g id="legNmask">
<mask id="mask1_322_1017" style="mask-type:alpha" maskUnits="userSpaceOnUse" x="867" y="359" width="655" height="1412">
<path id="Subtract" fill-rule="evenodd" clip-rule="evenodd" d="M1522 359H867V1771H1522V359ZM1400.5 1306.5C1401.44 1301.77 1400.5 1295 1400.5 1295L1376.5 1282.5L1297.5 1289C1297.47 1289.42 1297.44 1289.86 1297.41 1290.32C1297.18 1293.48 1296.91 1297.18 1297.5 1300L1331.5 1323L1397 1340C1398.84 1337.91 1398.31 1334.83 1398.08 1333.48C1398.04 1333.28 1398.01 1333.12 1398 1333C1398.65 1331.82 1407.57 1344.99 1399 1348.5C1399 1349.7 1375 1349 1363 1348.5L1314.5 1333.5L1298 1338.5C1298.4 1341.7 1298.83 1345.83 1299 1347.5L1306.5 1351L1392 1384C1391.88 1381.47 1391.91 1379.81 1392 1376.5C1397.74 1376.78 1399.95 1387.91 1393 1393C1390.11 1395.11 1375.33 1393.67 1367.5 1392L1324 1384L1296 1389.5C1296 1391.5 1296 1394.5 1297 1396L1300.5 1399L1345.5 1406L1388.5 1407.5C1389.55 1406.38 1389.5 1404.5 1389 1403C1393.77 1403.79 1394.16 1410.66 1389.5 1415.5C1387.21 1417.88 1372.83 1424.17 1365 1426.5L1294 1428L1299 1455L1299.5 1461L1301 1463L1302 1464L1352 1477L1356.5 1498.5L1346.5 1508.5L1344 1505C1343.82 1503.56 1343.78 1501.94 1343.75 1500.67C1343.72 1499.24 1343.7 1498.26 1343.5 1498.5C1343.18 1498.9 1341.65 1498.3 1339.99 1497.65C1338.74 1497.16 1337.43 1496.64 1336.5 1496.5L1295 1492.5L1279.5 1510C1279.61 1510.95 1279.69 1511.85 1279.77 1512.72C1280.24 1518.04 1280.56 1521.64 1287 1522.5C1294 1523 1312.22 1521.53 1308 1510L1296 1513.5L1296.01 1513.58C1296.24 1516.85 1296.47 1519.98 1293 1518C1292.02 1516.44 1291.55 1511.63 1293 1508C1293.8 1506 1299.33 1504.17 1300.5 1504L1318 1502L1341 1507.5L1348 1518.5L1347.5 1537.5L1344 1529C1344 1526.5 1344 1524 1342.5 1521.5C1341.39 1519.65 1337.47 1518.51 1334.65 1517.69C1334.42 1517.62 1334.21 1517.56 1334 1517.5L1306 1520.5L1292 1524.5L1283 1532.5L1277.5 1547L1286.5 1560.5C1301.63 1560.65 1307 1546.5 1293.5 1547C1292.81 1548.43 1293 1549.67 1293.5 1552C1288.57 1548.74 1288.07 1545.62 1291.5 1541.5C1293.53 1539.06 1293.16 1537.11 1292.97 1536.15C1292.9 1535.77 1292.86 1535.55 1293 1535.5L1308.5 1533L1323 1535.5L1336 1548.5L1343 1552L1377 1536.5L1440.5 1393L1400.5 1306.5Z" fill="#D9D9D9"/>
</mask>
<g mask="url(#mask1_322_1017)">
<path id="fullLeg" d="M911 1705C911 1654.92 932.75 1652.09 932.75 1620C932.75 1590.5 889.25 1590.5 889.25 1620C889.25 1677.76 1031.25 1693 1082.5 1693C1153.5 1693 1172.5 1673.5 1240 1649C1289.5 1631.03 1285 1674 1273 1665C1261 1656 1325.08 1642 1325.08 1590C1325.08 1577.7 1322.6 1569.85 1328.29 1561.89C1345 1538.5 1290 1528.5 1291.5 1547C1291.75 1550 1294.76 1551.25 1298.5 1551C1296.07 1562.69 1282.18 1552.48 1281.5 1543.5L1289.5 1532.5L1297.21 1524.24L1310.5 1526L1321.5 1523L1335 1528.5L1334 1532.5C1343.8 1528.78 1344.68 1527.2 1345 1524.5C1347.5 1504.5 1296 1500 1295 1513C1294 1526 1306 1510 1306.5 1512C1305.1 1524.33 1284.86 1524.02 1284 1511L1297.21 1500.5H1309L1318.5 1497.5L1333 1501.5C1336.38 1504.74 1342.02 1506.21 1344.5 1502C1353.5 1479.5 1291.13 1483.99 1300.5 1461.5L1314.5 1444L1323.5 1433.5L1349 1440L1369 1433.5L1394.14 1429.5L1405 1403.5C1397.73 1395.98 1381.66 1401.14 1381.5 1405C1379.42 1406.37 1391.1 1403.5 1390.19 1406.91C1385.49 1424.58 1295 1419 1295 1394.5C1295 1388.53 1303.73 1391.41 1309 1391L1332 1401L1343 1391L1379 1399L1403 1391C1400.07 1372.03 1393.55 1368.75 1385 1379C1389.14 1379.95 1394.77 1380.5 1394.14 1383.93C1390.5 1403.73 1289.5 1366.5 1298 1343C1301.01 1334.67 1308.88 1344.44 1314.5 1348L1323.5 1345.5L1343 1356.5L1352.5 1354L1373.5 1361.5L1403 1356.5C1414.18 1324.31 1406.73 1326.51 1387.5 1333.5C1394.44 1336.27 1400.15 1335 1399.32 1339.2C1396.11 1355.33 1292 1329.5 1296 1294.5C1296.83 1287.22 1307.59 1295.32 1314.5 1298.87L1332 1289.5L1352.5 1301.5L1373.5 1298.87L1380 1298C1390.09 1294.11 1399.5 1307.5 1402.5 1301C1414 1272 1356.12 1261.47 1332 1205C1322 1183 1323 1165.5 1343.5 1129.5C1364 1093.5 1296.7 1094.72 1277.5 1061C1257 1025 1333.2 989.941 1306 938.5C1283 895 1204.5 921.5 1163 833.5L942.002 365" stroke="#FF0000" stroke-width="2" stroke-linecap="round"/>
</g>
</g>
</g>
</svg>
