<svg width="1782" height="473" viewBox="0 0 1782 473" fill="none" xmlns="http://www.w3.org/2000/svg">
<g id="introLogo" clip-path="url(#clip0_876_582)">
<g id="Left">
<mask id="mask0_876_582" style="mask-type:alpha" maskUnits="userSpaceOnUse" x="-168" y="-47" width="1247" height="431">
<path id="SunMask" fill-rule="evenodd" clip-rule="evenodd" d="M1079 -47H-168V384H1079V-47ZM883.697 365.983C888.904 369.381 894.113 371.649 901.001 373.517C902.464 373.913 903.309 374.225 902.878 374.21C898.591 374.056 891.861 373.021 887.069 371.778C866.271 366.382 849.162 352.049 841.155 333.312C831.973 311.826 834.54 287.787 848.167 267.655C861.179 248.432 882.365 236 906.223 233.588C910.929 233.113 920.487 233.358 925.09 234.072C945.243 237.199 962.925 248.262 973.373 264.279C978.608 272.305 981.897 280.887 983.487 290.662C984.25 295.355 984.245 305.229 983.476 310.046C982.292 317.457 979.821 325.249 976.642 331.588C975.366 334.133 972.089 339.591 971.837 339.591C971.759 339.591 971.929 339.063 972.214 338.418C973.415 335.704 975.15 330.141 975.748 327.085C980.263 304.032 970.378 281.725 950.286 269.627C943.456 265.515 935.201 262.701 927.408 261.828C924.703 261.525 915.962 261.512 913.046 261.807C902.696 262.853 891.459 267.384 882.544 274.105C865.66 286.832 856.734 307.132 859.219 327.153C861.216 343.238 869.862 356.954 883.697 365.983Z" fill="#D9D9D9"/>
</mask>
<g mask="url(#mask0_876_582)">
<path id="Left_2" d="M24.5 0C235.277 144.095 335.5 -39.5 422 23.5C459.603 50.8869 436.304 150.775 509 172C577.5 192 616 151.13 661.5 163C700 173.043 711.04 195.18 746.5 207C768 214.167 796.5 217.5 816 187.5C842.385 153.12 888.5 140.526 928 159.5C967.5 178.474 994.808 239.5 968.5 281.5C942.192 323.5 889 345.268 841.5 316.5C803.571 293.529 783 238.5 816 188.5C828 171.5 854.5 151 883.5 152" stroke="#FF0000" stroke-width="2"/>
</g>
</g>
<path id="Vector 114" d="M564.5 236H1298.5" stroke="black"/>
<path id="Right" d="M1823 343.5C1685 335 1618.5 486.5 1538 471.5C1457.5 456.5 1435.5 333 1366.5 335C1297.5 337 1274.5 395.5 1211.5 385C1148.5 374.5 1154.5 340.113 1115 321C1075.5 301.887 1038.5 326.5 1024 326.5C1008.77 326.5 986.5 328.5 985 298C982.5 240.5 926.5 230.5 907 233C867 239 834 267.497 834 309C834 355.5 888.5 386 918 373.5C906.5 374.5 871.051 369.834 862 334.5C854.095 303.644 874.047 280.145 891 270C909.329 259.032 953.951 259.857 969 291.5C982.662 320.228 970.511 340.652 963.5 349C971.333 344.333 986.8 328 986 300" stroke="#FF0000" stroke-width="2"/>
<path id="sunMoon" d="M832.918 301.634C834.661 284.343 842.694 268.076 855.807 255.28C862.309 248.936 868.75 244.414 877.218 240.251C903.088 227.53 933.239 229.166 956.329 244.544C961.779 248.173 967.981 253.773 971.461 258.206C972.305 259.281 973.095 260.16 973.217 260.16C973.479 260.16 974.657 253.391 975.096 249.361C975.552 245.178 975.468 235.2 974.939 230.737C973.041 214.737 967.471 200.83 957.649 187.571C954.554 183.393 946.013 174.698 941.895 171.532C925.103 158.626 905.152 152.128 884.735 152.917C878.469 153.159 877.937 153.215 872.206 154.235C854.032 157.469 838.429 165.664 825.221 178.914C812.45 191.725 804.052 208.05 800.977 226.044C797.083 248.836 802.695 273.177 816.139 291.799C819.773 296.833 827.229 304.87 831.176 308.009L832.429 309.005L832.5 307.041C832.539 305.961 832.727 303.528 832.918 301.634ZM897.578 327.926C909.491 326.547 921.05 322.77 931.403 316.872C943.856 309.777 955.579 298.291 962.982 285.927C963.231 285.512 961.14 282.891 958.312 280.073C944.788 266.595 924.498 261.337 905.047 266.268C895.193 268.766 886.079 273.847 878.671 280.973C867.472 291.746 861.401 305.878 861.401 321.174C861.401 323.945 861.47 324.342 862.004 324.628C863.727 325.549 872.605 327.334 879.723 328.19C882.466 328.519 893.909 328.35 897.578 327.926ZM900.552 373.63C893.655 371.76 888.44 369.49 883.227 366.087C869.376 357.048 860.72 343.316 858.721 327.212C856.233 307.168 865.169 286.844 882.072 274.102C890.998 267.374 902.249 262.838 912.61 261.79C915.53 261.495 924.281 261.508 926.989 261.811C934.791 262.685 943.055 265.502 949.893 269.62C970.009 281.732 979.906 304.064 975.386 327.144C974.786 330.204 973.05 335.773 971.847 338.491C971.562 339.137 971.392 339.665 971.47 339.665C971.722 339.665 975.003 334.2 976.28 331.653C979.463 325.306 981.938 317.505 983.122 310.085C983.892 305.263 983.898 295.378 983.134 290.679C981.542 280.892 978.248 272.301 973.007 264.265C962.548 248.229 944.845 237.154 924.669 234.023C920.06 233.308 910.491 233.062 905.779 233.539C881.893 235.953 860.683 248.399 847.656 267.645C834.013 287.801 831.443 311.867 840.636 333.379C848.652 352.137 865.781 366.487 886.603 371.889C891.4 373.134 898.139 374.17 902.431 374.324C902.862 374.339 902.016 374.027 900.552 373.63ZM897.576 377.931C894.811 377.713 888.384 376.498 884.787 375.512C872.626 372.181 861.746 365.922 852.943 357.193C841.281 345.63 834.488 331.457 832.88 315.33L832.497 311.497L831.054 310.332C828.219 308.045 821.496 301.264 818.772 297.946C804.956 281.113 797.832 261.292 797.823 239.658C797.813 214.959 807.29 192.093 824.742 174.708C839.634 159.874 857.992 151.08 879.723 148.372C883.715 147.874 895.061 147.876 899.142 148.375C908.525 149.522 916.19 151.484 924.399 154.839C961.944 170.182 984.93 208.709 980.701 249.205C980.257 253.455 979.338 258.493 978.226 262.776C977.611 265.142 977.368 266.613 977.553 266.843C978.181 267.622 981.418 274.335 982.439 276.976C983.934 280.845 985.29 285.894 986.078 290.522C986.843 295.022 987.137 304.076 986.656 308.364C985.985 314.354 984.371 321.245 982.436 326.383C978.327 337.294 968.747 348.591 957.905 355.312C956.474 356.199 955.234 356.856 955.149 356.771C955.065 356.687 955.285 356.463 955.639 356.274C956.774 355.667 961.609 349.943 963.984 346.394C974.111 331.264 976.146 312.726 969.448 296.64C967.903 292.932 966.324 290.079 966.005 290.423C965.875 290.564 964.59 292.25 963.15 294.17C954.307 305.96 943.499 315.039 930.703 321.427C917.521 328.009 904.064 331.211 889.589 331.211C880.313 331.211 872.493 330.077 862.44 327.273C861.893 327.121 861.78 327.198 861.877 327.661C861.944 327.979 862.227 329.437 862.506 330.901C863.587 336.559 866.551 343.666 869.945 348.735C879.898 363.604 896.491 372.218 915.18 372.218C919.262 372.218 925.256 371.659 927.054 371.112C928.63 370.631 923.823 372.907 921.171 373.896C914.043 376.555 903.344 378.385 897.576 377.931Z" fill="#FF0000"/>
<g id="ray1">
<mask id="mask1_876_582" style="mask-type:alpha" maskUnits="userSpaceOnUse" x="610" y="-38" width="555" height="554">
<circle id="rayMask" cx="887.5" cy="239.061" r="276.669" fill="#D9D9D9"/>
</mask>
<g mask="url(#mask1_876_582)">
<path id="ray1_2" d="M707.851 302.866C715.665 298.792 724.182 296.357 732.318 293.032C743.564 288.668 754.81 284.274 766.069 279.946C772.155 277.745 778.236 275.519 784.279 273.211C786.12 272.823 791.926 270.895 791.215 273.975C789.422 275.9 787.02 276.51 784.499 277.674C779.857 279.54 775.112 281.145 770.57 283.25C765.87 284.956 761.253 286.9 756.55 288.609C754.156 289.823 751.462 290.459 748.929 291.529C744.814 292.969 740.773 294.598 736.683 296.092C732.84 297.621 728.923 299.005 725.009 300.316C721.978 301.516 718.604 303.286 715.298 304.372C712.16 305.191 709.007 307.367 705.707 306.579C704.349 305.305 706.908 303.468 707.851 302.866Z" fill="#FF0000"/>
</g>
</g>
<g id="ray2">
<mask id="mask2_876_582" style="mask-type:alpha" maskUnits="userSpaceOnUse" x="610" y="-38" width="555" height="554">
<circle id="rayMask_2" cx="887.5" cy="239.061" r="276.669" fill="#D9D9D9"/>
</mask>
<g mask="url(#mask2_876_582)">
<g id="ray2_2">
<path d="M649.089 242.291C647.569 242.069 646.952 240.015 648.095 238.981C648.952 238.206 650.823 238.306 651.421 239.159C652.616 240.863 651.311 242.616 649.089 242.291Z" fill="#FF0000"/>
<path d="M656.297 242.017C654.974 241.508 654.657 239.849 655.702 238.903C656.286 238.374 656.979 238.294 661.828 238.202C668.128 238.082 668.833 238.278 668.833 240.154C668.833 241.932 668.417 242.057 662.282 242.131C659.249 242.168 656.555 242.116 656.297 242.017Z" fill="#FF0000"/>
<path d="M672.499 241.35C671.189 239.904 672.296 238.037 674.362 238.207C675.339 238.288 675.649 238.48 676.006 239.228C676.385 240.021 676.384 240.261 675.999 240.951C675.408 242.006 673.31 242.246 672.499 241.35Z" fill="#FF0000"/>
<path d="M679.927 241.668C678.773 240.899 678.794 238.796 679.96 238.349C680.812 238.022 682.47 238.123 682.873 238.525C683.444 239.096 683.326 240.801 682.676 241.39C682.088 241.922 680.541 242.078 679.927 241.668Z" fill="#FF0000"/>
<path d="M696.63 241.037C695.323 239.594 696.427 237.724 698.486 237.894C699.411 237.971 699.791 238.189 700.162 238.854C700.594 239.628 700.593 239.804 700.162 240.577C699.541 241.692 697.468 241.962 696.63 241.037Z" fill="#FF0000"/>
<path d="M702.854 240.899C701.777 239.362 702.654 237.837 704.614 237.837C706.51 237.837 707.5 239.884 706.181 241.077C705.323 241.852 703.452 241.752 702.854 240.899Z" fill="#FF0000"/>
<path d="M726.197 240.283C725.357 239.382 725.388 238.418 726.283 237.578C727.72 236.229 729.945 237.136 729.945 239.071C729.945 240.826 727.454 241.631 726.197 240.283Z" fill="#FF0000"/>
<path d="M732.125 240.169C731.519 239.439 731.628 237.896 732.322 237.371C733.23 236.684 735.179 236.763 735.575 237.503C736.072 238.429 735.962 239.756 735.351 240.219C734.592 240.796 732.62 240.765 732.125 240.169Z" fill="#FF0000"/>
<path d="M741.698 240.195C741.525 240.134 741.021 240.004 740.576 239.907C738.919 239.545 738.834 237.195 740.456 236.579C740.903 236.409 743.717 236.271 746.71 236.271C752.682 236.271 753.137 236.402 753.137 238.124C753.137 239.752 752.517 239.957 747.025 240.14C744.267 240.231 741.87 240.256 741.698 240.195Z" fill="#FF0000"/>
<path d="M756.727 239.26C756.303 238.837 755.957 238.267 755.957 237.993C755.957 237.168 757.411 235.957 758.402 235.957C759.55 235.957 760.345 236.824 760.345 238.078C760.345 239.932 758.124 240.657 756.727 239.26Z" fill="#FF0000"/>
<path d="M772.904 238.89C772.062 237.821 772.085 237.351 773.023 236.413C774.445 234.992 776.642 235.742 776.642 237.649C776.642 239.692 774.178 240.51 772.904 238.89Z" fill="#FF0000"/>
</g>
</g>
</g>
<g id="ray3">
<mask id="mask3_876_582" style="mask-type:alpha" maskUnits="userSpaceOnUse" x="610" y="-38" width="555" height="554">
<circle id="rayMask_3" cx="887.5" cy="239.061" r="276.669" fill="#D9D9D9"/>
</mask>
<g mask="url(#mask3_876_582)">
<path id="ray3_2" d="M786.983 196.738C784.605 196.294 782.146 194.965 779.715 194.2C775.339 192.412 770.833 190.968 766.487 189.108C762.136 187.784 758.08 185.637 753.763 184.215C747.256 181.566 740.8 178.789 734.208 176.362C731.305 175.336 728.9 173.575 726.431 173.139C722.123 171.705 717.803 170.091 713.791 168.04C711.8 167.061 711.194 163.88 714.198 164.594C720.203 165.183 725.495 168.367 731.094 170.344C739.41 173.619 747.735 176.861 756.077 180.075C762.085 182.417 768.106 184.742 774.061 187.228C778.41 189.044 782.809 190.764 787.146 192.591C789.31 193.143 791.877 197.477 787.909 196.897L787.467 196.834L786.983 196.738Z" fill="#FF0000"/>
</g>
</g>
<g id="ray4">
<mask id="mask4_876_582" style="mask-type:alpha" maskUnits="userSpaceOnUse" x="610" y="-38" width="555" height="554">
<circle id="rayMask_4" cx="887.5" cy="239.061" r="276.669" fill="#D9D9D9"/>
</mask>
<g mask="url(#mask4_876_582)">
<g id="ray4_2">
<path d="M806.165 159.769C805.439 158.896 805.4 157.731 806.074 157.058C806.956 156.177 809.076 156.148 809.538 157.01C810.033 157.935 809.926 159.069 809.289 159.644C808.614 160.254 806.633 160.334 806.165 159.769Z" fill="#FF0000"/>
<path d="M801.292 155.205C800.05 153.833 801.465 151.435 803.267 151.859C804.215 152.082 805.161 153.112 805.161 153.921C805.161 155.468 802.369 156.395 801.292 155.205Z" fill="#FF0000"/>
<path d="M793.501 147.089C791.281 144.895 789.385 142.779 789.287 142.389C789.038 141.397 789.945 140.118 790.898 140.118C791.885 140.118 793.858 141.839 798.345 146.611C800.273 148.663 800.516 149.458 799.52 150.454C798.352 151.621 797.734 151.276 793.501 147.089Z" fill="#FF0000"/>
<path d="M776.085 131.487C775.598 131.147 775.388 130.68 775.388 129.939C775.388 128.132 777.376 127.286 778.84 128.47C780.897 130.135 778.267 133.015 776.085 131.487Z" fill="#FF0000"/>
<path d="M770.794 126.065C769.005 124.636 764.756 120.279 763.975 119.072C763.5 118.337 763.484 118.113 763.848 117.349C764.164 116.687 764.526 116.447 765.326 116.37C766.313 116.276 766.669 116.553 770.573 120.454C772.877 122.757 774.761 124.887 774.761 125.19C774.761 125.854 773.402 127.277 772.767 127.277C772.516 127.277 771.628 126.732 770.794 126.065Z" fill="#FF0000"/>
<path d="M752.322 108.524C750.51 107.19 744.675 101.133 744.675 100.586C744.675 99.7483 746.263 98.4272 746.996 98.6559C748.488 99.1216 755.958 106.447 755.958 107.445C755.958 108.367 755.052 109.424 754.263 109.424C753.868 109.424 752.994 109.019 752.322 108.524Z" fill="#FF0000"/>
<path d="M740.149 97.1399C739.479 96.184 739.537 95.47 740.347 94.7162C741.211 93.9116 743.031 93.8611 743.612 94.6257C744.209 95.4113 744.143 96.714 743.475 97.3176C742.618 98.0932 740.747 97.9932 740.149 97.1399Z" fill="#FF0000"/>
<path d="M726.733 84.4229C726.259 84.1106 724.249 82.2841 722.267 80.3641C718.391 76.6101 718.028 75.9014 719.349 74.6716C720.652 73.4581 720.95 73.6351 726.445 78.8876C729.935 82.2243 730.313 83.0238 729.072 84.4469C728.465 85.1443 727.818 85.1376 726.733 84.4229Z" fill="#FF0000"/>
</g>
</g>
</g>
<g id="ray5">
<mask id="mask5_876_582" style="mask-type:alpha" maskUnits="userSpaceOnUse" x="610" y="-38" width="555" height="554">
<circle id="rayMask_5" cx="887.5" cy="239.061" r="276.669" fill="#D9D9D9"/>
</mask>
<g mask="url(#mask5_876_582)">
<path id="ray5_2" d="M850.172 140.027C847.545 138.026 846.94 134.654 845.541 131.848C842.442 124.756 839.483 117.606 836.569 110.437C833.516 103.355 830.98 96.0605 827.868 89.0018C826.078 83.6506 823.396 78.6602 821.449 73.3706C820.892 71.1049 818.174 66.182 821.488 66.0774C824.273 65.9895 824.754 70.5373 826.047 72.8481C828.696 79.0309 831.037 85.3314 833.722 91.4907C836.216 97.6307 838.896 103.701 841.338 109.867C844.249 116.543 846.847 123.354 849.463 130.151C850.461 132.838 851.862 135.443 852.443 138.305C852.981 139.677 851.284 140.608 850.172 140.027Z" fill="#FF0000"/>
</g>
</g>
<g id="ray6">
<mask id="mask6_876_582" style="mask-type:alpha" maskUnits="userSpaceOnUse" x="610" y="-38" width="555" height="554">
<circle id="rayMask_6" cx="887.5" cy="239.061" r="276.669" fill="#D9D9D9"/>
</mask>
<g mask="url(#mask6_876_582)">
<g id="ray6_2">
<path d="M904.637 127.907C903.177 127.579 902.941 127.337 902.941 126.162C902.941 124.938 903.841 123.832 904.836 123.832C905.188 123.832 905.836 124.191 906.276 124.63C906.897 125.251 907.029 125.617 906.869 126.275C906.547 127.592 905.769 128.161 904.637 127.907Z" fill="#FF0000"/>
<path d="M904.614 122.266C903.737 121.913 903.464 121.012 903.893 119.886C904.303 118.806 904.708 118.518 905.822 118.512C906.757 118.507 907.642 119.495 907.642 120.543C907.642 122.149 906.266 122.932 904.614 122.266Z" fill="#FF0000"/>
<path d="M905.667 117.342C904.466 117.161 904.047 116.021 904.651 114.577C905.06 113.599 905.222 113.496 906.361 113.496C907.72 113.496 908.269 114.055 908.269 115.441C908.269 116.317 907.445 117.586 906.919 117.52C906.713 117.495 906.15 117.414 905.667 117.342Z" fill="#FF0000"/>
<path d="M907.485 105.439C906.493 105.196 906.075 104.715 906.075 103.818C906.075 102.481 906.891 101.594 908.122 101.594C909.469 101.594 910.331 102.706 910.002 104.018C909.611 105.574 909.132 105.844 907.485 105.439Z" fill="#FF0000"/>
<path d="M907.412 99.3236C906.794 98.5344 906.779 97.4491 907.316 92.5401C907.908 87.1323 908.331 85.9343 909.652 85.9343C910.059 85.9343 910.722 86.2007 911.125 86.5263L911.856 87.1182L911.332 92.2934C911.043 95.1398 910.596 97.9741 910.337 98.5919C909.928 99.571 909.73 99.7151 908.793 99.7151C908.202 99.7151 907.581 99.5389 907.412 99.3236Z" fill="#FF0000"/>
<path d="M909.315 84.682C908.438 84.3288 908.165 83.4278 908.594 82.302C909.002 81.2294 909.409 80.9343 910.492 80.928C912.105 80.9184 912.88 82.8359 911.855 84.2987C911.349 85.0207 910.481 85.1518 909.315 84.682Z" fill="#FF0000"/>
<path d="M912.03 70.8305C910.762 70.482 910.474 70.1346 910.467 68.9432C910.461 67.8798 911.46 66.8291 912.477 66.8291C913.531 66.8291 914.633 68.274 914.378 69.3211C914.044 70.6904 913.288 71.1762 912.03 70.8305Z" fill="#FF0000"/>
<path d="M913.562 55.9731C912.63 55.7244 912.329 54.4891 912.914 53.3192C914.027 51.0927 917.102 52.2412 916.507 54.6614C916.157 56.0884 915.346 56.4496 913.562 55.9731Z" fill="#FF0000"/>
<path d="M914.089 49.4243C913.34 48.6758 913.456 46.9185 914.293 46.3325C915.811 45.2698 917.671 46.1221 917.671 47.8807C917.671 49.6276 915.31 50.6449 914.089 49.4243Z" fill="#FF0000"/>
<path d="M914.861 43.0466C914.378 42.1447 914.457 40.8261 915.306 35.6554C915.951 31.7205 916.187 30.8768 916.774 30.4005C917.958 29.4406 919.864 30.3207 919.864 31.8275C919.864 33.4151 918.22 42.3148 917.811 42.9379C917.197 43.8741 915.341 43.9425 914.861 43.0466Z" fill="#FF0000"/>
</g>
</g>
</g>
<g id="ray7">
<mask id="mask7_876_582" style="mask-type:alpha" maskUnits="userSpaceOnUse" x="610" y="-38" width="555" height="554">
<circle id="rayMask_7" cx="887.5" cy="239.061" r="276.669" fill="#D9D9D9"/>
</mask>
<g mask="url(#mask7_876_582)">
<path id="ray7_2" d="M950.468 150.244C949.162 147.646 952.159 144.893 953.217 142.523C960.707 131.772 968.471 121.213 975.965 110.465C982.208 101.653 988.372 92.7635 995.082 84.3002C995.976 82.4891 999.793 81.2794 998.873 84.5356C998.098 87.4895 995.711 89.6223 994.411 92.3258C992.095 95.3098 989.819 98.3477 987.921 101.601C985.62 104.559 983.726 107.822 981.249 110.644C979.772 113.116 978.075 115.528 976.235 117.77C973.517 121.732 970.434 125.468 967.857 129.498C962.979 135.465 959.159 142.206 954.323 148.197C953.382 149.169 952.04 151.067 950.468 150.244Z" fill="#FF0000"/>
</g>
</g>
<g id="ray8">
<mask id="mask8_876_582" style="mask-type:alpha" maskUnits="userSpaceOnUse" x="610" y="-38" width="555" height="554">
<circle id="rayMask_8" cx="887.5" cy="239.061" r="276.669" fill="#D9D9D9"/>
</mask>
<g mask="url(#mask8_876_582)">
<g id="ray8_2">
<path d="M982.366 173.588C981.888 172.664 981.894 172.559 982.467 171.788C983.244 170.744 985.277 170.466 985.901 171.319C986.409 172.014 986.426 173.698 985.929 174.194C985.722 174.401 984.95 174.57 984.213 174.57C983.029 174.57 982.815 174.456 982.366 173.588Z" fill="#FF0000"/>
<path d="M987.931 170.173C986.395 168.743 987.165 167.686 992.416 164.012C996.663 161.041 997.41 160.673 998.2 161.167C998.543 161.38 998.987 161.952 999.188 162.437C999.51 163.214 999.465 163.415 998.806 164.12C997.955 165.029 991.678 169.512 990.16 170.295C988.885 170.952 988.76 170.945 987.931 170.173Z" fill="#FF0000"/>
<path d="M1007.16 156.673C1006.13 155.859 1006.15 154.844 1007.22 153.832C1008.41 152.715 1015.4 148.233 1016.4 147.946C1017.32 147.681 1017.97 148.046 1018.57 149.161C1019.17 150.297 1018.32 151.177 1013.77 154.105C1008.83 157.283 1008.23 157.515 1007.16 156.673Z" fill="#FF0000"/>
<path d="M1021.59 147.934C1020.51 147.611 1020.16 147.15 1020.16 146.008C1020.15 144.309 1023.06 143.47 1024.05 144.886C1024.77 145.908 1024.65 146.877 1023.71 147.612C1022.8 148.329 1022.87 148.318 1021.59 147.934Z" fill="#FF0000"/>
<path d="M1026.42 144.249C1024.94 143.058 1025.97 140.744 1027.97 140.744C1029.08 140.744 1029.87 141.63 1029.87 142.865C1029.87 144.588 1027.84 145.401 1026.42 144.249Z" fill="#FF0000"/>
<path d="M1037.77 136.812C1036.79 136.125 1036.86 134.796 1037.94 133.791C1039.12 132.682 1046.14 128.236 1047.07 128.001C1047.49 127.897 1048.05 127.952 1048.33 128.125C1049.05 128.58 1049.5 130.013 1049.11 130.66C1048.51 131.684 1039.71 137.299 1038.72 137.299C1038.58 137.299 1038.16 137.08 1037.77 136.812Z" fill="#FF0000"/>
<path d="M1052.57 126.5C1051.67 125.605 1051.62 125.169 1052.32 124.181C1052.9 123.344 1060.27 118.471 1061.68 117.987C1062.9 117.567 1063.31 117.732 1063.91 118.891C1064.37 119.78 1064.36 119.9 1063.79 120.663C1063.12 121.578 1055.8 126.397 1054.29 126.923C1053.44 127.22 1053.24 127.169 1052.57 126.5Z" fill="#FF0000"/>
<path d="M1067.3 116.79C1065.74 115.236 1066.32 114.495 1071.98 110.844C1077.21 107.465 1077.69 107.346 1078.64 109.191C1079.1 110.068 1079.09 110.193 1078.52 110.954C1077.85 111.868 1070.53 116.688 1069.02 117.214C1068.17 117.51 1067.97 117.46 1067.3 116.79Z" fill="#FF0000"/>
<path d="M1087.53 103.16C1086.12 101.749 1086.94 100.737 1092.29 97.2733C1096.3 94.682 1097.44 94.1614 1098.15 94.6013C1098.85 95.0376 1099.49 96.4168 1099.26 97.0116C1099.05 97.5414 1093.8 101.206 1090.95 102.805C1088.91 103.954 1088.38 104.008 1087.53 103.16Z" fill="#FF0000"/>
</g>
</g>
</g>
<g id="ray9">
<mask id="mask9_876_582" style="mask-type:alpha" maskUnits="userSpaceOnUse" x="610" y="-38" width="555" height="554">
<circle id="rayMask_9" cx="887.5" cy="239.061" r="276.669" fill="#D9D9D9"/>
</mask>
<g mask="url(#mask9_876_582)">
<path id="ray9_2" d="M993.939 203.977C997.505 201.143 1002.2 200.426 1006.42 199.01C1016.87 196.012 1027.22 192.721 1037.64 189.62C1047.19 186.699 1056.81 184.002 1066.42 181.274C1068.35 180.175 1072.51 181.559 1069.74 183.925C1067.76 185.707 1064.92 185.776 1062.58 186.883C1058.9 187.852 1055.28 189.01 1051.71 190.314C1046.53 191.831 1041.38 193.456 1036.17 194.895C1027.22 197.515 1018.24 200.041 1009.3 202.716C1004.83 204.117 1000.37 205.783 995.745 206.551C994.26 206.716 992.468 205.436 993.939 203.977Z" fill="#FF0000"/>
</g>
</g>
</g>
<defs>
<clipPath id="clip0_876_582">
<rect width="1782" height="473" fill="white"/>
</clipPath>
</defs>
</svg>
