<svg width="569" height="638" viewBox="0 0 569 638" fill="none" xmlns="http://www.w3.org/2000/svg">
<g id="introLogoMobile" clip-path="url(#clip0_890_1251)">
<g id="lEFT">
<mask id="mask0_890_1251" style="mask-type:alpha" maskUnits="userSpaceOnUse" x="-321" y="-74" width="725" height="473">
<path id="SunMask" fill-rule="evenodd" clip-rule="evenodd" d="M404 -74H-321V399H404V-74ZM290.452 388.549C293.479 390.52 296.507 391.836 300.512 392.919C301.363 393.149 301.854 393.33 301.603 393.321C299.111 393.232 295.198 392.632 292.412 391.911C280.32 388.781 270.373 380.467 265.718 369.599C260.38 357.136 261.872 343.192 269.795 331.515C277.36 320.364 289.677 313.153 303.548 311.754C306.284 311.479 311.841 311.621 314.517 312.035C326.234 313.849 336.515 320.266 342.589 329.556C345.633 334.212 347.545 339.19 348.469 344.86C348.913 347.582 348.91 353.309 348.463 356.103C347.774 360.402 346.338 364.922 344.49 368.599C343.748 370.075 341.842 373.241 341.696 373.241C341.651 373.241 341.749 372.934 341.915 372.56C342.613 370.986 343.622 367.759 343.97 365.987C346.595 352.615 340.848 339.676 329.166 332.658C325.195 330.273 320.396 328.641 315.865 328.135C314.292 327.959 309.21 327.951 307.515 328.122C301.498 328.729 294.965 331.357 289.781 335.256C279.965 342.638 274.776 354.413 276.22 366.026C277.381 375.356 282.408 383.312 290.452 388.549Z" fill="#D9D9D9"/>
</mask>
<g mask="url(#mask0_890_1251)">
<path id="left" opacity="0.5" d="M246.5 295C241 305.5 236.823 334.867 263.5 355C290 375 334.5 361.5 343 327C351.5 292.5 325.5 270.667 308.5 265C304 263.5 265.5 254.5 246.999 294C242.999 306 223.176 308.85 210.999 300.5C198.822 292.15 184.499 279.016 161.499 280.5C138.499 281.984 106.499 261 119.499 220C132.499 179 184.999 190.5 176.499 152.5C167.999 114.5 123.499 147 119.499 98.4999C115.986 55.9043 43.5 118 29 36.4999C24.1945 9.48977 4.07352 2.11128 -19 -0.108887" stroke="#FF0000" stroke-width="1.5"/>
</g>
</g>
<path id="right" opacity="0.5" d="M348.327 347.899C348.782 363.656 339.997 372.848 335.549 375.474C339.53 370.776 346.431 359.283 338.672 343.116C330.125 325.308 304.783 324.844 294.373 331.017C284.744 336.726 273.413 349.95 277.902 367.314C283.043 387.199 303.176 389.825 309.707 389.262C292.953 396.296 262 379.132 262 352.964C262 329.608 279.782 312.876 302.5 309.5C313.575 308.093 346.339 314.415 347.759 346.774C348.611 363.938 360.85 365.5 369.5 365.5C379.5 365.5 391.11 367.5 394.055 377.5C399.1 390.559 366.555 410 376.055 424C385.555 438 439.564 419.539 446.055 446C459.055 499 418.5 572.759 458 565C478 561.071 509.104 497.731 529 513C550.5 529.5 524.555 609.5 547.555 633.5C555.788 642.091 564.854 636.074 575.693 626" stroke="#FF0000" stroke-width="1.5"/>
<path id="sunMoon" d="M261.89 348.597C262.874 338.834 267.409 329.649 274.814 322.425C278.485 318.842 282.122 316.289 286.903 313.939C301.51 306.756 318.534 307.68 331.571 316.362C334.648 318.412 338.15 321.574 340.115 324.077C340.591 324.684 341.037 325.18 341.106 325.18C341.254 325.18 341.919 321.358 342.167 319.083C342.425 316.72 342.377 311.087 342.078 308.567C341.007 299.533 337.862 291.681 332.316 284.194C330.569 281.835 325.746 276.926 323.421 275.138C313.94 267.851 302.675 264.183 291.147 264.628C287.609 264.765 287.309 264.796 284.073 265.372C273.811 267.198 265.002 271.825 257.544 279.306C250.333 286.54 245.592 295.757 243.855 305.917C241.656 318.786 244.825 332.529 252.416 343.044C254.468 345.886 258.678 350.424 260.906 352.197L261.614 352.759L261.654 351.65C261.676 351.04 261.782 349.666 261.89 348.597ZM298.399 363.442C305.125 362.664 311.652 360.531 317.497 357.201C324.528 353.195 331.147 346.709 335.327 339.729C335.468 339.494 334.287 338.015 332.69 336.423C325.055 328.813 313.598 325.844 302.615 328.629C297.052 330.039 291.906 332.908 287.723 336.931C281.4 343.014 277.972 350.994 277.972 359.63C277.972 361.195 278.011 361.419 278.313 361.58C279.285 362.1 284.298 363.108 288.317 363.591C289.866 363.777 296.327 363.682 298.399 363.442ZM300.078 389.248C296.184 388.192 293.239 386.91 290.296 384.989C282.475 379.885 277.588 372.132 276.459 363.039C275.054 351.722 280.1 340.247 289.644 333.052C294.683 329.253 301.036 326.692 306.886 326.101C308.534 325.934 313.476 325.941 315.005 326.112C319.41 326.605 324.076 328.196 327.937 330.521C339.295 337.36 344.883 349.969 342.331 363.001C341.992 364.728 341.012 367.873 340.333 369.408C340.172 369.772 340.076 370.07 340.12 370.07C340.262 370.07 342.115 366.985 342.836 365.547C344.633 361.963 346.03 357.558 346.699 353.369C347.134 350.646 347.137 345.065 346.705 342.412C345.807 336.886 343.947 332.035 340.988 327.498C335.082 318.443 325.087 312.19 313.695 310.422C311.093 310.018 305.689 309.88 303.029 310.149C289.543 311.512 277.567 318.54 270.211 329.406C262.508 340.786 261.057 354.375 266.248 366.521C270.774 377.112 280.445 385.215 292.202 388.265C294.91 388.968 298.715 389.553 301.139 389.64C301.382 389.649 300.904 389.472 300.078 389.248ZM298.398 391.676C296.836 391.553 293.207 390.867 291.176 390.311C284.31 388.43 278.167 384.896 273.196 379.967C266.612 373.439 262.777 365.436 261.868 356.33L261.652 354.166L260.837 353.508C259.237 352.217 255.441 348.388 253.903 346.515C246.102 337.011 242.079 325.819 242.074 313.604C242.068 299.659 247.42 286.748 257.274 276.932C265.682 268.556 276.047 263.591 288.317 262.062C290.571 261.781 296.978 261.782 299.282 262.064C304.58 262.711 308.907 263.819 313.542 265.713C334.741 274.376 347.72 296.13 345.332 318.994C345.081 321.394 344.562 324.239 343.934 326.657C343.587 327.993 343.45 328.824 343.554 328.953C343.909 329.393 345.737 333.184 346.313 334.675C347.157 336.859 347.923 339.71 348.368 342.323C348.8 344.864 348.966 349.976 348.694 352.397C348.315 355.779 347.404 359.67 346.312 362.571C343.992 368.732 338.582 375.11 332.46 378.905C331.652 379.406 330.952 379.777 330.905 379.729C330.857 379.681 330.981 379.555 331.181 379.449C331.822 379.106 334.552 375.874 335.893 373.87C341.611 365.327 342.76 354.86 338.978 345.778C338.106 343.684 337.214 342.073 337.034 342.267C336.961 342.347 336.235 343.299 335.422 344.383C330.429 351.039 324.327 356.166 317.102 359.773C309.659 363.489 302.061 365.297 293.888 365.297C288.65 365.297 284.235 364.657 278.559 363.074C278.25 362.987 278.186 363.031 278.241 363.293C278.279 363.472 278.438 364.296 278.596 365.122C279.206 368.317 280.88 372.329 282.796 375.192C288.416 383.587 297.785 388.451 308.337 388.451C310.642 388.451 314.026 388.135 315.041 387.826C315.931 387.555 313.217 388.839 311.72 389.398C307.695 390.9 301.654 391.933 298.398 391.676Z" fill="#FF0000"/>
<g id="Mask group">
<mask id="mask1_890_1251" style="mask-type:alpha" maskUnits="userSpaceOnUse" x="136" y="156" width="313" height="314">
<circle id="rayMask" cx="292.426" cy="312.969" r="156.119" fill="#D9D9D9"/>
</mask>
<g mask="url(#mask1_890_1251)">
<path id="ray1" d="M191.053 348.973C195.463 346.674 200.269 345.3 204.86 343.424C211.206 340.962 217.552 338.482 223.905 336.04C227.339 334.798 230.771 333.542 234.18 332.239C235.219 332.02 238.496 330.932 238.094 332.671C237.082 333.757 235.727 334.101 234.305 334.758C231.685 335.811 229.008 336.716 226.445 337.905C223.793 338.867 221.187 339.964 218.534 340.928C217.183 341.613 215.662 341.972 214.233 342.576C211.911 343.389 209.631 344.308 207.323 345.151C205.154 346.013 202.944 346.795 200.735 347.534C199.025 348.211 197.121 349.21 195.255 349.823C193.485 350.285 191.706 351.513 189.843 351.069C189.078 350.35 190.521 349.313 191.053 348.973Z" fill="#FF0000"/>
</g>
</g>
<g id="Mask group_2">
<mask id="mask2_890_1251" style="mask-type:alpha" maskUnits="userSpaceOnUse" x="136" y="156" width="313" height="314">
<circle id="rayMask_2" cx="292.426" cy="312.969" r="156.119" fill="#D9D9D9"/>
</mask>
<g mask="url(#mask2_890_1251)">
<g id="ray2">
<path d="M157.895 314.792C157.037 314.667 156.689 313.507 157.334 312.924C157.818 312.487 158.874 312.543 159.211 313.024C159.885 313.986 159.149 314.975 157.895 314.792Z" fill="#FF0000"/>
<path d="M161.962 314.637C161.216 314.35 161.037 313.414 161.627 312.88C161.957 312.581 162.348 312.537 165.084 312.484C168.638 312.417 169.036 312.527 169.036 313.586C169.036 314.589 168.801 314.66 165.34 314.702C163.628 314.722 162.108 314.693 161.962 314.637Z" fill="#FF0000"/>
<path d="M171.105 314.261C170.366 313.445 170.99 312.392 172.156 312.487C172.708 312.533 172.883 312.642 173.084 313.063C173.298 313.511 173.297 313.646 173.08 314.035C172.747 314.631 171.562 314.766 171.105 314.261Z" fill="#FF0000"/>
<path d="M175.296 314.44C174.645 314.006 174.657 312.82 175.315 312.567C175.796 312.383 176.731 312.44 176.959 312.667C177.281 312.989 177.215 313.951 176.848 314.283C176.516 314.583 175.643 314.672 175.296 314.44Z" fill="#FF0000"/>
<path d="M184.722 314.084C183.984 313.27 184.607 312.215 185.769 312.311C186.291 312.354 186.506 312.477 186.715 312.853C186.958 313.289 186.958 313.388 186.715 313.825C186.364 314.454 185.194 314.606 184.722 314.084Z" fill="#FF0000"/>
<path d="M188.234 314.006C187.626 313.139 188.121 312.278 189.227 312.278C190.297 312.278 190.855 313.433 190.111 314.107C189.627 314.544 188.571 314.488 188.234 314.006Z" fill="#FF0000"/>
<path d="M201.406 313.659C200.932 313.151 200.949 312.607 201.454 312.132C202.265 311.371 203.521 311.883 203.521 312.975C203.521 313.965 202.115 314.42 201.406 313.659Z" fill="#FF0000"/>
<path d="M204.751 313.594C204.409 313.183 204.47 312.312 204.862 312.016C205.374 311.628 206.474 311.673 206.698 312.09C206.978 312.613 206.916 313.361 206.571 313.623C206.143 313.948 205.03 313.931 204.751 313.594Z" fill="#FF0000"/>
<path d="M210.153 313.609C210.055 313.575 209.77 313.502 209.52 313.447C208.585 313.243 208.537 311.916 209.452 311.569C209.704 311.473 211.292 311.395 212.981 311.395C216.351 311.395 216.607 311.469 216.607 312.44C216.607 313.359 216.258 313.475 213.159 313.578C211.603 313.63 210.25 313.644 210.153 313.609Z" fill="#FF0000"/>
<path d="M218.633 313.082C218.394 312.843 218.199 312.521 218.199 312.367C218.199 311.901 219.019 311.218 219.578 311.218C220.227 311.218 220.675 311.707 220.675 312.415C220.675 313.461 219.422 313.87 218.633 313.082Z" fill="#FF0000"/>
<path d="M227.762 312.873C227.287 312.27 227.299 312.004 227.829 311.475C228.631 310.673 229.871 311.097 229.871 312.173C229.871 313.325 228.481 313.787 227.762 312.873Z" fill="#FF0000"/>
</g>
</g>
</g>
<g id="Mask group_3">
<mask id="mask3_890_1251" style="mask-type:alpha" maskUnits="userSpaceOnUse" x="136" y="156" width="313" height="314">
<circle id="rayMask_3" cx="292.426" cy="312.969" r="156.119" fill="#D9D9D9"/>
</mask>
<g mask="url(#mask3_890_1251)">
<path id="ray3" d="M235.706 289.087C234.364 288.837 232.976 288.087 231.604 287.655C229.135 286.646 226.592 285.831 224.14 284.781C221.685 284.035 219.396 282.823 216.96 282.021C213.288 280.526 209.645 278.959 205.925 277.589C204.287 277.011 202.93 276.017 201.537 275.771C199.106 274.962 196.669 274.051 194.405 272.893C193.281 272.341 192.939 270.546 194.634 270.949C198.022 271.281 201.009 273.078 204.168 274.193C208.861 276.042 213.559 277.871 218.266 279.684C221.656 281.006 225.054 282.318 228.414 283.721C230.868 284.746 233.35 285.716 235.797 286.747C237.018 287.058 238.467 289.504 236.228 289.177L235.979 289.141L235.706 289.087Z" fill="#FF0000"/>
</g>
</g>
<g id="Mask group_4">
<mask id="mask4_890_1251" style="mask-type:alpha" maskUnits="userSpaceOnUse" x="136" y="156" width="313" height="314">
<circle id="rayMask_4" cx="292.426" cy="312.969" r="156.119" fill="#D9D9D9"/>
</mask>
<g mask="url(#mask4_890_1251)">
<g id="ray4">
<path d="M246.53 268.226C246.121 267.733 246.099 267.076 246.479 266.696C246.977 266.199 248.173 266.183 248.434 266.669C248.713 267.191 248.653 267.831 248.293 268.156C247.913 268.5 246.795 268.545 246.53 268.226Z" fill="#FF0000"/>
<path d="M243.781 265.651C243.08 264.877 243.878 263.523 244.895 263.762C245.43 263.888 245.964 264.47 245.964 264.926C245.964 265.799 244.388 266.322 243.781 265.651Z" fill="#FF0000"/>
<path d="M239.384 261.071C238.132 259.833 237.062 258.639 237.006 258.419C236.866 257.859 237.378 257.137 237.915 257.137C238.472 257.137 239.586 258.108 242.118 260.801C243.206 261.959 243.343 262.408 242.781 262.97C242.122 263.628 241.773 263.433 239.384 261.071Z" fill="#FF0000"/>
<path d="M229.557 252.267C229.282 252.075 229.164 251.812 229.164 251.393C229.164 250.374 230.286 249.896 231.111 250.565C232.272 251.504 230.788 253.129 229.557 252.267Z" fill="#FF0000"/>
<path d="M226.571 249.208C225.561 248.401 223.164 245.942 222.724 245.261C222.455 244.847 222.446 244.72 222.652 244.289C222.83 243.915 223.035 243.78 223.486 243.737C224.043 243.683 224.244 243.84 226.447 246.041C227.746 247.341 228.81 248.543 228.81 248.713C228.81 249.089 228.043 249.891 227.684 249.891C227.543 249.891 227.042 249.584 226.571 249.208Z" fill="#FF0000"/>
<path d="M216.148 239.31C215.125 238.557 211.833 235.139 211.833 234.83C211.833 234.357 212.729 233.612 213.142 233.741C213.984 234.004 218.199 238.137 218.199 238.701C218.199 239.221 217.689 239.817 217.243 239.817C217.02 239.817 216.527 239.589 216.148 239.31Z" fill="#FF0000"/>
<path d="M209.279 232.886C208.901 232.346 208.933 231.943 209.39 231.518C209.878 231.064 210.905 231.035 211.233 231.467C211.57 231.91 211.532 232.645 211.156 232.986C210.672 233.423 209.616 233.367 209.279 232.886Z" fill="#FF0000"/>
<path d="M201.708 225.71C201.441 225.533 200.307 224.503 199.188 223.419C197.001 221.301 196.796 220.901 197.542 220.207C198.277 219.522 198.445 219.622 201.546 222.586C203.515 224.469 203.728 224.92 203.028 225.723C202.685 226.117 202.32 226.113 201.708 225.71Z" fill="#FF0000"/>
</g>
</g>
</g>
<g id="Mask group_5">
<mask id="mask5_890_1251" style="mask-type:alpha" maskUnits="userSpaceOnUse" x="136" y="156" width="313" height="314">
<circle id="rayMask_5" cx="292.426" cy="312.969" r="156.119" fill="#D9D9D9"/>
</mask>
<g mask="url(#mask5_890_1251)">
<path id="ray5" d="M271.362 257.087C269.88 255.957 269.539 254.054 268.75 252.472C267.001 248.47 265.331 244.435 263.687 240.39C261.964 236.393 260.533 232.277 258.777 228.294C257.767 225.274 256.254 222.458 255.155 219.474C254.84 218.195 253.307 215.417 255.177 215.358C256.748 215.309 257.02 217.875 257.749 219.179C259.244 222.668 260.565 226.223 262.08 229.698C263.488 233.163 265 236.588 266.378 240.068C268.021 243.835 269.486 247.678 270.962 251.514C271.526 253.03 272.316 254.5 272.644 256.115C272.948 256.889 271.99 257.415 271.362 257.087Z" fill="#FF0000"/>
</g>
</g>
<g id="Mask group_6">
<mask id="mask6_890_1251" style="mask-type:alpha" maskUnits="userSpaceOnUse" x="136" y="156" width="313" height="314">
<circle id="rayMask_6" cx="292.426" cy="312.969" r="156.119" fill="#D9D9D9"/>
</mask>
<g mask="url(#mask6_890_1251)">
<g id="ray6">
<path d="M302.096 250.247C301.272 250.062 301.139 249.925 301.139 249.263C301.139 248.572 301.646 247.947 302.208 247.947C302.407 247.947 302.772 248.15 303.021 248.398C303.371 248.749 303.446 248.955 303.355 249.326C303.174 250.069 302.734 250.391 302.096 250.247Z" fill="#FF0000"/>
<path d="M302.083 247.064C301.588 246.865 301.434 246.356 301.676 245.721C301.908 245.112 302.136 244.949 302.764 244.946C303.292 244.943 303.791 245.5 303.791 246.092C303.791 246.998 303.015 247.44 302.083 247.064Z" fill="#FF0000"/>
<path d="M302.677 244.285C301.999 244.183 301.763 243.54 302.103 242.725C302.334 242.173 302.426 242.115 303.069 242.115C303.836 242.115 304.145 242.431 304.145 243.213C304.145 243.707 303.68 244.423 303.383 244.386C303.267 244.372 302.949 244.326 302.677 244.285Z" fill="#FF0000"/>
<path d="M303.703 237.569C303.143 237.432 302.907 237.16 302.907 236.654C302.907 235.899 303.368 235.399 304.063 235.399C304.823 235.399 305.309 236.026 305.123 236.767C304.902 237.645 304.632 237.797 303.703 237.569Z" fill="#FF0000"/>
<path d="M303.662 234.118C303.313 233.673 303.304 233.06 303.607 230.29C303.941 227.239 304.18 226.563 304.925 226.563C305.155 226.563 305.53 226.713 305.757 226.897L306.169 227.231L305.873 230.151C305.711 231.757 305.458 233.357 305.312 233.705C305.081 234.258 304.97 234.339 304.441 234.339C304.108 234.339 303.757 234.24 303.662 234.118Z" fill="#FF0000"/>
<path d="M304.735 225.856C304.241 225.657 304.087 225.148 304.328 224.513C304.559 223.908 304.789 223.741 305.4 223.738C306.31 223.732 306.747 224.814 306.169 225.64C305.883 226.047 305.393 226.121 304.735 225.856Z" fill="#FF0000"/>
<path d="M306.267 218.04C305.552 217.843 305.389 217.647 305.386 216.975C305.382 216.375 305.946 215.782 306.52 215.782C307.114 215.782 307.736 216.597 307.592 217.188C307.404 217.961 306.978 218.235 306.267 218.04Z" fill="#FF0000"/>
<path d="M307.132 209.656C306.606 209.516 306.436 208.819 306.766 208.159C307.394 206.902 309.129 207.55 308.794 208.916C308.596 209.721 308.138 209.925 307.132 209.656Z" fill="#FF0000"/>
<path d="M307.429 205.961C307.007 205.538 307.072 204.547 307.544 204.216C308.401 203.616 309.45 204.097 309.45 205.09C309.45 206.076 308.118 206.65 307.429 205.961Z" fill="#FF0000"/>
<path d="M307.865 202.362C307.592 201.853 307.637 201.109 308.116 198.191C308.48 195.971 308.613 195.495 308.945 195.226C309.613 194.684 310.688 195.181 310.688 196.031C310.688 196.927 309.76 201.949 309.53 202.301C309.183 202.829 308.136 202.868 307.865 202.362Z" fill="#FF0000"/>
</g>
</g>
</g>
<g id="Mask group_7">
<mask id="mask7_890_1251" style="mask-type:alpha" maskUnits="userSpaceOnUse" x="136" y="156" width="313" height="314">
<circle id="rayMask_7" cx="292.426" cy="312.969" r="156.119" fill="#D9D9D9"/>
</mask>
<g mask="url(#mask7_890_1251)">
<path id="ray7" d="M327.957 262.852C327.22 261.385 328.912 259.832 329.509 258.495C333.735 252.428 338.116 246.47 342.345 240.405C345.867 235.432 349.346 230.416 353.132 225.641C353.637 224.619 355.791 223.936 355.271 225.773C354.834 227.44 353.487 228.644 352.754 230.169C351.447 231.853 350.162 233.567 349.091 235.403C347.793 237.072 346.724 238.914 345.327 240.506C344.493 241.901 343.536 243.262 342.497 244.527C340.963 246.763 339.224 248.871 337.769 251.145C335.017 254.512 332.862 258.316 330.132 261.696C329.601 262.245 328.844 263.316 327.957 262.852Z" fill="#FF0000"/>
</g>
</g>
<g id="Mask group_8">
<mask id="mask8_890_1251" style="mask-type:alpha" maskUnits="userSpaceOnUse" x="136" y="156" width="313" height="314">
<circle id="rayMask_8" cx="292.426" cy="312.969" r="156.119" fill="#D9D9D9"/>
</mask>
<g mask="url(#mask8_890_1251)">
<g id="ray8">
<path d="M345.956 276.024C345.686 275.503 345.69 275.444 346.014 275.008C346.452 274.419 347.599 274.263 347.951 274.744C348.238 275.136 348.247 276.086 347.967 276.366C347.85 276.483 347.415 276.578 346.999 276.578C346.331 276.578 346.21 276.514 345.956 276.024Z" fill="#FF0000"/>
<path d="M349.097 274.097C348.23 273.29 348.664 272.694 351.628 270.621C354.024 268.944 354.446 268.737 354.891 269.015C355.085 269.136 355.335 269.458 355.449 269.732C355.631 270.17 355.605 270.284 355.233 270.681C354.753 271.195 351.211 273.724 350.354 274.166C349.635 274.537 349.564 274.533 349.097 274.097Z" fill="#FF0000"/>
<path d="M359.948 266.48C359.363 266.02 359.376 265.447 359.984 264.876C360.654 264.246 364.596 261.717 365.16 261.555C365.681 261.406 366.048 261.611 366.383 262.241C366.725 262.881 366.243 263.378 363.675 265.031C360.889 266.824 360.552 266.955 359.948 266.48Z" fill="#FF0000"/>
<path d="M368.089 261.548C367.478 261.366 367.285 261.106 367.281 260.462C367.276 259.503 368.919 259.029 369.479 259.828C369.883 260.405 369.816 260.952 369.288 261.366C368.774 261.771 368.814 261.765 368.089 261.548Z" fill="#FF0000"/>
<path d="M370.813 259.469C369.982 258.797 370.563 257.491 371.692 257.491C372.315 257.491 372.761 257.991 372.761 258.688C372.761 259.66 371.616 260.119 370.813 259.469Z" fill="#FF0000"/>
<path d="M377.221 255.272C376.667 254.885 376.708 254.135 377.314 253.568C377.983 252.942 381.941 250.433 382.467 250.3C382.703 250.241 383.022 250.273 383.178 250.37C383.588 250.627 383.839 251.436 383.622 251.801C383.278 252.379 378.315 255.547 377.754 255.547C377.677 255.547 377.437 255.423 377.221 255.272Z" fill="#FF0000"/>
<path d="M385.569 249.453C385.064 248.949 385.038 248.702 385.428 248.145C385.759 247.672 389.914 244.923 390.71 244.649C391.4 244.412 391.631 244.506 391.969 245.16C392.228 245.661 392.224 245.729 391.905 246.16C391.523 246.676 387.396 249.395 386.544 249.692C386.064 249.859 385.947 249.831 385.569 249.453Z" fill="#FF0000"/>
<path d="M393.881 243.974C393.003 243.097 393.332 242.679 396.522 240.619C399.474 238.712 399.745 238.645 400.283 239.686C400.539 240.181 400.535 240.251 400.217 240.681C399.835 241.197 395.708 243.917 394.856 244.213C394.375 244.381 394.259 244.352 393.881 243.974Z" fill="#FF0000"/>
<path d="M405.3 236.283C404.503 235.487 404.964 234.916 407.986 232.961C410.246 231.499 410.889 231.205 411.29 231.453C411.687 231.7 412.045 232.478 411.916 232.814C411.801 233.113 408.838 235.18 407.231 236.082C406.077 236.731 405.779 236.762 405.3 236.283Z" fill="#FF0000"/>
</g>
</g>
</g>
<g id="Mask group_9">
<mask id="mask9_890_1251" style="mask-type:alpha" maskUnits="userSpaceOnUse" x="136" y="156" width="313" height="314">
<circle id="rayMask_9" cx="292.426" cy="312.969" r="156.119" fill="#D9D9D9"/>
</mask>
<g mask="url(#mask9_890_1251)">
<path id="ray9" d="M352.487 293.172C354.5 291.573 357.147 291.168 359.533 290.369C365.426 288.678 371.267 286.82 377.144 285.071C382.535 283.422 387.963 281.901 393.384 280.361C394.476 279.741 396.821 280.522 395.262 281.857C394.142 282.863 392.541 282.901 391.219 283.526C389.143 284.073 387.102 284.727 385.087 285.462C382.163 286.318 379.255 287.235 376.317 288.047C371.265 289.525 366.2 290.951 361.158 292.46C358.631 293.251 356.118 294.191 353.506 294.625C352.668 294.718 351.657 293.996 352.487 293.172Z" fill="#FF0000"/>
</g>
</g>
</g>
<defs>
<clipPath id="clip0_890_1251">
<rect width="569" height="638" fill="white"/>
</clipPath>
</defs>
</svg>
