<svg width="144" height="261" viewBox="0 0 144 261" fill="none" xmlns="http://www.w3.org/2000/svg">
<g id="Kakje2">
<path id="kakje0" d="M94.7814 26.4313C94.9756 36.4997 92.2881 39.1192 88.1363 38.8287C87.4897 37.7589 80.0895 39.4039 85.7684 33.6926C91.4474 27.9814 85.3013 29.7517 87.0464 22.8925C88.7916 16.0332 83.6815 18.7867 86.3771 12.5251C89.0726 6.26342 91.1833 10.2435 94.6808 13.1063C98.1782 15.9691 94.5871 16.3628 94.7814 26.4313Z" fill="#FF0000" stroke="#FF0000" stroke-linecap="round"/>
<path id="speedje3" d="M87.11 114.5C86.11 92 92.11 50.5 97.61 40" stroke="#FF0000" stroke-linecap="round"/>
<path id="speedje2" d="M77.5002 128.5C76.5002 106 82.5002 64.5 88.0002 54" stroke="#FF0000" stroke-linecap="round"/>
<path id="speedje1" d="M72.11 101.5C71.11 79 77.11 37.5 82.61 27" stroke="#FF0000" stroke-linecap="round"/>
<path id="kakje3" d="M95 256C97.6115 250.197 93.5 253.5 91.5 246.5C88.29 235.265 79.2413 246.5 73 246.5C64.1024 246.5 59.1861 245.411 50.9999 242C46.2064 240.003 45.9568 265.634 58 256C62.5362 252.371 71.0479 263.291 77 258C81.5 254 90.5 266 95 256Z" fill="#FF0000" stroke="#FF0000" stroke-linecap="round"/>
<path id="splashL2" d="M53.5319 251.838C50.9638 249.681 50.3062 249.421 49.1144 246.667C47.9217 244.459 50.7372 241.606 54.4835 242.709C58.2297 243.811 57.0656 248.674 58.2573 251.427C59.4491 254.18 62.401 253.447 60.6408 256.933C58.8807 260.419 57.8877 258.125 53.5319 251.838Z" fill="#FF0000" stroke="#FF0000" stroke-linecap="round"/>
<path id="splashL1" d="M63.907 251.243C65.1071 254.643 63.4071 255.243 60.3072 256.043C58.7072 254.843 61.107 249.143 60.3069 246.043C59.5068 242.943 62.707 247.843 63.907 251.243Z" fill="#FF0000" stroke="#FF0000" stroke-linecap="round"/>
<path id="splashR1" d="M81.4234 250.362C78.8742 251.943 79.665 253.218 80.9242 257.144C82.7653 256.002 86.5355 252.721 86.8877 248.736C87.3279 243.756 88.2213 246.144 85.7899 244.122C83.3585 242.1 83.9726 248.78 81.4234 250.362Z" fill="#FF0000" stroke="#FF0000" stroke-linecap="round"/>
<path id="splashR2" d="M89.8644 252.009C90.1013 255.907 85.4213 258.051 82.2224 258.181C81.6063 256.487 82.7911 254.876 85.1606 251.653L85.1609 251.653C87.5305 248.431 85.5166 246.95 87.5901 244.13C89.2488 241.874 91.4168 243.427 92.2935 244.485C91.4048 245.694 89.675 248.89 89.8644 252.009Z" fill="#FF0000" stroke="#FF0000" stroke-linecap="round"/>
<path id="bounceRight1" d="M91 230C96.5 220 99 215 102 215" stroke="#FF0000" stroke-linecap="round"/>
<path id="bounceRight2" d="M97.5 237C103.5 226 114.5 221.5 119.5 221.5" stroke="#FF0000" stroke-linecap="round"/>
<path id="bounceLeft1" d="M46.5 230.5C36.1 215.3 27.5 212.5 24.5 213" stroke="#FF0000" stroke-linecap="round"/>
<path id="bounceLeft2" d="M60.5 230.5C59.5 219.5 62 217 56.5 210.5C51 204 50 200.5 40 198" stroke="#FF0000" stroke-linecap="round"/>
<path id="alongPathR1" d="M85 251C85 235 94.5 219 108 212.5" stroke="black"/>
<path id="alongPathR2" d="M89 251.5C93 234.5 106.5 221.5 133.5 219.5" stroke="black"/>
<path id="alongPathL2" d="M55.5 249.5C55.5 233 28.5 210.5 9.5 210.5" stroke="black"/>
<path id="alongPathL1" d="M62 251C62 235 51.5 219.5 44 214" stroke="black"/>
</g>
</svg>
