<svg width="39" height="235" viewBox="0 0 39 235" fill="none" xmlns="http://www.w3.org/2000/svg">
<g id="Kakje1">
<g id="Kakje1_2">
<path id="anus" d="M32.4404 1.00143C29.3609 1.00143 29.7462 3.27722 30.3879 5.5718C30.9837 7.70227 32.6576 8.9993 34.4939 9C36.5466 9.00078 37.0599 7.85765 37.5729 6.71518C38.0859 5.5727 38.0475 4.87424 37.5729 3.28811C36.8475 0.863833 35.5198 1.00143 32.4404 1.00143Z" stroke="#FF0000" stroke-linecap="round"/>
<path id="kak1" d="M32.2673 10.0463C30.4921 8.81613 28.8616 8.32526 29.7593 7.02991C30.657 5.73456 31.9985 4.74677 31.8539 4.00743C31.7094 3.2681 34.0931 1.72428 35.2698 3.81805C36.4464 5.91182 35.2495 7.63899 36.137 8.25409C37.0246 8.86919 36.5706 10.4721 35.3839 10.2888C34.1971 10.1054 33.1744 10.6333 32.2673 10.0463Z" fill="#FF0000"/>
<path id="kak2" d="M22.9437 24.5001C20.9437 21.5001 22.9454 22.5001 22.9437 19.0001C22.9421 15.8134 28.7198 11.7035 31.5 14.5C32.4971 15.5029 32.4435 16.5001 30.9435 19.0001C29.4435 21.5001 32.4435 23.0001 30.9435 24.5001C29.4435 26.0001 28.9437 27.0001 26.9435 27.5001C24.9432 28.0001 24.0001 26.0848 22.9437 24.5001Z" fill="#FF0000"/>
<path id="kak3" d="M17.7605 58.9673C19.7555 49.0966 22.9473 47.1226 26.9372 48.3071C27.3363 49.4917 34.9171 49.4915 28.1342 53.8345C21.3514 58.1776 27.7352 57.7829 24.5433 64.1001C21.3514 70.4173 26.9372 68.8381 22.9473 74.3658C18.9573 79.8934 17.7604 75.5502 14.9675 71.9967C12.1745 68.4432 15.7655 68.8381 17.7605 58.9673Z" fill="#FF0000"/>
<path id="kak4" d="M19.5002 62.0001C20.9998 58.0001 17.8152 57.3585 20.8091 52.1656C22.0061 49.3585 24.6249 47.4909 30.5 53.0001C32.8091 55.1654 25.8776 57.0594 26.5999 64.1002C26.9999 68 24.5001 68.9184 24.5001 73C24.5001 78.5 20.3171 77.5502 17.5242 73.9968C14.7313 70.4433 17.8885 66.2989 19.5002 62.0001Z" fill="#FF0000"/>
<path id="speed3" d="M23.11 103.5C22.11 81 28.11 39.5 33.61 29" stroke="#FF0000" stroke-linecap="round"/>
<path id="speed2" d="M13.5002 117.5C12.5002 95 18.5002 53.5 24.0002 43" stroke="#FF0000" stroke-linecap="round"/>
<path id="speed1" d="M8.11005 90.5C7.11005 68 13.11 26.5 18.61 16" stroke="#FF0000" stroke-linecap="round"/>
</g>
</g>
</svg>
