<svg width="144" height="260" viewBox="0 0 144 260" fill="none" xmlns="http://www.w3.org/2000/svg">
<g id="Kakje2">
<path id="speedje3" d="M87.11 114.5C86.11 92 92.11 50.5 97.61 40" stroke="#FF0000" stroke-linecap="round"/>
<path id="speedje2" d="M77.5002 128.5C76.5002 106 82.5002 64.5 88.0002 54" stroke="#FF0000" stroke-linecap="round"/>
<path id="speedje1" d="M72.11 101.5C71.11 79 77.11 37.5 82.61 27" stroke="#FF0000" stroke-linecap="round"/>
<path id="kakje0" d="M87.5657 29.4585C87.5655 31.4585 85.0658 33.2904 87.5657 34.5C90.5658 35.9516 89.9328 36.5 92.5 36.5C96.0622 36.5 94.5654 33.9926 94.5654 31.5C94.5654 28.146 96.0655 28.5 96.5654 27C97.1354 25.2897 96.0654 24.4585 96.5654 22.9585C96.7235 22.4842 98.5 22 98 19.5C97.7158 18.0792 98.0654 15.5418 96.5654 14C95.0654 12.4582 96.2789 10.5651 94.0654 9.45859C92.0654 8.4588 90.3031 9.00798 89.5654 11.9585C89.0654 13.9584 88.0654 12.0003 88.5654 18C88.6844 19.428 89.0653 22.5144 87.5654 23.5144C86.6015 24.157 88.5656 24.8403 88.5654 25.9585C88.5652 27.41 87.5659 26.9584 87.5657 29.4585Z" fill="#FF0000" stroke="#FF0000" stroke-linecap="round"/>
<path id="kakje1" d="M67.5005 229C67.5003 231 67.0001 232.29 69.5 233.5C72.5001 234.952 68.933 237.5 71.5002 237.5C75.0625 237.5 73 232.993 73 230.5C73 227.146 75.5002 227 76.0002 225.5C76.5702 223.79 76.0002 224 76.5002 222.5C76.6583 222.026 76.5002 221.5 76.0002 219C75.716 217.579 76.0002 215.542 74.5002 214C73.0002 212.458 76.2137 210.107 74.0002 209C72.0002 208 70.2379 208.549 69.5002 211.5C69.0002 213.5 66.5003 212.556 67.0003 218.556C67.1193 219.984 69.0001 222.056 67.5002 223.056C66.5362 223.699 68.5004 224.382 68.5002 225.5C68.5 226.951 67.5007 226.5 67.5005 229Z" fill="#FF0000" stroke="#FF0000" stroke-linecap="round"/>
<path id="kakje2" d="M60.5 251C60.4998 253 64.0002 255.29 66.5001 256.5C69.5002 257.952 68.4998 255.548 71.0671 255.548C74.6293 255.548 73.4998 253.5 79.5001 254.451C82.8128 254.977 84.0001 252.952 84.5001 251.451C85.0701 249.741 83.6267 248.452 82.5001 248.451C82.0001 248.451 77.9999 245.5 77.4999 243C77.2158 241.579 77 240.042 75.5 238.5C74 236.958 77.7134 233.106 75.5 232C73.5 231 75.0001 228 72.0001 228.5C69.1236 228.979 66.0001 234 66.5001 240C66.6191 241.428 68.4999 243.5 67 244.5C66.036 245.143 65.0001 246.5 64 247C62.4621 247.769 60.5002 248.5 60.5 251Z" fill="#FF0000" stroke="#FF0000" stroke-linecap="round"/>
<path id="kakje3" d="M51.4998 251C51.9328 255.451 53.3213 258.047 59.567 255.549C64.567 253.549 65.7852 255.328 71.0671 255.549C77.8952 255.834 77.2867 252.894 85.5 257C88.5 258.5 90 255.5 90.5 254C91.07 252.29 89.6266 251 88.5 251C88 251 87.4329 249.971 86.5 249.5C85.9329 249.214 85.1448 249.663 84.5 249C83.8552 248.337 82 249 79.5669 248.549C72.1276 247.168 70.2302 250.551 67.5 246C65.9998 243.499 62 245 61 245C59.567 245 58.921 245.61 58 246C56.933 246.452 54.9331 245.951 53.933 246.452C52.3951 247.221 51.2578 248.512 51.4998 251Z" fill="#FF0000" stroke="#FF0000" stroke-linecap="round"/>
<path id="kakje4" d="M52.5672 248.548C52.1721 256.348 53.3214 258.047 59.567 255.548C64.567 253.548 65.7852 255.328 71.0671 255.548C77.8953 255.833 77.567 252.048 86.5672 257.048C92.8252 260.525 88.4999 254.5 90 251C91.5277 247.436 94.7966 241.297 94 240.5C91.7853 238.285 90.5266 253 86.5672 251C81.6179 248.5 89.9593 236.5 88.5 235C87.0407 233.5 84.9804 248.007 79.567 248.548C72.0381 249.301 65.7972 250.1 63.067 245.548C61.5668 243.048 62.7001 230.1 61.5 231C60.2999 231.9 63.0449 242.022 58.567 246.048C55.8663 248.476 50.013 230.918 48.0001 233C46.8048 234.236 53.0002 240 52.5672 248.548Z" fill="#FF0000" stroke="#FF0000" stroke-linecap="round"/>
<path id="kakje5" d="M55.5 245C56.5002 247.5 56.5178 250.982 60 247.5C63 244.5 66.7181 249.28 72 249.5C78.8281 249.785 81.1445 248.596 84 250.5C85.5 251.5 89.2291 255.301 89 251.5C88.7589 247.5 97.4706 235.781 97 235C95.7952 233 88.4255 250.687 86 250.5C79.5 250 92 231 91 229C90 227 83.9291 247.599 79 248.5C71.5569 249.861 65.5291 248.082 64.0003 243C63.2459 240.492 62.6635 222.245 61.0003 223.5C60.4323 223.929 64.8057 241.236 59.5003 245.5C56.6696 247.775 47.4294 227.482 46.0003 230C45.5023 230.877 54.5579 242.645 55.5 245Z" fill="#FF0000" stroke="#FF0000" stroke-linecap="round"/>
<path id="splashL2" d="M53.5319 251.838C50.9638 249.681 50.3062 249.421 49.1144 246.667C47.9217 244.459 50.7372 241.606 54.4835 242.709C58.2297 243.811 57.0656 248.674 58.2573 251.427C59.4491 254.18 62.401 253.447 60.6408 256.933C58.8807 260.419 57.8877 258.125 53.5319 251.838Z" fill="#FF0000" stroke="#FF0000" stroke-linecap="round"/>
<path id="splashL1" d="M63.907 251.243C65.1071 254.643 63.4071 255.243 60.3072 256.043C58.7072 254.843 61.107 249.143 60.3069 246.043C59.5068 242.943 62.707 247.843 63.907 251.243Z" fill="#FF0000" stroke="#FF0000" stroke-linecap="round"/>
<path id="splashR1" d="M81.4234 250.362C78.8742 251.943 79.665 253.218 80.9242 257.144C82.7653 256.002 86.5355 252.721 86.8877 248.736C87.3279 243.756 88.2213 246.144 85.7899 244.122C83.3585 242.1 83.9726 248.78 81.4234 250.362Z" fill="#FF0000" stroke="#FF0000" stroke-linecap="round"/>
<path id="splashR2" d="M89.8644 252.009C90.1013 255.907 85.4213 258.051 82.2224 258.181C81.6063 256.487 82.7911 254.876 85.1606 251.653L85.1609 251.653C87.5305 248.431 85.5166 246.95 87.5901 244.13C89.2488 241.874 91.4168 243.427 92.2935 244.485C91.4048 245.694 89.675 248.89 89.8644 252.009Z" fill="#FF0000" stroke="#FF0000" stroke-linecap="round"/>
<path id="bounceRight1" d="M92 228C92.6825 226.759 93.9167 225.955 94.5 225C95.2928 223.702 94.8529 222.365 95.5 221.5C96.4246 220.263 98.2659 220.127 99 219.5C100.42 218.287 100.101 217.199 101.5 216.5" stroke="#FF0000" stroke-linecap="round"/>
<path id="bounceRight2" d="M98 233C98.8088 231.787 99.5289 230.496 100.5 229.5C101.537 228.436 102.836 228.34 104 227.5C105.288 226.57 106.135 225.187 107.5 224.5C108.736 223.878 110.764 223.949 112 223.5C115.791 222.122 115.856 220.876 120 221C121.619 221.048 123.057 220.5 124 220.5" stroke="#FF0000" stroke-linecap="round"/>
<path id="bounceLeft1" d="M40 198C42.4877 198.622 43.4184 200.224 45 201C46.7283 201.849 49.0397 201.89 50.2054 203C51.3587 204.098 51.3693 205.568 52.5 207C53.3846 208.121 55.8427 208.632 57 210C58.5488 211.83 57.9632 213.525 58.5 215C59.3371 217.3 60.5255 217.327 60.5 220.5" stroke="#FF0000" stroke-linecap="round"/>
<path id="bounceLeft2" d="M44.5 228.5C43.3078 226.758 43.6392 224.93 42.5 223.5C40.8756 221.46 38.9883 222.472 37.5 221C34.91 218.438 34.5402 216.174 32.5 215C31.3041 214.312 29.6691 214.326 28.5 214C26.6021 213.471 25.3121 212.865 24.5 213" stroke="#FF0000" stroke-linecap="round"/>
<path id="alongPathR1" d="M85 251C85 235 94.5 219 108 212.5" stroke="black"/>
<path id="alongPathR2" d="M89 251.5C93 234.5 106.5 221.5 133.5 219.5" stroke="black"/>
<path id="alongPathL2" d="M55.5 249.5C55.5 233 28.5 210.5 9.5 210.5" stroke="black"/>
<path id="alongPathL1" d="M62 251C68.2292 222.847 53.4638 199.917 36 197" stroke="black"/>
</g>
</svg>
