<svg width="1782" height="1982" viewBox="0 0 1782 1982" fill="none" xmlns="http://www.w3.org/2000/svg">
<g id="legFlowerDrop">
<g id="legNMask">
<mask id="mask0_876_624" style="mask-type:alpha" maskUnits="userSpaceOnUse" x="867" y="-5" width="655" height="1412">
<g id="Group">
<path id="Subtract" fill-rule="evenodd" clip-rule="evenodd" d="M1522 -5H867V1407H1522V-5ZM1400.5 942.5C1401.44 937.77 1400.5 931 1400.5 931L1376.5 918.5L1297.5 925C1297.47 925.42 1297.44 925.86 1297.41 926.32C1297.18 929.48 1296.91 933.18 1297.5 936L1331.5 959L1397 976C1398.84 973.91 1398.31 970.83 1398.08 969.48C1398.04 969.28 1398.01 969.12 1398 969C1398.65 967.82 1407.57 980.99 1399 984.5C1399 985.7 1375 985 1363 984.5L1314.5 969.5L1298 974.5C1298.4 977.7 1298.83 981.83 1299 983.5L1306.5 987L1392 1020C1391.88 1017.47 1391.91 1015.81 1392 1012.5C1397.74 1012.78 1399.95 1023.91 1393 1029C1390.11 1031.11 1375.33 1029.67 1367.5 1028L1324 1020L1296 1025.5C1296 1027.5 1296 1030.5 1297 1032L1300.5 1035L1345.5 1042L1388.5 1043.5C1389.55 1042.38 1389.5 1040.5 1389 1039C1393.77 1039.79 1394.16 1046.66 1389.5 1051.5C1387.21 1053.88 1372.83 1060.17 1365 1062.5L1294 1064L1299 1091L1299.5 1097L1301 1099L1302 1100L1352 1113L1356.5 1134.5L1346.5 1144.5L1344 1141C1343.82 1139.56 1343.78 1137.94 1343.75 1136.67C1343.72 1135.24 1343.7 1134.26 1343.5 1134.5C1343.18 1134.9 1341.65 1134.3 1339.99 1133.65C1338.74 1133.16 1337.43 1132.64 1336.5 1132.5L1295 1128.5L1279.5 1146C1279.61 1146.95 1279.69 1147.85 1279.77 1148.72C1280.24 1154.04 1280.56 1157.64 1287 1158.5C1294 1159 1312.22 1157.53 1308 1146L1296 1149.5L1296.01 1149.58C1296.24 1152.85 1296.47 1155.98 1293 1154C1292.02 1152.44 1291.55 1147.63 1293 1144C1293.8 1142 1299.33 1140.17 1300.5 1140L1318 1138L1341 1143.5L1348 1154.5L1347.5 1173.5L1344 1165C1344 1162.5 1344 1160 1342.5 1157.5C1341.39 1155.65 1337.47 1154.51 1334.65 1153.69C1334.42 1153.62 1334.21 1153.56 1334 1153.5L1306 1156.5L1292 1160.5L1283 1168.5L1277.5 1183L1286.5 1196.5C1301.63 1196.65 1307 1182.5 1293.5 1183C1292.81 1184.43 1293 1185.67 1293.5 1188C1288.57 1184.74 1288.07 1181.62 1291.5 1177.5C1293.53 1175.06 1293.16 1173.11 1292.97 1172.15C1292.9 1171.77 1292.86 1171.55 1293 1171.5L1308.5 1169L1323 1171.5L1336 1184.5L1343 1188L1377 1172.5L1440.5 1029L1400.5 942.5Z" fill="#D9D9D9"/>
</g>
</mask>
<g mask="url(#mask0_876_624)">
<g id="Group_2">
<path id="fullLeg" d="M935.551 1L1156.55 469.5C1198.05 557.5 1276.55 531 1299.55 574.5C1326.75 625.941 1250.55 661 1271.05 697C1290.25 730.72 1357.55 729.5 1337.05 765.5C1316.55 801.5 1315.55 819 1325.55 841C1349.67 897.47 1407.55 908 1396.05 937C1393.05 943.5 1383.63 930.11 1373.55 934L1367.05 934.87L1346.05 937.5L1325.55 925.5L1308.05 934.87C1301.13 931.32 1290.38 923.22 1289.55 930.5C1285.55 965.5 1389.66 991.33 1392.86 975.2C1393.7 971 1387.99 972.27 1381.05 969.5C1400.27 962.51 1407.73 960.31 1396.55 992.5L1367.05 997.5L1346.05 990L1336.55 992.5L1317.05 981.5L1308.05 984C1302.42 980.44 1294.56 970.67 1291.55 979C1283.05 1002.5 1384.05 1039.73 1387.68 1019.93C1388.31 1016.5 1382.69 1015.95 1378.55 1015C1387.09 1004.75 1393.62 1008.03 1396.55 1027L1372.55 1035L1336.55 1027L1325.55 1037L1302.55 1027C1297.28 1027.41 1288.55 1024.53 1288.55 1030.5C1288.55 1055 1379.04 1060.58 1383.74 1042.91C1384.64 1039.5 1372.97 1042.37 1375.05 1041C1375.2 1037.14 1391.27 1031.98 1398.55 1039.5L1387.68 1065.5L1362.55 1069.5L1342.55 1076L1317.05 1069.5L1308.05 1080L1294.05 1097.5C1284.68 1119.99 1347.05 1115.5 1338.05 1138C1335.57 1142.21 1329.93 1140.74 1326.55 1137.5L1312.05 1133.5L1302.55 1136.5H1290.76L1277.55 1147C1278.41 1160.02 1298.65 1160.33 1300.05 1148C1299.55 1146 1287.55 1162 1288.55 1149C1289.55 1136 1341.05 1140.5 1338.55 1160.5C1338.23 1163.2 1337.35 1164.78 1327.55 1168.5L1328.55 1164.5L1315.05 1159L1304.05 1162L1290.76 1160.24L1283.05 1168.5L1275.05 1179.5C1275.72 1188.48 1289.62 1198.69 1292.05 1187C1288.3 1187.25 1285.29 1186 1285.05 1183C1283.55 1164.5 1346.05 1172 1317.05 1206C1288.05 1240 1247.55 1346 1285.05 1337.5C1322.55 1329 1215.55 1251.46 1107.55 1279.5C1029.05 1299.88 967.048 1364 967.048 1383.5C960.552 1352.5 955.052 1308.5 955.552 1288C955.58 1286.86 962.552 1276.5 964.552 1279.5C966.552 1282.5 955.254 1289.75 955.052 1287C952.848 1257 948.598 1237.5 946.052 1230.5C944.675 1226.71 936.164 1235.5 938.164 1237.5C940.926 1240.26 947.611 1231.36 945.665 1229.5C945.665 1228 948.165 1218.5 952.165 1220C956.165 1221.5 945.108 1231.01 944.665 1228.5C938.164 1209.5 918.617 1204.56 910.117 1207.56C910.127 1203.53 902.26 1200.16 900.017 1204.06C897.151 1209.05 902.163 1213.37 904.396 1213.5C906.454 1213.62 909.172 1210.23 909.552 1207.56C921.552 1206.68 919.552 1191.18 907.052 1204.06C916.458 1193.36 903.052 1189.18 903.552 1202.68C899.552 1190.68 886.052 1202.18 899.552 1206.68C885.369 1207.04 891.053 1218.38 900.552 1210.18C890.552 1221.68 909.552 1225.68 907.052 1212.18C911.896 1223.22 926.763 1207.55 910.117 1208.18" stroke="#FF0000" stroke-width="2" stroke-linecap="round"/>
</g>
</g>
</g>
<path id="droplet0" d="M917 1209.92C917 1212.06 914.555 1214 912.295 1214C910.036 1214 908 1212.06 908 1209.92C908 1207.77 910.445 1207 912.705 1207C914.964 1207 917 1207.77 917 1209.92Z" fill="#FF0000"/>
<path id="droplet0a" d="M916.679 1213.22C913.377 1216.6 913.18 1222.73 912.288 1222.97C911.225 1223.27 911.54 1220.89 910.637 1220.58C908.385 1219.81 912.826 1218.47 912.826 1214.35C912.826 1208.74 918.371 1211.49 916.679 1213.22Z" fill="#FF0000"/>
<path id="droplet1" d="M915.38 1221.34C916.34 1224.46 913.978 1228.84 908.478 1228.84C902.978 1228.84 901.522 1224.48 902.38 1221.34C903.88 1215.84 905.617 1219.84 908.88 1219.84C912.144 1219.84 913.38 1214.84 915.38 1221.34Z" fill="#FF0000"/>
<path id="droplet2" d="M916 1222.84C917.357 1227.15 915.723 1233.34 907.946 1233.34C900.169 1233.34 898.885 1226.34 901 1222.34C904.5 1215.72 903.9 1220.88 908.515 1220.88C913.129 1220.88 913.172 1213.84 916 1222.84Z" fill="#FF0000"/>
<path id="droplet3" d="M915.909 1229.91C917.266 1234.23 915.632 1240.41 907.855 1240.41C900.078 1240.41 898.795 1233.41 900.909 1229.41C903.024 1225.42 905 1225.84 907.5 1225.34C910 1224.84 914.47 1225.34 915.909 1229.91Z" fill="#FF0000"/>
<path id="droplet4" d="M915.5 1249.94C915.5 1254.8 911.694 1258.75 907 1258.75C902.306 1258.75 900 1254.8 900 1249.94C900 1245.07 908.5 1231.75 908.5 1236.25C908.5 1240.75 915.5 1245.75 915.5 1249.94Z" fill="#FF0000"/>
<path id="droplet5" d="M919.505 1256C918.963 1257.36 893.922 1259.61 894.5 1256.5C894.5 1252 904.232 1257.93 903.5 1255C901 1245 914.5 1248 911 1253.5C907.5 1259 921.213 1251.72 919.505 1256Z" fill="#FF0000"/>
<path id="droplet5b" d="M910.5 1256.25C910.5 1257.17 908.462 1258 906.58 1258C904.697 1258 903 1257.17 903 1256.25C903 1255.33 905.038 1255 906.92 1255C908.803 1255 910.5 1255.33 910.5 1256.25Z" fill="#FF0000"/>
<path id="droplet6" d="M912.5 1975.74C912.5 1978.96 909.647 1981.87 907.011 1981.87C904.375 1981.87 902 1978.96 902 1975.74C902 1972.52 904.853 1971.37 907.489 1971.37C910.125 1971.37 912.5 1972.52 912.5 1975.74Z" fill="#FF0000"/>
<path id="droplet7" d="M910.5 1980.12C910.5 1981.04 908.462 1981.87 906.58 1981.87C904.697 1981.87 903 1981.04 903 1980.12C903 1979.2 905.038 1978.87 906.92 1978.87C908.803 1978.87 910.5 1979.2 910.5 1980.12Z" fill="#FF0000"/>
</g>
</svg>
