<svg width="569" height="1572" viewBox="0 0 569 1572" fill="none" xmlns="http://www.w3.org/2000/svg">
<g id="legNMaskMobile" clip-path="url(#clip0_893_1468)">
<g id="leg">
<mask id="mask0_893_1468" style="mask-type:alpha" maskUnits="userSpaceOnUse" x="-57" y="-113" width="573" height="1194">
<g id="Group">
<path id="Subtract" fill-rule="evenodd" clip-rule="evenodd" d="M504.5 -113L-57 -113L-46 1080.5H515.5L504.5 -113ZM342.921 597.263C343.626 593.718 342.921 588.643 342.921 588.643L324.931 579.273L265.711 584.145C265.688 584.46 265.666 584.79 265.643 585.134C265.471 587.503 265.268 590.277 265.711 592.391L291.198 609.632L340.298 622.376C341.677 620.809 341.28 618.5 341.107 617.488C341.077 617.338 341.055 617.218 341.047 617.128C341.535 616.244 348.221 626.116 341.797 628.747C341.797 629.647 323.806 629.122 314.811 628.747L278.454 617.503L266.085 621.251C266.385 623.65 266.708 626.746 266.835 627.998L272.457 630.621L336.55 655.359C336.46 653.462 336.482 652.218 336.55 649.737C340.852 649.947 342.509 658.29 337.299 662.105C335.133 663.687 324.053 662.608 318.184 661.356L285.576 655.359L264.586 659.482C264.586 660.981 264.586 663.23 265.336 664.354L267.96 666.603L301.692 671.85L333.926 672.975C334.713 672.135 334.676 670.726 334.301 669.602C337.876 670.194 338.169 675.344 334.676 678.972C332.959 680.756 322.179 685.471 316.31 687.218L263.087 688.342L266.835 708.582L267.21 713.079L268.334 714.579L269.084 715.328L306.565 725.073L309.938 741.19L302.442 748.686L300.568 746.063C300.433 744.983 300.403 743.769 300.381 742.817C300.358 741.745 300.343 741.01 300.193 741.19C299.953 741.49 298.806 741.04 297.562 740.553C296.625 740.186 295.643 739.796 294.946 739.691L263.837 736.692L252.218 749.811C252.3 750.523 252.36 751.197 252.42 751.85C252.772 755.838 253.012 758.536 257.84 759.181C263.087 759.556 276.745 758.454 273.582 749.811L264.586 752.434L264.594 752.494C264.766 754.945 264.939 757.292 262.337 755.808C261.603 754.638 261.25 751.033 262.337 748.311C262.937 746.812 267.082 745.44 267.96 745.313L281.078 743.814L298.319 747.937L303.566 756.182L303.192 770.425L300.568 764.053C300.568 762.179 300.568 760.305 299.443 758.431C298.611 757.044 295.673 756.19 293.559 755.575C293.387 755.523 293.229 755.478 293.072 755.433L272.082 757.682L261.588 760.68L254.841 766.677L250.718 777.547L257.465 787.666C268.807 787.779 272.832 777.172 262.712 777.547C262.195 778.618 262.337 779.548 262.712 781.295C259.017 778.851 258.642 776.512 261.213 773.424C262.735 771.595 262.457 770.133 262.315 769.413C262.262 769.128 262.232 768.963 262.337 768.926L273.956 767.052L284.826 768.926L294.571 778.671L299.818 781.295L325.305 769.676L372.906 662.105L342.921 597.263Z" fill="#D9D9D9"/>
</g>
</mask>
<g mask="url(#mask0_893_1468)">
<g id="Group_2">
<path id="fullLeg" d="M238.404 1037.05C243.885 1004.5 186.859 1009.82 227.5 964.708C269.248 918.364 196.806 862.094 197.5 891C198.321 925.174 285.203 862 285.203 794.788C306.942 769.301 260.091 763.679 261.216 777.547C261.396 779.795 263.652 780.733 266.463 780.545C264.641 789.308 254.222 781.655 253.72 774.923L259.716 766.677L265.496 760.485L275.458 761.805L283.704 759.556L293.824 763.679L293.074 766.677C300.421 763.889 301.08 762.704 301.32 760.68C303.194 745.688 264.589 742.315 263.839 752.06C263.09 761.805 272.085 749.811 272.46 751.31C271.41 760.553 256.238 760.32 255.594 750.56L265.496 742.689H274.334L281.455 740.441L292.325 743.439C294.859 745.868 299.086 746.97 300.946 743.814C307.692 726.947 260.938 730.313 267.962 713.454L278.457 700.336L285.203 692.465L304.319 697.337L319.311 692.465L338.149 689.466L346.297 669.976C340.84 664.339 328.794 668.207 328.681 671.101C327.122 672.128 335.87 669.976 335.196 672.533C331.672 685.778 263.839 681.596 263.839 663.23C263.839 658.755 270.384 660.913 274.334 660.606L291.575 668.102L299.821 660.606L326.807 666.603L344.798 660.606C342.602 646.386 337.707 643.927 331.305 651.611C334.408 652.323 338.621 652.735 338.149 655.306C335.428 670.149 259.716 642.241 266.088 624.625C268.345 618.38 274.237 625.704 278.457 628.373L285.203 626.499L299.821 634.744L306.942 632.87L322.684 638.492L344.798 634.744C353.179 610.614 347.587 612.263 333.179 617.503C338.381 619.58 342.662 618.627 342.032 621.776C339.633 633.867 261.59 614.505 264.589 588.268C265.211 582.811 273.27 588.883 278.457 591.544L291.575 584.52L306.942 593.515L322.684 591.544L327.557 590.892C335.113 587.976 342.175 598.013 344.423 593.141C372.503 584.52 372.003 526.5 413.503 496.5C447.003 470.5 454.003 427.5 454.003 396C454.003 364 401.003 342 384.503 326C370.431 312.354 389.74 294.224 374.503 276C360.519 259.274 336.8 279.748 357.003 295C398.377 326.234 432.55 273.057 425.503 239C416.68 214 369.503 204.5 369.503 168.5C369.503 139.588 387.113 113.827 380.503 88C374.539 64.6957 348.503 63 324.003 1" stroke="#FF0000" stroke-width="1.52977" stroke-linecap="round"/>
</g>
<path id="fullLegFlower" d="M238.404 1037.05C243.274 1013.81 247.397 980.825 247.022 965.457C247.001 964.603 241.775 956.837 240.275 959.086C238.776 961.335 247.245 966.769 247.397 964.708C249.049 942.219 252.235 927.602 254.143 922.354C255.175 919.513 261.555 926.102 260.056 927.602C257.986 929.671 252.975 922.999 254.433 921.605C254.433 920.48 252.559 913.359 249.561 914.483C246.562 915.608 254.851 922.737 255.183 920.855C260.056 906.612 274.709 902.909 281.081 905.158C281.073 902.137 286.971 899.611 288.652 902.534C290.8 906.275 287.043 909.513 285.369 909.611C283.827 909.701 281.789 907.16 281.504 905.158C272.509 904.498 274.008 892.879 283.378 902.534C276.327 894.514 286.377 891.38 286.002 901.5C289.001 892.505 299.12 901.125 289.001 904.498C299.632 904.768 295.372 913.269 288.251 907.122C295.747 915.743 281.504 918.741 283.378 908.621C279.747 916.897 268.603 905.151 281.081 905.623" stroke="#FF0000" stroke-width="1.52977" stroke-linecap="round"/>
</g>
</g>
<g id="droplet">
<path id="droplet_2" d="M294.615 905.804C294.615 907.859 292.267 909.722 290.097 909.722C287.928 909.722 285.973 907.859 285.973 905.804C285.973 903.739 288.321 903 290.491 903C292.66 903 294.615 903.739 294.615 905.804Z" fill="#FF0000"/>
<path id="droplet0a" d="M294.307 908.973C291.137 912.218 290.947 918.105 290.091 918.335C289.07 918.623 289.373 916.338 288.505 916.04C286.343 915.301 290.607 914.014 290.607 910.058C290.607 904.671 295.932 907.311 294.307 908.973Z" fill="#FF0000"/>
<path id="droplet1" d="M293.059 916.77C293.981 919.766 291.713 923.972 286.432 923.972C281.15 923.972 279.752 919.785 280.576 916.77C282.016 911.489 283.684 915.33 286.818 915.33C289.952 915.33 291.139 910.528 293.059 916.77Z" fill="#FF0000"/>
<path id="droplet2" d="M293.655 918.211C294.958 922.349 293.389 928.293 285.921 928.293C278.453 928.293 277.22 921.571 279.251 917.73C282.612 911.373 282.036 916.328 286.468 916.328C290.898 916.328 290.939 909.568 293.655 918.211Z" fill="#FF0000"/>
<path id="droplet3" d="M293.568 925C294.871 929.148 293.302 935.082 285.834 935.082C278.366 935.082 277.134 928.361 279.164 924.519C281.195 920.688 283.092 921.091 285.493 920.611C287.894 920.131 292.186 920.611 293.568 925Z" fill="#FF0000"/>
<path id="droplet4drop" d="M293.175 944.233C293.175 948.9 289.52 952.693 285.013 952.693C280.505 952.693 278.291 948.9 278.291 944.233C278.291 939.557 286.453 926.766 286.453 931.087C286.453 935.409 293.175 940.21 293.175 944.233Z" fill="#FF0000"/>
<path id="droplet4dropDown" d="M294.499 1561.52C294.499 1567.02 290.194 1571.48 284.884 1571.48C279.575 1571.48 276.967 1567.02 276.967 1561.52C276.967 1556.01 286.581 1540.94 286.581 1546.03C286.581 1551.12 294.499 1556.78 294.499 1561.52Z" fill="#FF0000"/>
<path id="droplet5SplashUp" d="M297.021 951.275C296.5 952.581 272.454 954.741 273.009 951.755C273.009 947.434 282.355 953.128 281.652 950.315C279.251 940.712 292.215 943.593 288.854 948.874C285.493 954.156 298.661 947.165 297.021 951.275Z" fill="#FF0000"/>
<path id="droplet5SplashEndUp" d="M288.374 951.2C288.374 952.084 286.417 952.881 284.61 952.881C282.801 952.881 281.172 952.084 281.172 951.2C281.172 950.317 283.129 950 284.936 950C286.744 950 288.374 950.317 288.374 951.2Z" fill="#FF0000"/>
<path id="droplet5dropSplashDown" d="M297.021 1568.84C296.5 1570.15 272.454 1572.31 273.009 1569.32C273.009 1565 282.355 1570.7 281.652 1567.88C279.251 1558.28 292.215 1561.16 288.854 1566.44C285.493 1571.72 298.661 1564.73 297.021 1568.84Z" fill="#FF0000"/>
<path id="droplet5SplashEndDown" d="M288.374 1569.08C288.374 1569.97 286.417 1570.76 284.61 1570.76C282.801 1570.76 281.172 1569.97 281.172 1569.08C281.172 1568.2 283.129 1567.88 284.936 1567.88C286.744 1567.88 288.374 1568.2 288.374 1569.08Z" fill="#FF0000"/>
<path id="dropletEnd" d="M290.294 1566.2C290.294 1569.29 287.554 1572.08 285.023 1572.08C282.492 1572.08 280.211 1569.29 280.211 1566.2C280.211 1563.1 282.951 1562 285.482 1562C288.013 1562 290.294 1563.1 290.294 1566.2Z" fill="#FF0000"/>
<path id="droplet7" d="M288.374 1570.4C288.374 1571.29 286.417 1572.08 284.61 1572.08C282.801 1572.08 281.172 1571.29 281.172 1570.4C281.172 1569.52 283.129 1569.2 284.936 1569.2C286.744 1569.2 288.374 1569.52 288.374 1570.4Z" fill="#FF0000"/>
</g>
</g>
<defs>
<clipPath id="clip0_893_1468">
<rect width="569" height="1572" fill="white"/>
</clipPath>
</defs>
</svg>
