<svg width="1782" height="1982" viewBox="0 0 1782 1982" fill="none" xmlns="http://www.w3.org/2000/svg">
<g id="legNMask">
<g id="LegNMask">
<mask id="mask0_877_657" style="mask-type:alpha" maskUnits="userSpaceOnUse" x="867" y="-5" width="655" height="1412">
<g id="Group">
<path id="Subtract" fill-rule="evenodd" clip-rule="evenodd" d="M1522 -5H867V1407H1522V-5ZM1400.5 942.5C1401.44 937.77 1400.5 931 1400.5 931L1376.5 918.5L1297.5 925C1297.47 925.42 1297.44 925.86 1297.41 926.32C1297.18 929.48 1296.91 933.18 1297.5 936L1331.5 959L1397 976C1398.84 973.91 1398.31 970.83 1398.08 969.48C1398.04 969.28 1398.01 969.12 1398 969C1398.65 967.82 1407.57 980.99 1399 984.5C1399 985.7 1375 985 1363 984.5L1314.5 969.5L1298 974.5C1298.4 977.7 1298.83 981.83 1299 983.5L1306.5 987L1392 1020C1391.88 1017.47 1391.91 1015.81 1392 1012.5C1397.74 1012.78 1399.95 1023.91 1393 1029C1390.11 1031.11 1375.33 1029.67 1367.5 1028L1324 1020L1296 1025.5C1296 1027.5 1296 1030.5 1297 1032L1300.5 1035L1345.5 1042L1388.5 1043.5C1389.55 1042.38 1389.5 1040.5 1389 1039C1393.77 1039.79 1394.16 1046.66 1389.5 1051.5C1387.21 1053.88 1372.83 1060.17 1365 1062.5L1294 1064L1299 1091L1299.5 1097L1301 1099L1302 1100L1352 1113L1356.5 1134.5L1346.5 1144.5L1344 1141C1343.82 1139.56 1343.78 1137.94 1343.75 1136.67C1343.72 1135.24 1343.7 1134.26 1343.5 1134.5C1343.18 1134.9 1341.65 1134.3 1339.99 1133.65C1338.74 1133.16 1337.43 1132.64 1336.5 1132.5L1295 1128.5L1279.5 1146C1279.61 1146.95 1279.69 1147.85 1279.77 1148.72C1280.24 1154.04 1280.56 1157.64 1287 1158.5C1294 1159 1312.22 1157.53 1308 1146L1296 1149.5L1296.01 1149.58C1296.24 1152.85 1296.47 1155.98 1293 1154C1292.02 1152.44 1291.55 1147.63 1293 1144C1293.8 1142 1299.33 1140.17 1300.5 1140L1318 1138L1341 1143.5L1348 1154.5L1347.5 1173.5L1344 1165C1344 1162.5 1344 1160 1342.5 1157.5C1341.39 1155.65 1337.47 1154.51 1334.65 1153.69C1334.42 1153.62 1334.21 1153.56 1334 1153.5L1306 1156.5L1292 1160.5L1283 1168.5L1277.5 1183L1286.5 1196.5C1301.63 1196.65 1307 1182.5 1293.5 1183C1292.81 1184.43 1293 1185.67 1293.5 1188C1288.57 1184.74 1288.07 1181.62 1291.5 1177.5C1293.53 1175.06 1293.16 1173.11 1292.97 1172.15C1292.9 1171.77 1292.86 1171.55 1293 1171.5L1308.5 1169L1323 1171.5L1336 1184.5L1343 1188L1377 1172.5L1440.5 1029L1400.5 942.5Z" fill="#D9D9D9"/>
</g>
</mask>
<g mask="url(#mask0_877_657)">
<g id="Group_2">
<path id="fullLeg" d="M941.999 1C977 54 955.5 87 971.5 120C987.5 153 1034.5 123.471 1049 153C1062.5 180.5 1008.17 257.821 1057.5 273C1083.5 281 1113 263.156 1102 258C1091 252.844 1073.01 316 1087.5 365C1098.28 401.44 1128.93 442.351 1178.5 480C1217.5 509.62 1283 531 1306 574.5C1333.2 625.941 1257 661 1277.5 697C1296.7 730.72 1364 729.5 1343.5 765.5C1323 801.5 1322 819 1332 841C1356.12 897.47 1414 908 1402.5 937C1399.5 943.5 1390.08 930.11 1380 934L1373.5 934.87L1352.5 937.5L1332 925.5L1314.5 934.87C1307.58 931.32 1296.83 923.22 1296 930.5C1292 965.5 1396.11 991.33 1399.31 975.2C1400.15 971 1394.44 972.27 1387.5 969.5C1406.72 962.51 1414.18 960.31 1403 992.5L1373.5 997.5L1352.5 990L1343 992.5L1323.5 981.5L1314.5 984C1308.87 980.44 1301.01 970.67 1298 979C1289.5 1002.5 1390.5 1039.73 1394.13 1019.93C1394.76 1016.5 1389.14 1015.95 1385 1015C1393.54 1004.75 1400.07 1008.03 1403 1027L1379 1035L1343 1027L1332 1037L1309 1027C1303.73 1027.41 1295 1024.53 1295 1030.5C1295 1055 1385.49 1060.58 1390.19 1042.91C1391.09 1039.5 1379.42 1042.37 1381.5 1041C1381.65 1037.14 1397.72 1031.98 1405 1039.5L1394.13 1065.5L1369 1069.5L1349 1076L1323.5 1069.5L1314.5 1080L1300.5 1097.5C1291.13 1119.99 1353.5 1115.5 1344.5 1138C1342.02 1142.21 1336.38 1140.74 1333 1137.5L1318.5 1133.5L1309 1136.5H1297.21L1284 1147C1284.86 1160.02 1305.1 1160.33 1306.5 1148C1306 1146 1294 1162 1295 1149C1296 1136 1347.5 1140.5 1345 1160.5C1344.68 1163.2 1343.8 1164.78 1334 1168.5L1335 1164.5L1321.5 1159L1310.5 1162L1297.21 1160.24L1289.5 1168.5L1281.5 1179.5C1282.17 1188.48 1296.07 1198.69 1298.5 1187C1294.75 1187.25 1291.74 1186 1291.5 1183C1290 1164.5 1352.5 1172 1323.5 1206C1294.5 1240 1254 1346 1291.5 1337.5C1329 1329 1222 1251.46 1114 1279.5C1035.5 1299.88 973.496 1364 973.496 1383.5C967 1352.5 961.5 1308.5 962 1288C962.028 1286.86 969 1276.5 971 1279.5C973 1282.5 961.702 1289.75 961.5 1287C959.296 1257 955.046 1237.5 952.5 1230.5C951.123 1226.71 942.612 1235.5 944.612 1237.5C947.374 1240.26 954.059 1231.36 952.113 1229.5C952.113 1228 954.613 1218.5 958.613 1220C962.613 1221.5 951.556 1231.01 951.113 1228.5C944.612 1209.5 925.065 1204.56 916.565 1207.56C916.575 1203.53 908.708 1200.16 906.465 1204.06C903.599 1209.05 908.611 1213.37 910.844 1213.5C912.902 1213.62 915.62 1210.23 916 1207.56C928 1206.68 926 1191.18 913.5 1204.06C922.906 1193.36 909.5 1189.18 910 1202.68C906 1190.68 892.5 1202.18 906 1206.68C891.817 1207.04 897.501 1218.38 907 1210.18C897 1221.68 916 1225.68 913.5 1212.18C918.344 1223.22 933.211 1207.55 916.565 1208.18" stroke="#FF0000" stroke-width="2" stroke-linecap="round"/>
</g>
</g>
</g>
<path id="Vector 117" d="M871 1237.5V1951.5" stroke="black"/>
<path id="droplet0" d="M917 1209.92C917 1212.06 914.555 1214 912.295 1214C910.036 1214 908 1212.06 908 1209.92C908 1207.77 910.445 1207 912.705 1207C914.964 1207 917 1207.77 917 1209.92Z" fill="#FF0000"/>
<path id="droplet0a" d="M916.679 1213.22C913.377 1216.6 913.18 1222.73 912.288 1222.97C911.225 1223.27 911.54 1220.89 910.637 1220.58C908.385 1219.81 912.826 1218.47 912.826 1214.35C912.826 1208.74 918.371 1211.49 916.679 1213.22Z" fill="#FF0000"/>
<path id="droplet1" d="M915.38 1221.34C916.34 1224.46 913.978 1228.84 908.478 1228.84C902.978 1228.84 901.522 1224.48 902.38 1221.34C903.88 1215.84 905.617 1219.84 908.88 1219.84C912.144 1219.84 913.38 1214.84 915.38 1221.34Z" fill="#FF0000"/>
<path id="droplet2" d="M916 1222.84C917.357 1227.15 915.723 1233.34 907.946 1233.34C900.169 1233.34 898.885 1226.34 901 1222.34C904.5 1215.72 903.9 1220.88 908.515 1220.88C913.129 1220.88 913.172 1213.84 916 1222.84Z" fill="#FF0000"/>
<path id="droplet3" d="M915.909 1229.91C917.266 1234.23 915.632 1240.41 907.855 1240.41C900.078 1240.41 898.795 1233.41 900.909 1229.41C903.024 1225.42 905 1225.84 907.5 1225.34C910 1224.84 914.47 1225.34 915.909 1229.91Z" fill="#FF0000"/>
<path id="droplet4up" d="M917 1250.46C917 1256.28 912.335 1261 906.581 1261C900.827 1261 898 1256.28 898 1250.46C898 1244.64 908.419 1228.71 908.419 1234.09C908.419 1239.47 917 1245.45 917 1250.46Z" fill="#FF0000"/>
<path id="droplet5SplashUp" d="M924.794 1258.1C924.04 1259.91 889.21 1262.91 890.014 1258.77C890.014 1252.77 903.55 1260.67 902.532 1256.77C899.055 1243.43 917.833 1247.43 912.964 1254.77C908.096 1262.1 927.17 1252.39 924.794 1258.1Z" fill="#FF0000"/>
<path id="droplet5SplashEndUp" d="M912.143 1258.77C912.143 1259.87 909.232 1260.86 906.543 1260.86C903.853 1260.86 901.429 1259.87 901.429 1258.77C901.429 1257.68 904.34 1257.29 907.029 1257.29C909.719 1257.29 912.143 1257.68 912.143 1258.77Z" fill="#FF0000"/>
<path id="droplet4dropDown" d="M919 1970.09C919 1976.11 914.089 1981 908.032 1981C901.975 1981 899 1976.11 899 1970.09C899 1964.06 909.968 1947.56 909.968 1953.13C909.968 1958.71 919 1964.9 919 1970.09Z" fill="#FF0000"/>
<path id="droplet5SplashDown" d="M924.794 1977.1C924.04 1978.91 889.21 1981.91 890.014 1977.77C890.014 1971.77 903.55 1979.67 902.532 1975.77C899.055 1962.43 917.833 1966.43 912.964 1973.77C908.096 1981.1 927.17 1971.39 924.794 1977.1Z" fill="#FF0000"/>
<path id="droplet5SplashEndDown" d="M912.143 1977.77C912.143 1978.87 909.232 1979.86 906.543 1979.86C903.853 1979.86 901.429 1978.87 901.429 1977.77C901.429 1976.68 904.34 1976.29 907.029 1976.29C909.719 1976.29 912.143 1976.68 912.143 1977.77Z" fill="#FF0000"/>
<path id="droplet6" d="M914.286 1973.66C914.286 1978.04 910.598 1982 907.191 1982C903.784 1982 900.714 1978.04 900.714 1973.66C900.714 1969.28 904.402 1967.71 907.809 1967.71C911.216 1967.71 914.286 1969.28 914.286 1973.66Z" fill="#FF0000"/>
<path id="droplet7" d="M912.143 1979.5C912.143 1980.81 909.232 1982 906.543 1982C903.853 1982 901.429 1980.81 901.429 1979.5C901.429 1978.19 904.34 1977.71 907.029 1977.71C909.719 1977.71 912.143 1978.19 912.143 1979.5Z" fill="#FF0000"/>
<path id="36 %" d="M890.952 1666.27C889.683 1666.27 888.552 1666.05 887.559 1665.62C886.572 1665.18 885.787 1664.57 885.203 1663.8C884.627 1663.02 884.313 1662.11 884.261 1661.08H886.684C886.735 1661.71 886.953 1662.26 887.338 1662.72C887.722 1663.18 888.225 1663.53 888.847 1663.78C889.469 1664.03 890.158 1664.15 890.914 1664.15C891.76 1664.15 892.51 1664.01 893.163 1663.71C893.817 1663.42 894.33 1663.01 894.701 1662.48C895.073 1661.96 895.259 1661.35 895.259 1660.66C895.259 1659.93 895.079 1659.29 894.721 1658.74C894.362 1658.18 893.836 1657.75 893.144 1657.43C892.452 1657.12 891.606 1656.96 890.606 1656.96H889.03V1654.85H890.606C891.388 1654.85 892.074 1654.71 892.663 1654.43C893.259 1654.14 893.724 1653.75 894.057 1653.23C894.397 1652.72 894.567 1652.12 894.567 1651.43C894.567 1650.76 894.419 1650.18 894.125 1649.69C893.83 1649.19 893.413 1648.81 892.875 1648.53C892.343 1648.26 891.715 1648.12 890.991 1648.12C890.311 1648.12 889.67 1648.24 889.068 1648.49C888.472 1648.74 887.985 1649.09 887.607 1649.56C887.229 1650.02 887.024 1650.58 886.992 1651.23H884.684C884.723 1650.2 885.034 1649.3 885.617 1648.52C886.2 1647.74 886.963 1647.13 887.905 1646.7C888.853 1646.26 889.895 1646.04 891.029 1646.04C892.247 1646.04 893.291 1646.29 894.163 1646.78C895.035 1647.27 895.704 1647.91 896.172 1648.72C896.64 1649.52 896.874 1650.38 896.874 1651.31C896.874 1652.42 896.582 1653.37 895.999 1654.15C895.422 1654.93 894.637 1655.47 893.644 1655.77V1655.93C894.887 1656.13 895.858 1656.66 896.557 1657.51C897.255 1658.36 897.605 1659.41 897.605 1660.66C897.605 1661.73 897.313 1662.69 896.73 1663.54C896.153 1664.38 895.365 1665.05 894.365 1665.54C893.365 1666.03 892.228 1666.27 890.952 1666.27ZM908.073 1666.27C907.266 1666.26 906.458 1666.1 905.651 1665.81C904.843 1665.51 904.106 1665.02 903.44 1664.32C902.773 1663.61 902.238 1662.66 901.834 1661.46C901.431 1660.26 901.229 1658.75 901.229 1656.93C901.229 1655.18 901.392 1653.64 901.719 1652.29C902.046 1650.94 902.52 1649.8 903.142 1648.88C903.763 1647.95 904.513 1647.24 905.391 1646.76C906.276 1646.28 907.272 1646.04 908.381 1646.04C909.483 1646.04 910.464 1646.26 911.323 1646.71C912.188 1647.14 912.893 1647.75 913.438 1648.53C913.982 1649.31 914.335 1650.22 914.495 1651.23H912.149C911.931 1650.35 911.509 1649.62 910.88 1649.03C910.252 1648.45 909.419 1648.16 908.381 1648.16C906.856 1648.16 905.654 1648.82 904.776 1650.15C903.904 1651.47 903.465 1653.34 903.459 1655.73H903.613C903.972 1655.19 904.398 1654.72 904.891 1654.34C905.391 1653.95 905.942 1653.65 906.545 1653.44C907.147 1653.22 907.785 1653.12 908.458 1653.12C909.586 1653.12 910.618 1653.4 911.553 1653.96C912.489 1654.52 913.239 1655.29 913.803 1656.28C914.367 1657.26 914.649 1658.39 914.649 1659.66C914.649 1660.87 914.376 1661.99 913.832 1663C913.287 1664.01 912.521 1664.81 911.534 1665.4C910.554 1665.99 909.4 1666.28 908.073 1666.27ZM908.073 1664.15C908.881 1664.15 909.605 1663.95 910.246 1663.55C910.893 1663.14 911.403 1662.6 911.774 1661.92C912.153 1661.24 912.342 1660.49 912.342 1659.66C912.342 1658.84 912.159 1658.1 911.794 1657.43C911.435 1656.76 910.938 1656.23 910.304 1655.83C909.676 1655.43 908.958 1655.23 908.15 1655.23C907.541 1655.23 906.974 1655.35 906.449 1655.6C905.923 1655.84 905.462 1656.16 905.064 1656.58C904.673 1657 904.366 1657.47 904.142 1658.01C903.917 1658.54 903.805 1659.1 903.805 1659.69C903.805 1660.48 903.988 1661.21 904.353 1661.89C904.725 1662.56 905.231 1663.11 905.872 1663.53C906.519 1663.95 907.253 1664.15 908.073 1664.15ZM936.079 1662.31V1661.27C936.079 1660.55 936.227 1659.9 936.521 1659.3C936.823 1658.7 937.258 1658.22 937.829 1657.86C938.406 1657.49 939.104 1657.31 939.924 1657.31C940.758 1657.31 941.456 1657.49 942.02 1657.86C942.584 1658.22 943.01 1658.7 943.299 1659.3C943.587 1659.9 943.731 1660.55 943.731 1661.27V1662.31C943.731 1663.03 943.584 1663.69 943.289 1664.29C943.001 1664.88 942.571 1665.37 942.001 1665.73C941.437 1666.09 940.745 1666.27 939.924 1666.27C939.091 1666.27 938.39 1666.09 937.819 1665.73C937.249 1665.37 936.816 1664.88 936.521 1664.29C936.227 1663.69 936.079 1663.03 936.079 1662.31ZM938.04 1661.27V1662.31C938.04 1662.9 938.181 1663.44 938.463 1663.91C938.745 1664.38 939.232 1664.62 939.924 1664.62C940.597 1664.62 941.072 1664.38 941.347 1663.91C941.629 1663.44 941.77 1662.9 941.77 1662.31V1661.27C941.77 1660.67 941.636 1660.14 941.366 1659.67C941.097 1659.2 940.617 1658.96 939.924 1658.96C939.252 1658.96 938.768 1659.2 938.473 1659.67C938.184 1660.14 938.04 1660.67 938.04 1661.27ZM926.274 1651.04V1650C926.274 1649.29 926.421 1648.63 926.716 1648.03C927.017 1647.43 927.453 1646.95 928.023 1646.59C928.6 1646.23 929.299 1646.04 930.119 1646.04C930.952 1646.04 931.651 1646.23 932.215 1646.59C932.779 1646.95 933.205 1647.43 933.493 1648.03C933.782 1648.63 933.926 1649.29 933.926 1650V1651.04C933.926 1651.76 933.778 1652.42 933.484 1653.02C933.195 1653.62 932.766 1654.1 932.195 1654.46C931.631 1654.82 930.939 1655 930.119 1655C929.286 1655 928.584 1654.82 928.014 1654.46C927.443 1654.1 927.011 1653.62 926.716 1653.02C926.421 1652.42 926.274 1651.76 926.274 1651.04ZM928.235 1650V1651.04C928.235 1651.64 928.376 1652.17 928.658 1652.65C928.94 1653.12 929.427 1653.35 930.119 1653.35C930.792 1653.35 931.266 1653.12 931.542 1652.65C931.824 1652.17 931.965 1651.64 931.965 1651.04V1650C931.965 1649.41 931.83 1648.88 931.561 1648.41C931.292 1647.93 930.811 1647.7 930.119 1647.7C929.446 1647.7 928.962 1647.93 928.667 1648.41C928.379 1648.88 928.235 1649.41 928.235 1650ZM927.004 1666L940.54 1646.31H942.731L929.196 1666H927.004Z" fill="black"/>
</g>
</svg>
