<svg width="389" height="474" viewBox="0 0 389 474" fill="none" xmlns="http://www.w3.org/2000/svg">
<g id="miloTekeningMobile">
<path id="m" d="M252.715 1C248.715 1 248.216 36.4999 251.216 36.4999C254.216 36.4999 258.843 3.49994 255.715 3.49994C251.715 3.49994 251.233 33.4999 255.715 33.4999C260.198 33.4999 264.717 7.99996 259.717 7.99996C254.717 7.99996 256.217 26.9999 265.717 23.4999C276.038 19.6999 369.758 39.0354 384.987 20C394.987 7.50013 358.391 -0.92934 368.987 43.0001C413.487 227.5 364.003 365 251.216 317.5C129.503 266.24 29.2721 345.478 5.10882 305.51C-8.50021 283 20.6088 278.5 20.6086 301.51C20.6081 358.997 -26.501 484.561 49.9998 466.061C124.1 448.141 139.959 482.392 181.003 466.061C199.003 458.898 239.45 466.91 241.45 472.41C236.59 460.93 241.07 442.25 246.37 442.25C250.61 442.25 253.35 454.49 254.19 460.61C253.67 455.65 254.06 445.57 259.81 444.97C267 444.21 266.81 466.29 267 468.5" stroke="#FF0000" stroke-width="2" stroke-linecap="round" stroke-linejoin="round"/>
<path id="i" d="M272.46 460.99C272.81 465.28 272.99 467.07 273.03 467.43" stroke="#FF0000" stroke-width="2" stroke-linecap="round" stroke-linejoin="round"/>
<path id="ib" d="M270 447.68C270.06 447.93 270.38 448.19 270.32 448.31" stroke="#FF0000" stroke-width="2" stroke-linecap="round" stroke-linejoin="round"/>
<path id="l" d="M276.25 440.55C277.63 449.64 278.83 462.32 279.46 465.6" stroke="#FF0000" stroke-width="2" stroke-linecap="round" stroke-linejoin="round"/>
<path id="o" d="M294.34 461.38C293 465.64 283.13 467.13 285.31 459.24C286.51 456.59 288.59 455.24 291.12 455.39C294.67 455.6 295.32 458.22 294.34 461.38Z" stroke="#FF0000" stroke-width="2" stroke-linecap="round" stroke-linejoin="round"/>
<path id="w" d="M314.65 439.549C303.1 467.309 311.75 476.899 316.73 468.129C320.72 461.119 320.54 459.83 319.95 460.06C319.66 462.99 323.2 467.75 329.35 464.6C336.89 460.74 338.18 443.59 329.35 438.35" stroke="#FF0000" stroke-width="2" stroke-linecap="round" stroke-linejoin="round"/>
<path id="ei" d="M336.73 458.609C339.7 460.689 343.93 455.639 340.33 455.009C336.73 454.379 334.02 462.329 340.33 463.839C345.38 465.049 348.83 460.179 349.92 457.599C350.34 459.089 351.9 461.869 353.01 462.579" stroke="#FF0000" stroke-width="2" stroke-linecap="round" stroke-linejoin="round"/>
<path id="ei2" d="M347.71 447.75C348.57 448.61 349.12 448.66 349.29 448.57" stroke="#FF0000" stroke-width="2" stroke-linecap="round" stroke-linejoin="round"/>
<path id="l2" d="M351.05 434C352.62 449.85 356 457.97 357.49 460.06" stroke="#FF0000" stroke-width="2" stroke-linecap="round" stroke-linejoin="round"/>
<path id="er" d="M361.279 458.61C368.019 456.21 365.809 452 363.499 453C358.779 455.04 360.809 461.19 365.499 461C370.999 460.5 371.999 455 370.999 453C369.999 451 372.999 458 372.999 460.5C372.999 460.5 372.389 450.75 380.999 454.5" stroke="#FF0000" stroke-width="2" stroke-linecap="round" stroke-linejoin="round"/>
<path id="punt" d="M387.289 460.31V460.3" stroke="#FF0000" stroke-width="2" stroke-linecap="round" stroke-linejoin="round"/>
</g>
</svg>
