<svg width="1084" height="332" viewBox="0 0 1084 332" fill="none" xmlns="http://www.w3.org/2000/svg">
<g id="miloTekening1">
<path id="m1" d="M4.42791 272.701C0.427905 272.701 -0.070996 308.202 2.929 308.202C5.929 308.202 10.5559 275.201 7.42791 275.201C3.42791 275.201 2.94591 305.202 7.42791 305.202C11.9109 305.202 16.429 279.701 11.429 279.701C6.429 279.701 9.00002 295.201 17.429 295.201C111.5 295.201 289.022 226.942 279 287.383C268.368 351.502 318.206 332.548 351.5 287.383C387.721 238.248 404.5 152.5 376 159.5C357.5 164.044 371.048 196.694 393.5 191C462.5 173.5 412.5 51 519.5 1.5" stroke="#FF0000" stroke-width="2" stroke-linecap="round" stroke-linejoin="round"/>
</g>
</svg>
