<svg width="452" height="168" viewBox="0 0 452 168" fill="none" xmlns="http://www.w3.org/2000/svg">
<g id="miloTekeningMobile2">
<path id="m2" d="M1.5 131.779C68 131.779 17.2761 5.22355 63 1.79285C93.5 -0.49559 108.89 72.5 102 97.0053C98.9072 108.006 89.4544 110.008 85 104.505C78 95.8583 95 71.5053 130 73.5053C177 76.1911 160 163.053 209.5 140.781C223.96 134.275 233.817 126.056 247.5 131.779C262.867 138.206 281.207 166.963 304.463 166.963C299.603 155.483 304.083 136.803 309.383 136.803C313.623 136.803 316.363 149.043 317.203 155.163C316.683 150.203 317.073 140.123 322.823 139.523C330.013 138.763 329.823 160.843 330.013 163.053" stroke="#FF0000" stroke-width="2" stroke-linecap="round" stroke-linejoin="round"/>
<path id="i" d="M335.973 155.26C336.323 159.55 336.503 161.34 336.543 161.7" stroke="#FF0000" stroke-width="2" stroke-linecap="round" stroke-linejoin="round"/>
<path id="ib" d="M333.513 141.95C333.573 142.2 333.893 142.46 333.833 142.58" stroke="#FF0000" stroke-width="2" stroke-linecap="round" stroke-linejoin="round"/>
<path id="l" d="M339.763 134.82C341.143 143.91 342.343 156.59 342.973 159.87" stroke="#FF0000" stroke-width="2" stroke-linecap="round" stroke-linejoin="round"/>
<path id="o" d="M357.853 155.65C356.513 159.91 346.643 161.4 348.823 153.51C350.023 150.86 352.103 149.51 354.633 149.66C358.183 149.87 358.833 152.49 357.853 155.65Z" stroke="#FF0000" stroke-width="2" stroke-linecap="round" stroke-linejoin="round"/>
<path id="w" d="M378.162 133.819C366.612 161.579 375.262 171.169 380.242 162.399C384.232 155.389 384.052 154.1 383.462 154.33C383.172 157.26 386.712 162.02 392.862 158.87C400.402 155.01 401.692 137.86 392.862 132.62" stroke="#FF0000" stroke-width="2" stroke-linecap="round" stroke-linejoin="round"/>
<path id="ei" d="M400.243 152.879C403.213 154.959 407.443 149.909 403.843 149.279C400.243 148.649 397.533 156.599 403.843 158.109C408.893 159.319 412.343 154.449 413.433 151.869C413.853 153.359 415.413 156.139 416.523 156.849" stroke="#FF0000" stroke-width="2" stroke-linecap="round" stroke-linejoin="round"/>
<path id="ei2" d="M411.223 142.02C412.083 142.88 412.633 142.93 412.803 142.84" stroke="#FF0000" stroke-width="2" stroke-linecap="round" stroke-linejoin="round"/>
<path id="l2" d="M414.562 128.27C416.133 144.12 419.512 152.24 421.002 154.33" stroke="#FF0000" stroke-width="2" stroke-linecap="round" stroke-linejoin="round"/>
<path id="er" d="M424.792 152.88C431.532 150.48 429.322 146.27 427.012 147.27C422.292 149.31 424.322 155.46 429.012 155.27C434.512 154.77 435.512 149.27 434.512 147.27C433.512 145.27 436.512 152.27 436.512 154.77C436.512 154.77 435.902 145.02 444.512 148.77" stroke="#FF0000" stroke-width="2" stroke-linecap="round" stroke-linejoin="round"/>
<path id="punt" d="M450.802 154.58V154.57" stroke="#FF0000" stroke-width="2" stroke-linecap="round" stroke-linejoin="round"/>
</g>
</svg>
