<svg width="1084" height="109" viewBox="0 0 1084 109" fill="none" xmlns="http://www.w3.org/2000/svg">
<g id="miloTekening1">
<path id="m1" d="M4.42794 19.7002C0.427942 19.7002 -0.0710201 55.2003 2.92898 55.2003C5.92898 55.2003 10.5559 22.2002 7.42794 22.2002C3.42794 22.2002 2.94594 52.2003 7.42794 52.2003C11.9109 52.2003 16.429 26.7001 11.429 26.7001C6.42898 26.7001 9 42.2002 17.429 42.2002C31.3826 42.2002 126.85 42.7822 205.5 34.3817C313.255 22.8725 409.718 -18.6022 397 42.2001C379.079 127.881 532 86.7993 623 55.2003C655.5 41.4996 739 18.5633 800.5 52.2003C862 85.8372 930.623 66.2956 936 42.2001C942.181 14.5 891.5 35.3631 927.5 68.1815C963.5 101 1033.5 28.5 1094 35.5" stroke="#FF0000" stroke-width="2" stroke-linecap="round" stroke-linejoin="round"/>
</g>
</svg>
