<svg width="1084" height="538" viewBox="0 0 1084 538" fill="none" xmlns="http://www.w3.org/2000/svg">
<g id="miloTekening1">
<path id="m1" d="M4.42791 478.701C0.427905 478.701 -0.070996 514.202 2.929 514.202C5.929 514.202 10.5559 481.201 7.42791 481.201C3.42791 481.201 2.94591 511.202 7.42791 511.202C11.9109 511.202 16.429 485.701 11.429 485.701C6.429 485.701 9.00002 501.201 17.429 501.201C111.5 501.201 289.022 432.942 279 493.383C268.368 557.502 318.206 538.548 351.5 493.383C387.721 444.248 404.5 358.5 376 365.5C357.5 370.044 371.048 402.694 393.5 397C462.5 379.5 412.5 257 519.5 207.5C603.9 171.1 597.333 55 583.5 1.5" stroke="#FF0000" stroke-width="2" stroke-linecap="round" stroke-linejoin="round"/>
</g>
</svg>
