<svg width="469" height="164" viewBox="0 0 469 164" fill="none" xmlns="http://www.w3.org/2000/svg">
<g id="miloTekeningMobile2">
<path id="m2" d="M1.5 127.5C68 127.5 61.5 10.4997 96 1.50011C111.256 -2.47949 89.6476 32.1156 96 65.9992C102 98.0033 124.391 123.882 140.5 98C179.5 35.3393 189.76 161.026 226.5 136.503C239.688 127.699 250.817 121.778 264.5 127.5C279.867 133.927 298.207 162.684 321.463 162.684C316.603 151.204 321.083 132.524 326.383 132.524C330.623 132.524 333.363 144.764 334.203 150.884C333.683 145.924 334.073 135.844 339.823 135.244C347.013 134.484 346.823 156.564 347.013 158.774" stroke="#FF0000" stroke-width="2" stroke-linecap="round" stroke-linejoin="round"/>
<path id="i" d="M352.973 150.981C353.323 155.271 353.503 157.061 353.543 157.421" stroke="#FF0000" stroke-width="2" stroke-linecap="round" stroke-linejoin="round"/>
<path id="ib" d="M350.513 137.671C350.573 137.921 350.893 138.181 350.833 138.301" stroke="#FF0000" stroke-width="2" stroke-linecap="round" stroke-linejoin="round"/>
<path id="l" d="M356.763 130.541C358.143 139.631 359.343 152.311 359.973 155.591" stroke="#FF0000" stroke-width="2" stroke-linecap="round" stroke-linejoin="round"/>
<path id="o" d="M374.853 151.371C373.513 155.631 363.643 157.121 365.823 149.231C367.023 146.581 369.103 145.231 371.633 145.381C375.183 145.591 375.833 148.211 374.853 151.371Z" stroke="#FF0000" stroke-width="2" stroke-linecap="round" stroke-linejoin="round"/>
<path id="w" d="M395.162 129.541C383.612 157.301 392.262 166.891 397.242 158.121C401.232 151.111 401.052 149.821 400.462 150.051C400.172 152.981 403.712 157.741 409.862 154.591C417.402 150.731 418.692 133.581 409.862 128.341" stroke="#FF0000" stroke-width="2" stroke-linecap="round" stroke-linejoin="round"/>
<path id="ei" d="M417.243 148.6C420.213 150.68 424.443 145.63 420.843 145C417.243 144.37 414.533 152.32 420.843 153.83C425.893 155.04 429.343 150.171 430.433 147.591C430.853 149.081 432.413 151.861 433.523 152.571" stroke="#FF0000" stroke-width="2" stroke-linecap="round" stroke-linejoin="round"/>
<path id="ei2" d="M428.223 137.741C429.083 138.601 429.633 138.651 429.803 138.561" stroke="#FF0000" stroke-width="2" stroke-linecap="round" stroke-linejoin="round"/>
<path id="l2" d="M431.562 123.991C433.133 139.841 436.512 147.961 438.002 150.051" stroke="#FF0000" stroke-width="2" stroke-linecap="round" stroke-linejoin="round"/>
<path id="er" d="M441.792 148.601C448.532 146.201 446.322 141.991 444.012 142.991C439.292 145.031 441.322 151.181 446.012 150.991C451.512 150.491 452.512 144.991 451.512 142.991C450.512 140.991 453.512 147.991 453.512 150.491C453.512 150.491 452.902 140.741 461.512 144.491" stroke="#FF0000" stroke-width="2" stroke-linecap="round" stroke-linejoin="round"/>
<path id="punt" d="M467.802 150.301V150.291" stroke="#FF0000" stroke-width="2" stroke-linecap="round" stroke-linejoin="round"/>
</g>
</svg>
