<svg width="1782" height="150" viewBox="0 0 1782 150" fill="none" xmlns="http://www.w3.org/2000/svg">
<g id="miloTekening2" clip-path="url(#clip0_971_560)">
<path id="m2" d="M1499 123.257C1498.81 121.047 1499 98.9671 1491.81 99.7271C1486.06 100.327 1485.67 110.407 1486.19 115.367C1485.35 109.247 1482.61 97.0073 1478.37 97.0073C1473.07 97.0073 1468.59 115.688 1473.45 127.168C1471.45 121.668 1458.7 113.968 1445.5 127.168C1431.85 142.29 1425 131.078 1408 127.168C1381 120.957 1381.5 135.636 1350 143C1325.37 148.759 1293 136 1231.5 140.5C1170 145 1110.71 165.74 1048.5 115.367C1000.5 76.5 965.859 104.216 930 124C904.802 137.902 854.99 146.675 814 138.5C778.463 131.413 750.923 109.628 735 91.5005C711.394 64.6264 671.5 62.4998 653.5 81.4996C645.921 89.5 649.816 101.565 657 103C664.017 104.401 676.111 91.7227 668.5 76.5C658 55.5 620.5 74.7348 602 59.4999C588.5 48.3825 590.5 27.9997 604.5 29.9998C617.074 31.7961 620.235 56.9997 598.5 67.8673C582.378 75.9281 569.736 71.1382 564 81.4996C554.747 98.2144 564 113 549 121C535.617 128.137 515.424 114.088 482.5 113C449.862 111.921 429.392 127.961 435 134.727C446 148 473.5 110.727 435 99.7272C396.5 88.7272 388.725 115.925 338.5 115.367C288.275 114.809 293.5 56.0148 230.5 81.4996C171.5 105.366 92.5 61.0003 -36.5 62.0001" stroke="#FF0000" stroke-width="2" stroke-linecap="round" stroke-linejoin="round"/>
<path id="i" d="M1504.46 115.667C1504.81 119.957 1504.99 121.747 1505.03 122.107" stroke="#FF0000" stroke-width="2" stroke-linecap="round" stroke-linejoin="round"/>
<path id="ib" d="M1502 102.357C1502.06 102.607 1502.38 102.867 1502.32 102.987" stroke="#FF0000" stroke-width="2" stroke-linecap="round" stroke-linejoin="round"/>
<path id="l" d="M1508.25 95.2266C1509.63 104.317 1510.83 116.997 1511.46 120.277" stroke="#FF0000" stroke-width="2" stroke-linecap="round" stroke-linejoin="round"/>
<path id="o" d="M1526.34 116.057C1525 120.317 1515.13 121.807 1517.31 113.917C1518.51 111.267 1520.59 109.917 1523.12 110.067C1526.67 110.277 1527.32 112.897 1526.34 116.057Z" stroke="#FF0000" stroke-width="2" stroke-linecap="round" stroke-linejoin="round"/>
<path id="w" d="M1546.65 94.2266C1535.1 121.987 1543.75 131.577 1548.73 122.807C1552.72 115.797 1552.54 114.507 1551.95 114.737C1551.66 117.667 1555.2 122.427 1561.35 119.277C1568.89 115.417 1570.18 98.2669 1561.35 93.0269" stroke="#FF0000" stroke-width="2" stroke-linecap="round" stroke-linejoin="round"/>
<path id="ei" d="M1568.73 113.286C1571.7 115.366 1575.93 110.316 1572.33 109.686C1568.73 109.056 1566.02 117.006 1572.33 118.516C1577.38 119.726 1580.83 114.857 1581.92 112.277C1582.34 113.767 1583.9 116.547 1585.01 117.257" stroke="#FF0000" stroke-width="2" stroke-linecap="round" stroke-linejoin="round"/>
<path id="ei2" d="M1579.71 102.427C1580.57 103.287 1581.12 103.337 1581.29 103.247" stroke="#FF0000" stroke-width="2" stroke-linecap="round" stroke-linejoin="round"/>
<path id="l2" d="M1583.05 88.6768C1584.62 104.527 1588 112.647 1589.49 114.737" stroke="#FF0000" stroke-width="2" stroke-linecap="round" stroke-linejoin="round"/>
<path id="er" d="M1593.28 113.287C1600.02 110.887 1597.81 106.677 1595.5 107.677C1590.78 109.717 1592.81 115.867 1597.5 115.677C1603 115.177 1604 109.677 1603 107.677C1602 105.677 1605 112.677 1605 115.177C1605 115.177 1604.39 105.427 1613 109.177" stroke="#FF0000" stroke-width="2" stroke-linecap="round" stroke-linejoin="round"/>
<path id="punt" d="M1619.29 114.987V114.977" stroke="#FF0000" stroke-width="2" stroke-linecap="round" stroke-linejoin="round"/>
</g>
<defs>
<clipPath id="clip0_971_560">
<rect width="1782" height="150" fill="white"/>
</clipPath>
</defs>
</svg>
