<svg width="1084" height="869" viewBox="0 0 1084 869" fill="none" xmlns="http://www.w3.org/2000/svg">
<g id="miloTekening1">
<mask id="mask0_971_562" style="mask-type:alpha" maskUnits="userSpaceOnUse" x="0" y="0" width="1084" height="869">
<rect id="Rectangle 75" width="1084" height="869" fill="url(#paint0_linear_971_562)"/>
</mask>
<g mask="url(#mask0_971_562)">
<path id="m1" d="M4.42791 809.701C0.427905 809.701 -0.070996 845.202 2.929 845.202C5.929 845.202 10.5559 812.201 7.42791 812.201C3.42791 812.201 2.94591 842.202 7.42791 842.202C11.9109 842.202 16.429 816.701 11.429 816.701C6.429 816.701 9.00002 832.201 17.429 832.201C111.5 832.201 289.022 763.942 279 824.383C268.368 888.502 318.206 869.548 351.5 824.383C387.721 775.248 404.5 689.5 376 696.5C357.5 701.044 371.048 733.694 393.5 728C462.5 710.5 412.5 588 519.5 538.5C603.9 502.1 597.333 386 583.5 332.5C519.5 183.5 755 88.5 726.5 0" stroke="#FF0000" stroke-width="2" stroke-linecap="round" stroke-linejoin="round"/>
</g>
</g>
<defs>
<linearGradient id="paint0_linear_971_562" x1="542" y1="0" x2="542" y2="869" gradientUnits="userSpaceOnUse">
<stop stop-color="#D9D9D9" stop-opacity="0"/>
<stop offset="0.234375" stop-color="#D9D9D9"/>
</linearGradient>
</defs>
</svg>
