<svg width="1782" height="171" viewBox="0 0 1782 171" fill="none" xmlns="http://www.w3.org/2000/svg">
<g id="miloTekening2b" clip-path="url(#clip0_971_560)">
<path id="m2" d="M1499 96.2573C1498.81 94.0473 1499 71.9671 1491.81 72.7271C1486.06 73.3271 1485.67 83.4072 1486.19 88.3672C1485.35 82.2472 1482.61 70.0073 1478.37 70.0073C1473.07 70.0073 1468.59 88.6875 1473.45 100.168C1471.45 94.6675 1458.7 86.9675 1445.5 100.168C1431.85 115.29 1425 104.078 1408 100.168C1381 93.9571 1381.5 108.636 1350 116C1325.37 121.759 1263.5 97.1675 1222.5 100.168C1181.5 103.168 1140.21 120.373 1078 70.0004C1030 31.1332 1000.36 22.5828 964.5 42.3669C905 75.1945 879.288 -11.0427 840.5 4.50014C785.034 26.726 816 164.5 655 184.5" stroke="#FF0000" stroke-width="2" stroke-linecap="round" stroke-linejoin="round"/>
<path id="i" d="M1504.46 88.9902C1504.81 93.2802 1504.99 95.0702 1505.03 95.4302" stroke="#FF0000" stroke-width="2" stroke-linecap="round" stroke-linejoin="round"/>
<path id="ib" d="M1502 75.6802C1502.06 75.9302 1502.38 76.1901 1502.32 76.3101" stroke="#FF0000" stroke-width="2" stroke-linecap="round" stroke-linejoin="round"/>
<path id="l" d="M1508.25 68.5498C1509.63 77.6398 1510.83 90.3201 1511.46 93.6001" stroke="#FF0000" stroke-width="2" stroke-linecap="round" stroke-linejoin="round"/>
<path id="o" d="M1526.34 89.3799C1525 93.6399 1515.13 95.1303 1517.31 87.2403C1518.51 84.5903 1520.59 83.2402 1523.12 83.3902C1526.67 83.6002 1527.32 86.2199 1526.34 89.3799Z" stroke="#FF0000" stroke-width="2" stroke-linecap="round" stroke-linejoin="round"/>
<path id="w" d="M1546.65 67.5498C1535.1 95.3098 1543.75 104.9 1548.73 96.1299C1552.72 89.1199 1552.54 87.8301 1551.95 88.0601C1551.66 90.9901 1555.2 95.7501 1561.35 92.6001C1568.89 88.7401 1570.18 71.5901 1561.35 66.3501" stroke="#FF0000" stroke-width="2" stroke-linecap="round" stroke-linejoin="round"/>
<path id="ei" d="M1568.73 86.6097C1571.7 88.6897 1575.93 83.6396 1572.33 83.0096C1568.73 82.3796 1566.02 90.3297 1572.33 91.8397C1577.38 93.0497 1580.83 88.1799 1581.92 85.5999C1582.34 87.0899 1583.9 89.8699 1585.01 90.5799" stroke="#FF0000" stroke-width="2" stroke-linecap="round" stroke-linejoin="round"/>
<path id="ei2" d="M1579.71 75.75C1580.57 76.61 1581.12 76.6598 1581.29 76.5698" stroke="#FF0000" stroke-width="2" stroke-linecap="round" stroke-linejoin="round"/>
<path id="l2" d="M1583.05 62C1584.62 77.85 1588 85.9701 1589.49 88.0601" stroke="#FF0000" stroke-width="2" stroke-linecap="round" stroke-linejoin="round"/>
<path id="er" d="M1593.28 86.61C1600.02 84.21 1597.81 80.0002 1595.5 81.0002C1590.78 83.0402 1592.81 89.1902 1597.5 89.0002C1603 88.5002 1604 83.0002 1603 81.0002C1602 79.0002 1605 86.0002 1605 88.5002C1605 88.5002 1604.39 78.7502 1613 82.5002" stroke="#FF0000" stroke-width="2" stroke-linecap="round" stroke-linejoin="round"/>
<path id="punt" d="M1619.29 88.3101V88.2998" stroke="#FF0000" stroke-width="2" stroke-linecap="round" stroke-linejoin="round"/>
</g>
<defs>
<clipPath id="clip0_971_560">
<rect width="1782" height="171" fill="white"/>
</clipPath>
</defs>
</svg>
