<svg width="171" height="199" viewBox="0 0 171 199" fill="none" xmlns="http://www.w3.org/2000/svg">
<g id="miloTekeningMobile1">
<path id="m1" d="M4.42798 1.34537C0.42798 1.34537 -0.0710441 36.8453 2.92895 36.8453C5.92895 36.8453 10.5561 3.84531 7.42809 3.84531C3.42809 3.84531 2.94609 33.8453 7.42809 33.8453C11.9111 33.8453 16.4292 8.34532 11.4292 8.34532C6.42925 8.34532 9.7002 23.8452 17.4296 23.8452C46.7002 26.8455 96.2237 25.3458 86.7002 5.84584C83.0374 -1.65401 67.9957 -2.49706 65.7002 18.3459C60.4138 66.346 110.493 68.5543 118.7 108.346C123.33 130.795 106.238 152.002 81.7002 137.845C63.7002 127.461 77.1058 108.845 90.2002 120.845C107.51 136.708 69.5845 187.909 102.7 196.845C135.816 205.781 132 147.5 169.5 147.5" stroke="#FF0000" stroke-width="2" stroke-linecap="round" stroke-linejoin="round"/>
</g>
</svg>
