<svg width="925" height="504" viewBox="0 0 925 504" fill="none" xmlns="http://www.w3.org/2000/svg">
<g id="miloTekening">
<path id="m" d="M4.42839 2.70259C0.42839 2.70259 -0.071311 38.202 2.92869 38.202C5.92869 38.202 10.5561 5.20266 7.42828 5.20266C3.42828 5.20266 2.94565 35.202 7.42828 35.202C11.9109 35.202 16.4287 9.70267 11.4287 9.70267C6.42869 9.70267 7.92869 28.702 17.4287 25.202C27.7505 21.3993 159.429 -27.2987 236.929 25.2017C323.058 83.5479 206.066 218.461 298.429 298.201C354.929 346.98 428.245 284.421 519.929 268.201C606.956 252.804 750.391 269.641 710.929 359.701C662.929 469.244 310.429 470.201 298.429 395.201C290.45 345.335 371.929 333.701 335.929 395.201C300.437 455.833 352.429 509.201 419.929 492.201C489.579 474.659 503.929 511.701 568.429 500.201C632.929 488.701 632.514 464.676 673.429 468.701C703.929 471.701 723.429 496.701 741.929 476.201C755.129 463.001 772.01 470.993 774.01 476.493C769.152 465.01 773.631 446.335 778.931 446.335C783.171 446.335 785.913 458.575 786.754 464.694C786.229 459.731 786.616 449.653 792.37 449.048C799.562 448.291 799.373 470.373 799.562 472.581" stroke="#FF0000" stroke-width="2" stroke-linecap="round" stroke-linejoin="round"/>
<path id="i" d="M808.46 464.994C808.814 469.284 808.986 471.071 809.028 471.429" stroke="#FF0000" stroke-width="2" stroke-linecap="round" stroke-linejoin="round"/>
<path id="ib" d="M806 451.682C806.063 451.934 806.379 452.186 806.315 452.313" stroke="#FF0000" stroke-width="2" stroke-linecap="round" stroke-linejoin="round"/>
<path id="l" d="M812.246 444.552C813.634 453.637 814.833 466.319 815.464 469.6" stroke="#FF0000" stroke-width="2" stroke-linecap="round" stroke-linejoin="round"/>
<path id="o" d="M830.335 465.382C829.005 469.642 819.133 471.127 821.313 463.237C822.512 460.587 824.586 459.235 827.118 459.388C830.669 459.603 831.322 462.224 830.335 465.382Z" stroke="#FF0000" stroke-width="2" stroke-linecap="round" stroke-linejoin="round"/>
<path id="w" d="M850.651 443.552C839.105 471.313 847.748 480.902 852.733 472.133C856.72 465.117 856.539 463.826 855.95 464.057C855.66 466.994 859.198 471.749 865.351 468.6C872.887 464.742 874.184 447.59 865.351 442.354" stroke="#FF0000" stroke-width="2" stroke-linecap="round" stroke-linejoin="round"/>
<path id="ei" d="M872.733 462.606C875.698 464.688 879.925 459.641 876.329 459.01C872.733 458.379 870.02 466.328 876.329 467.843C881.376 469.054 884.825 464.183 885.919 461.596C886.34 463.09 887.9 465.874 889.011 466.581" stroke="#FF0000" stroke-width="2" stroke-linecap="round" stroke-linejoin="round"/>
<path id="ei2" d="M883.711 451.754C884.569 452.612 885.12 452.658 885.288 452.574" stroke="#FF0000" stroke-width="2" stroke-linecap="round" stroke-linejoin="round"/>
<path id="l2" d="M887.055 438C888.619 453.849 891.997 461.975 893.49 464.057" stroke="#FF0000" stroke-width="2" stroke-linecap="round" stroke-linejoin="round"/>
<path id="er" d="M897.276 462.605C904.025 460.208 901.814 456 899.5 457C894.775 459.042 896.808 465.192 901.5 465C907 464.5 908 459 907 457C906 455 909 462 909 464.5C909 464.5 908.39 454.753 917 458.5" stroke="#FF0000" stroke-width="2" stroke-linecap="round" stroke-linejoin="round"/>
<path id="punt" d="M923.291 464.309V464.299" stroke="#FF0000" stroke-width="2" stroke-linecap="round" stroke-linejoin="round"/>
</g>
</svg>
