<svg width="569" height="511" viewBox="0 0 569 511" fill="none" xmlns="http://www.w3.org/2000/svg">
<g id="waves" clip-path="url(#clip0_894_1488)">
<g id="waves_2">
<path id="wave1a" d="M373 296.617C395.72 307.307 405.65 278.777 423.11 287.787C440.58 296.797 429.12 322.937 441.54 329.277C453.96 335.627 475.6 314.328 486.23 321.808C496.86 329.298 488.29 344.808 500.54 349.578C512.8 354.358 519.9 347.748 525.6 352.088C531.29 356.428 536.49 369.877 542.62 372.267" stroke="#FF0000" stroke-width="2" stroke-linecap="round"/>
<path id="wave1b" d="M200.465 164.71C180.405 147.39 200.936 125.1 193.213 115.89C185.49 106.67 165.361 119.85 154.913 107.39C144.464 94.9299 165.524 83.38 154.247 75.25C142.97 67.12 134.504 79.02 122 65" stroke="#FF0000" stroke-width="2" stroke-linecap="round"/>
<path id="wave02" d="M166.066 345C141.846 355.77 155.037 383.05 144.975 389.63C134.914 396.2 116.612 380.73 103 389.63C89.388 398.53 95.093 410.53 90.5 417.53C85.907 424.53 74.5 417.53 68 429.67C64.5 438.17 63.5 437.67 58 442.67" stroke="#FF0000" stroke-width="2" stroke-linecap="round"/>
<path id="wave03" d="M121.731 287.052C95.268 285.572 94.554 315.873 82.599 317.133C70.644 318.393 61.423 296.263 45.25 297.973C29.077 299.683 28.675 312.963 21.393 317.093C14.111 321.223 7.15699 309.793 -4.16901 317.633C-11.163 323.593 -11.824 322.693 -19 324.633" stroke="#FF0000" stroke-width="2" stroke-linecap="round"/>
<path id="wave04" d="M419 195.387C445.5 195.607 444.78 165.317 456.66 163.487C468.54 161.657 478.8 183.317 494.88 180.847C510.95 178.377 508.1 166.747 517.8 160.617C527.5 154.487 531.5 168.007 543.46 164.587" stroke="#FF0000" stroke-width="2" stroke-linecap="round"/>
<path id="Wave05" d="M128.646 180.34C124.772 176.57 122.393 174.6 118.164 173.81C113.249 172.89 102.171 180.5 94.672 177.06C87.173 173.63 89.986 163.99 82.819 156.04C75.652 148.09 63.562 158.4 55.292 150.92C51.048 147.07 53.041 143.89 46 138" stroke="#FF0000" stroke-width="2" stroke-linecap="round"/>
<path id="wave06" d="M334.604 382C339.622 390.189 360.154 383.194 365.048 392.376C369.941 401.558 355.734 410.355 361.744 418.669C367.755 426.983 379.105 424.882 382.513 429.845C384.929 434.684 379.466 442.061 386.035 449.941" stroke="#FF0000" stroke-width="2" stroke-linecap="round"/>
<path id="wave07" d="M204.445 91.6001C193.32 78.1601 203.836 70.7099 200.156 64.4399C196.477 58.1699 189.434 58.78 185.909 50.99C182.383 43.21 189.199 44 187.237 37.12C185.275 30.23 174.766 25.74 172.42 20.22C170.075 14.7 169.821 6.96 166 2" stroke="#FF0000" stroke-width="2" stroke-linecap="round"/>
<path id="wave08" d="M462 265.021C478.56 259.531 483.42 272.421 490.6 271.271C497.78 270.111 500.6 263.481 509.14 263.021C517.67 262.561 520.16 269.642 527.28 270.312C534.41 270.982 536.54 265.891 544.12 265.131C550.07 264.531 556.24 267.011 561.13 267.011" stroke="#FF0000" stroke-width="2" stroke-linecap="round"/>
<path id="wave09" d="M100.473 216.86C83.456 220.71 79.868 207.41 72.612 207.86C65.357 208.31 61.899 214.64 53.363 214.26C44.827 213.89 43.037 206.61 36.009 205.24C28.981 203.88 26.366 208.75 18.751 208.76C12.767 208.78 6.87 205.71 2 205.23" stroke="#FF0000" stroke-width="2" stroke-linecap="round"/>
<path id="wave10" d="M414 374C425.71 386.94 432.54 374.12 438.22 378.66C443.9 383.2 444.33 393.56 451.53 398.16C458.73 402.77 458.92 395.91 465.46 398.84C471.99 401.76 475.11 413.91 480.24 417.02C485.53 420.23 493.67 419.85 497.33 424.32" stroke="#FF0000" stroke-width="2" stroke-linecap="round"/>
<path id="wave11" d="M106.068 120.65C89.19 116.23 92.125 102.78 85.478 99.8398C78.831 96.8898 72.847 100.92 65.442 96.6599C58.036 92.3999 59.8 85.1099 54.188 80.6599C48.576 76.2199 44.015 79.3298 37.246 75.8398C31.928 73.0998 28.105 67.66 24 65" stroke="#FF0000" stroke-width="2" stroke-linecap="round"/>
</g>
<g id="fish">
<path id="toFishPath" d="M373.923 497.58L386.298 484.19C383.456 484.45 378.901 485.48 373.923 485.64C367.923 485.64 361.584 484.05 356.022 479.1C345.923 470.12 361.923 458.12 370.179 470.73C372.692 474.57 372.434 478.13 372.037 484.19C370.3 510.68 391.465 505.08 398.423 500.62C415.603 489.61 401.694 471 408.731 464.96C415.768 458.91 429.067 478.13 440.71 468.72" stroke="#FF0000" stroke-width="2" stroke-linecap="round"/>
<path id="fish_2" d="M371.407 485.33C365.796 484.75 359.964 482.8 355.9 477.35C346.177 464.31 367.238 459.62 370.749 470.28C372.33 475.08 371.259 479.94 371.407 485.33ZM371.407 485.33C377.022 485.91 382.415 485.13 385.598 485.13L371.81 498.92L371.407 485.33Z" stroke="#FF0000" stroke-width="2" stroke-linecap="round"/>
<path id="alongPath" d="M368.423 479.62C344.923 459.12 346.423 433.12 316.923 433.12C299.923 433.12 266.423 442.12 266.423 468.62" stroke="black"/>
<path id="fishFinal" d="M361.65 473.31C359.993 473.14 358.597 470.48 357.397 468.87C354.526 465.02 358.86 466.55 359.897 469.7C360.364 471.11 361.606 471.72 361.65 473.31ZM361.65 473.31C363.308 473.48 358.957 471.2 359.897 471.2L358.397 469.7L361.65 473.31Z" stroke="#FF0000" stroke-width="2" stroke-linecap="round"/>
</g>
</g>
<defs>
<clipPath id="clip0_894_1488">
<rect width="569" height="511" fill="white"/>
</clipPath>
</defs>
</svg>
