<?xml version="1.0" standalone="no"?>
<!DOCTYPE svg PUBLIC "-//W3C//DTD SVG 20010904//EN"
 "http://www.w3.org/TR/2001/REC-SVG-20010904/DTD/svg10.dtd">
<svg version="1.0" xmlns="http://www.w3.org/2000/svg"
 width="700.000000pt" height="700.000000pt" viewBox="0 0 700.000000 700.000000"
 preserveAspectRatio="xMidYMid meet">
<metadata>
Created by potrace 1.14, written by Peter Selinger 2001-2017
</metadata>
<g transform="translate(0.000000,700.000000) scale(0.100000,-0.100000)"
fill="#000000" stroke="none">
<path d="M4115 5982 c-48 -10 -68 -63 -81 -212 -8 -94 -11 -114 -18 -142 -13
-46 0 -75 39 -88 53 -18 100 18 94 73 -1 12 3 34 9 49 6 15 9 34 6 43 -3 8 1
43 10 77 22 87 26 150 13 169 -17 22 -49 36 -72 31z"/>
<path d="M2725 5460 c-25 -28 -16 -85 29 -195 20 -50 80 -196 132 -325 153
-377 224 -536 249 -560 50 -47 121 -15 112 50 -10 74 -397 1007 -428 1033 -28
23 -72 22 -94 -3z"/>
<path d="M4006 5449 c-53 -42 -23 -123 45 -121 39 1 57 17 65 59 5 26 1 37
-19 57 -32 31 -56 33 -91 5z"/>
<path d="M1328 5363 c-9 -2 -23 -18 -31 -36 -20 -41 -8 -66 73 -140 45 -42 69
-57 90 -57 38 0 74 44 65 80 -7 29 -97 125 -137 146 -28 14 -31 15 -60 7z"/>
<path d="M3972 5250 c-13 -14 -22 -43 -26 -83 -23 -228 -26 -279 -16 -297 11
-21 60 -35 89 -25 22 7 42 49 40 85 -1 14 3 50 9 80 6 30 14 92 17 137 6 74 4
84 -14 102 -27 27 -75 27 -99 1z"/>
<path d="M5212 5243 c-20 -8 -123 -146 -374 -498 -129 -181 -245 -345 -258
-364 -53 -77 -56 -152 -5 -165 54 -14 65 -2 243 245 114 159 234 326 266 369
18 25 53 74 78 110 24 36 61 89 82 119 40 57 66 110 66 136 0 37 -56 65 -98
48z"/>
<path d="M1618 5074 c-53 -28 -42 -102 18 -124 13 -5 24 -14 24 -20 0 -5 30
-39 66 -75 54 -53 72 -65 98 -65 46 0 71 30 67 81 -1 20 -115 136 -142 144
-10 4 -19 11 -19 16 0 17 -48 59 -67 59 -10 -1 -30 -7 -45 -16z"/>
<path d="M6610 5072 c-88 -40 -164 -116 -152 -152 19 -57 71 -64 146 -19 80
49 115 86 110 118 -10 51 -56 75 -104 53z"/>
<path d="M6265 4844 c-39 -25 -74 -52 -78 -61 -5 -8 -25 -22 -46 -30 -57 -24
-149 -86 -162 -110 -7 -13 -27 -27 -45 -32 -33 -9 -110 -57 -151 -94 -52 -47
-16 -125 52 -114 43 7 156 84 170 115 6 13 19 22 31 22 37 0 184 102 184 128
0 7 4 11 9 8 13 -9 122 49 164 87 42 40 48 72 17 105 -31 33 -68 27 -145 -24z"/>
<path d="M3934 4809 c-33 -12 -32 -9 -49 -144 -2 -16 -6 -45 -9 -63 -6 -43 21
-72 67 -72 55 0 78 44 78 153 0 10 4 29 9 41 9 26 -12 86 -32 87 -7 0 -20 2
-28 3 -8 2 -25 0 -36 -5z"/>
<path d="M1946 4759 c-44 -35 -36 -70 35 -145 34 -35 69 -66 78 -69 9 -3 24
-18 33 -35 21 -37 56 -47 96 -26 55 28 47 103 -14 126 -13 5 -24 14 -24 20 0
19 -104 122 -137 136 -40 17 -35 18 -67 -7z"/>
<path d="M2296 4418 c-30 -43 -20 -71 50 -142 37 -36 72 -66 78 -66 6 0 17
-13 23 -30 7 -18 21 -32 37 -36 14 -3 26 -12 26 -19 0 -41 84 -62 120 -30 33
30 19 115 -19 115 -11 0 -92 77 -146 140 -76 89 -138 113 -169 68z"/>
<path d="M5642 4425 c-17 -8 -32 -18 -32 -24 0 -5 -13 -12 -30 -16 -16 -4 -38
-17 -49 -31 -10 -13 -24 -24 -31 -24 -19 0 -122 -65 -149 -94 -13 -14 -23 -37
-23 -52 0 -32 33 -64 66 -64 26 0 123 56 172 100 19 16 41 30 48 30 7 0 21 9
31 20 10 11 26 20 35 20 9 0 26 10 38 23 36 38 28 88 -17 111 -22 12 -31 12
-59 1z"/>
<path d="M3628 4325 c-2 -2 -31 -6 -66 -9 -131 -14 -338 -80 -461 -148 -291
-161 -531 -445 -630 -748 -46 -140 -64 -257 -64 -420 0 -284 66 -507 219 -735
62 -93 68 -101 181 -215 47 -49 85 -97 88 -110 2 -14 6 -45 9 -70 13 -100 64
-241 123 -343 208 -354 650 -568 1018 -492 135 28 250 74 260 104 15 48 -15
62 -107 51 -262 -31 -504 61 -663 251 -44 53 -101 159 -121 226 l-13 44 29 -6
c392 -86 793 -1 1105 233 65 49 205 186 247 241 l26 34 20 -64 c57 -174 51
-343 -19 -505 -26 -63 -97 -167 -153 -228 -52 -56 -50 -51 -36 -77 46 -85 322
148 431 363 33 65 73 197 85 278 4 30 7 109 7 175 -2 142 -30 265 -88 393
l-38 82 16 78 c23 112 27 146 31 252 10 295 -81 585 -264 836 -59 80 -205 223
-293 285 -152 107 -359 193 -541 226 -74 13 -329 26 -338 18z m712 -1319 c275
-80 470 -241 586 -481 64 -132 85 -229 84 -384 -2 -151 -2 -151 -9 -146 -4 2
-8 18 -9 37 -4 55 -41 176 -73 241 -140 284 -422 458 -744 460 -138 0 -188 -7
-300 -44 -606 -202 -823 -930 -407 -1368 34 -36 62 -67 62 -69 0 -7 -71 35
-138 81 -338 232 -465 678 -305 1067 147 358 510 614 908 642 91 7 262 -11
345 -36z"/>
<path d="M5162 4109 c-34 -22 -72 -53 -85 -68 -13 -16 -34 -32 -46 -36 -52
-16 -61 -90 -14 -120 30 -20 76 -12 100 18 10 12 43 37 74 56 116 70 147 124
97 171 -32 29 -58 25 -126 -21z"/>
<path d="M1212 4082 c-15 -15 -19 -29 -16 -49 9 -51 30 -64 189 -123 55 -21
186 -72 290 -115 295 -120 572 -224 616 -231 48 -8 79 15 79 57 0 55 -31 73
-345 197 -762 303 -771 306 -813 264z"/>
<path d="M6085 3834 c-417 -122 -827 -247 -867 -266 -55 -25 -82 -59 -74 -94
8 -29 38 -46 80 -46 17 1 92 20 166 42 74 23 144 44 155 47 11 3 119 35 240
70 347 101 472 143 500 169 51 47 21 115 -50 113 -16 0 -84 -16 -150 -35z"/>
<path d="M2070 3083 c-37 -31 -39 -65 -5 -98 40 -41 92 -30 115 25 11 28 11
34 -7 58 -30 40 -67 46 -103 15z"/>
<path d="M1645 3093 c-11 -2 -27 -7 -35 -10 -8 -3 -19 -5 -25 -3 -25 7 -132 6
-152 -1 -12 -5 -29 -19 -38 -32 -30 -46 15 -110 70 -100 39 7 120 13 155 11
98 -4 192 1 205 12 9 7 15 8 20 0 3 -5 21 -10 40 -10 24 0 39 7 54 26 40 51
-1 122 -64 109 -35 -7 -37 -7 -135 -2 -41 2 -84 2 -95 0z"/>
<path d="M1115 3072 c-3 -3 -27 -4 -55 -3 -57 2 -90 -22 -90 -64 0 -39 41 -75
77 -68 29 6 45 6 78 -1 61 -11 101 67 58 115 -14 17 -58 30 -68 21z"/>
<path d="M340 3063 c-55 -20 -68 -87 -25 -122 18 -13 34 -18 53 -14 15 4 38 6
52 5 109 -4 203 -1 219 8 13 7 22 7 26 0 3 -5 17 -10 31 -10 14 0 34 5 44 10
13 7 21 7 25 0 11 -17 64 -11 85 10 12 12 20 33 20 55 0 52 -27 65 -125 59
-44 -2 -89 -3 -100 -2 -35 3 -189 1 -220 -3 -16 -2 -39 -1 -50 3 -11 3 -27 4
-35 1z"/>
<path d="M2260 2583 c-158 -55 -351 -127 -505 -188 -66 -26 -213 -82 -327
-125 -113 -43 -221 -86 -240 -95 -85 -43 -114 -108 -63 -141 32 -21 80 -13
193 33 48 19 211 81 362 137 400 151 636 245 673 270 64 43 41 117 -37 115
-23 0 -48 -3 -56 -6z"/>
</g>
</svg>
