<?xml version="1.0" standalone="no"?>
<!DOCTYPE svg PUBLIC "-//W3C//DTD SVG 20010904//EN"
 "http://www.w3.org/TR/2001/REC-SVG-20010904/DTD/svg10.dtd">
<svg version="1.0" xmlns="http://www.w3.org/2000/svg"
 width="700.000000pt" height="700.000000pt" viewBox="0 0 700.000000 700.000000"
 preserveAspectRatio="xMidYMid meet">
<metadata>
Created by potrace 1.14, written by Peter Selinger 2001-2017
</metadata>
<g transform="translate(0.000000,700.000000) scale(0.100000,-0.100000)"
fill="#000000" stroke="none">
<path d="M4110 6942 c1 -34 85 -57 108 -29 10 12 6 15 -25 20 -21 3 -48 8 -60
11 -13 3 -23 2 -23 -2z"/>
<path d="M2154 6734 c-47 -17 -56 -35 -43 -92 8 -38 77 -215 117 -302 11 -25
34 -79 50 -120 74 -187 134 -337 146 -365 8 -16 28 -66 46 -110 17 -44 37 -93
44 -110 8 -16 30 -68 49 -115 149 -354 153 -362 188 -396 35 -33 76 -35 102
-3 26 32 18 69 -52 234 -5 11 -37 92 -71 180 -35 88 -71 178 -81 200 -10 22
-79 189 -154 370 -75 182 -158 383 -185 447 -28 65 -50 121 -50 126 0 8 -56
73 -62 71 -2 0 -22 -7 -44 -15z"/>
<path d="M4089 6717 c-47 -36 -42 -105 9 -126 36 -14 61 -9 84 18 51 64 -29
157 -93 108z"/>
<path d="M4034 6403 c-22 -23 -25 -34 -20 -66 4 -21 2 -45 -3 -55 -22 -41 -39
-259 -23 -289 9 -16 9 -22 -2 -26 -17 -7 -30 -59 -22 -85 8 -23 47 -42 86 -42
23 0 33 7 45 30 18 35 19 62 3 78 -10 10 -10 17 -1 31 17 26 31 86 38 161 3
36 8 82 10 102 3 20 1 40 -4 43 -5 3 -3 18 5 34 40 80 -52 148 -112 84z"/>
<path d="M5565 5915 c-99 -140 -186 -263 -193 -272 -7 -10 -76 -106 -152 -213
-77 -107 -143 -200 -147 -205 -28 -37 -114 -168 -137 -208 -48 -88 -27 -145
52 -138 20 2 85 75 153 172 55 79 281 392 440 610 27 37 49 70 49 73 0 4 9 17
21 29 11 12 56 74 99 137 43 63 88 127 99 142 12 14 21 30 20 35 0 11 -101 93
-113 93 -6 0 -92 -115 -191 -255z"/>
<path d="M3946 5708 c-19 -29 -26 -71 -16 -88 5 -8 2 -23 -7 -37 -10 -16 -14
-35 -10 -59 4 -24 1 -44 -9 -60 -37 -55 11 -113 82 -99 44 8 71 74 43 102 -9
9 -8 16 5 28 9 9 17 21 17 26 1 5 2 15 3 22 1 6 -1 22 -5 33 -4 12 -3 26 3 32
5 5 12 26 15 45 3 27 -1 40 -18 56 -31 29 -84 28 -103 -1z"/>
<path d="M927 5659 c-25 -15 -38 -54 -28 -82 11 -29 153 -173 191 -192 16 -8
36 -12 45 -9 12 5 15 0 13 -24 -3 -42 35 -84 71 -78 14 2 29 5 33 5 17 2 48
47 48 68 0 38 -45 76 -84 71 -30 -3 -32 -2 -28 23 3 21 -7 39 -50 86 -119 130
-165 159 -211 132z"/>
<path d="M1482 5153 c-7 -3 -19 -17 -26 -32 -21 -39 -2 -73 88 -161 80 -78
119 -105 141 -96 9 3 13 -6 13 -32 0 -46 28 -71 76 -67 30 2 34 -1 26 -15 -6
-11 -3 -26 10 -48 17 -27 25 -32 60 -32 49 0 80 27 80 70 0 42 -33 73 -74 68
-29 -3 -32 -1 -28 19 6 34 -50 87 -86 80 -25 -5 -27 -3 -28 29 0 30 -12 47
-80 115 -97 99 -131 119 -172 102z"/>
<path d="M6560 5118 c-18 -19 -23 -31 -22 -48 0 -3 -16 -4 -36 -2 -43 4 -82
-25 -82 -61 0 -20 -4 -22 -35 -19 -26 3 -45 -3 -80 -27 -25 -17 -49 -31 -53
-32 -15 -1 -96 -66 -115 -92 -26 -33 -15 -74 24 -96 34 -19 63 -7 182 72 84
57 116 94 101 119 -4 6 -3 8 3 5 5 -3 23 -9 40 -11 36 -7 83 30 83 64 0 16 4
19 18 12 9 -5 24 -7 32 -5 8 3 21 6 28 8 8 3 3 24 -20 70 -18 36 -36 65 -40
65 -4 0 -16 -10 -28 -22z"/>
<path d="M3648 5095 c-2 -1 -50 -5 -108 -9 -129 -7 -175 -13 -265 -32 -38 -8
-80 -17 -93 -20 -49 -10 -186 -57 -276 -94 -293 -122 -546 -312 -766 -575 -58
-70 -176 -256 -225 -355 -71 -144 -143 -349 -161 -460 -3 -14 -9 -47 -14 -75
-18 -102 -22 -143 -25 -295 -3 -182 7 -293 41 -448 67 -302 193 -568 382 -806
71 -90 217 -236 303 -304 57 -45 68 -58 78 -99 28 -112 52 -199 60 -218 5 -11
21 -49 36 -85 61 -148 172 -307 309 -441 207 -204 462 -341 744 -400 199 -42
297 -42 498 2 147 32 236 68 429 174 l30 16 -55 -7 c-30 -3 -62 -8 -70 -9 -8
-2 -42 -6 -75 -10 -33 -4 -73 -9 -90 -11 -43 -5 -226 -6 -250 -1 -11 3 -45 8
-75 12 -72 10 -212 56 -292 96 -231 116 -398 296 -497 537 -26 62 -28 72 -13
68 172 -51 534 -66 747 -31 332 55 604 169 875 368 115 85 315 284 390 389 30
43 58 77 61 78 5 0 61 -158 65 -185 1 -5 6 -30 10 -55 11 -55 12 -276 2 -345
-8 -52 -32 -144 -48 -182 -6 -13 -15 -35 -21 -50 -61 -149 -158 -282 -332
-453 -67 -68 -76 -81 -39 -60 9 5 54 27 100 49 135 66 248 151 358 271 175
190 262 370 314 645 19 104 22 141 17 285 -6 176 -8 194 -37 310 -25 97 -50
167 -94 262 l-35 77 24 107 c34 149 40 214 40 414 0 260 -21 398 -96 622 -136
408 -409 766 -769 1005 -274 183 -617 300 -932 319 -51 3 -108 7 -125 8 -18 2
-34 2 -35 1z m172 -440 c461 -63 881 -329 1135 -719 111 -170 203 -397 235
-576 6 -36 13 -76 16 -90 2 -14 7 -79 11 -145 l6 -119 -49 41 c-200 167 -517
298 -799 330 -129 14 -364 8 -480 -13 -653 -118 -1183 -587 -1349 -1192 -21
-77 -24 -93 -32 -157 -4 -27 -8 -57 -10 -65 -1 -8 -3 -28 -3 -45 -1 -30 -2
-29 -69 40 -109 113 -206 253 -280 400 -33 66 -98 237 -106 276 -2 13 -9 44
-15 69 -29 119 -40 231 -37 395 2 94 6 181 10 195 3 14 8 39 10 55 27 193 143
469 277 657 60 84 223 260 285 308 89 68 153 112 229 157 164 96 415 179 600
198 33 4 61 8 63 10 6 6 296 -2 352 -10z m707 -2020 c160 -31 312 -99 446
-200 101 -77 100 -67 29 -189 -127 -220 -272 -372 -527 -554 -110 -78 -380
-190 -525 -217 -14 -3 -34 -7 -45 -9 -24 -4 -117 -17 -160 -22 -122 -13 -309
-2 -455 26 -106 20 -154 36 -146 48 2 4 6 39 7 77 17 471 371 894 859 1025
153 41 354 47 517 15z"/>
<path d="M5857 4656 c-97 -66 -147 -114 -147 -142 0 -17 -5 -20 -25 -16 -30 5
-73 -20 -84 -51 -11 -29 11 -73 41 -83 55 -18 108 9 108 56 0 23 4 27 23 23
15 -3 50 15 112 56 150 101 168 128 124 185 -30 39 -63 33 -152 -28z"/>
<path d="M155 4530 c-3 -6 -14 -39 -24 -75 -18 -64 -18 -65 3 -71 12 -4 48
-19 81 -35 33 -16 89 -39 125 -53 83 -31 120 -45 370 -146 113 -45 240 -95
283 -111 42 -16 114 -44 160 -61 45 -18 84 -33 87 -34 3 0 16 -5 30 -11 61
-25 151 -53 177 -55 41 -3 73 18 73 48 0 33 -27 80 -54 92 -37 17 -88 39 -206
86 -63 26 -124 51 -135 56 -11 5 -90 36 -175 70 -85 33 -164 64 -175 69 -11 5
-36 14 -55 21 -19 7 -44 16 -55 21 -11 5 -45 18 -75 29 -30 11 -64 25 -75 30
-11 5 -92 36 -180 70 -88 34 -163 64 -167 66 -4 2 -9 0 -13 -6z"/>
<path d="M6875 4114 c-27 -8 -84 -26 -125 -38 -41 -13 -115 -36 -165 -51 -49
-14 -130 -39 -180 -55 -49 -15 -115 -35 -145 -44 -313 -91 -316 -92 -374 -133
-50 -35 -60 -68 -30 -97 34 -34 85 -29 269 27 102 31 545 161 690 202 167 48
157 38 140 135 -4 25 -8 51 -8 58 0 15 -9 14 -72 -4z"/>
<path d="M1134 3100 c-26 -10 -54 -48 -54 -71 0 -9 11 -28 25 -43 40 -43 108
-30 128 26 10 27 -11 74 -39 87 -29 13 -31 13 -60 1z"/>
<path d="M442 3090 c-59 -9 -81 -40 -66 -97 10 -36 52 -45 189 -41 122 3 128
4 149 29 22 25 23 26 35 7 33 -53 114 -43 130 16 21 78 -65 129 -120 72 -23
-24 -23 -24 -49 -4 -21 15 -45 19 -126 21 -54 1 -118 0 -142 -3z"/>
<path d="M106 3058 c-40 -37 -42 -64 -7 -98 33 -34 65 -38 100 -14 17 12 26
13 34 5 13 -13 57 -14 90 -2 27 10 41 48 31 85 -10 41 -80 60 -118 31 -16 -12
-21 -12 -40 0 -29 21 -61 18 -90 -7z"/>
<path d="M1400 2310 c-19 -5 -73 -23 -120 -40 -47 -18 -150 -56 -230 -85 -80
-29 -209 -78 -286 -109 -78 -31 -144 -56 -148 -56 -3 0 -25 -8 -49 -19 -23
-10 -77 -31 -119 -47 l-76 -28 36 -71 37 -72 80 29 c44 16 89 33 100 38 11 5
45 17 75 28 30 11 96 36 145 55 50 19 126 49 170 65 70 27 113 44 200 82 11 5
56 22 100 39 182 68 235 101 235 146 0 47 -62 66 -150 45z"/>
</g>
</svg>
