<svg width="1782" height="667" viewBox="0 0 1782 667" fill="none" xmlns="http://www.w3.org/2000/svg">
<g id="waves">
<g id="fish">
<path id="toFishPath" d="M577.5 653.46L589.875 640.07C587.033 640.33 582.478 641.36 577.5 641.52C571.5 641.52 565.161 639.93 559.599 634.98C549.5 626 565.5 614 573.756 626.61C576.269 630.45 576.011 634.01 575.614 640.07C573.877 666.56 595.042 660.96 602 656.5C619.18 645.49 605.271 626.88 612.308 620.84C619.345 614.79 632.644 634.01 644.287 624.6" stroke="#FF0000" stroke-width="2" stroke-linecap="round"/>
<path id="fish_2" d="M574.984 641.21C569.373 640.63 563.541 638.68 559.477 633.23C549.754 620.19 570.815 615.5 574.326 626.16C575.907 630.96 574.836 635.82 574.984 641.21ZM574.984 641.21C580.599 641.79 585.992 641.01 589.175 641.01L575.387 654.8L574.984 641.21Z" stroke="#FF0000" stroke-width="2" stroke-linecap="round"/>
<path id="fishFinal" d="M565.227 629.19C563.57 629.02 562.174 626.36 560.974 624.75C558.103 620.9 562.437 622.43 563.474 625.58C563.941 626.99 565.183 627.6 565.227 629.19ZM565.227 629.19C566.885 629.36 562.534 627.08 563.474 627.08L561.974 625.58L565.227 629.19Z" stroke="#FF0000" stroke-width="2" stroke-linecap="round"/>
<path id="fishUp" d="M528.262 590.68C524.123 594.51 518.814 597.61 512.038 597.07C495.825 595.78 506.188 576.85 516.517 581.25C521.167 583.23 524.111 587.23 528.262 590.68ZM528.262 590.68C532.403 586.84 535.373 582.27 537.472 579.88L538.742 599.34L528.262 590.68Z" stroke="#FF0000" stroke-width="2" stroke-linecap="round"/>
<path id="fishDown" d="M475.518 626.54C478.804 631.13 481.217 636.78 479.834 643.44C476.525 659.36 459.043 646.71 464.693 637.02C467.237 632.65 471.581 630.23 475.518 626.54ZM475.518 626.54C472.231 621.95 468.068 618.44 465.957 616.05L485.422 617.23L475.518 626.54Z" stroke="#FF0000" stroke-width="2" stroke-linecap="round"/>
<path id="alongPath" d="M572 635.5C548.5 615 550 589 520.5 589C503.5 589 470 598 470 624.5" stroke="black"/>
</g>
<path id="wave1a" d="M1365.05 424.64C1387.77 435.33 1397.7 406.8 1415.16 415.81C1432.63 424.82 1421.17 450.96 1433.59 457.3C1446.01 463.65 1467.65 442.35 1478.28 449.83C1488.91 457.32 1480.34 472.83 1492.59 477.6C1504.85 482.38 1511.95 475.77 1517.65 480.11C1523.34 484.45 1528.54 497.9 1534.67 500.29" stroke="#FF0000" stroke-width="2" stroke-linecap="round"/>
<path id="wave1b" d="M563.562 218.71C543.502 201.39 564.033 179.1 556.31 169.89C548.587 160.67 528.458 173.85 518.01 161.39C507.561 148.93 528.621 137.38 517.344 129.25C506.067 121.12 497.601 133.02 485.097 119" stroke="#FF0000" stroke-width="2" stroke-linecap="round"/>
<path id="wave02" d="M448.066 520.57C423.846 531.34 437.037 558.62 426.975 565.2C416.914 571.77 398.612 556.3 385 565.2C371.388 574.1 377.093 586.1 372.5 593.1C367.907 600.1 356.5 593.1 350 605.24C346.5 613.74 345.5 613.24 340 618.24" stroke="#FF0000" stroke-width="2" stroke-linecap="round"/>
<path id="wave03" d="M348.731 385.95C322.268 384.47 321.554 414.77 309.599 416.03C297.644 417.29 288.423 395.16 272.25 396.87C256.077 398.58 255.675 411.86 248.393 415.99C241.111 420.12 234.157 408.69 222.831 416.53C215.837 422.49 215.176 421.59 208 423.53" stroke="#FF0000" stroke-width="2" stroke-linecap="round"/>
<path id="wave04" d="M1432 298.38C1458.5 298.6 1457.78 268.31 1469.66 266.48C1481.54 264.65 1491.8 286.31 1507.88 283.84C1523.95 281.37 1521.1 269.74 1530.8 263.61C1540.5 257.48 1544.5 271 1556.46 267.58" stroke="#FF0000" stroke-width="2" stroke-linecap="round"/>
<path id="Wave05" d="M364.123 268.45C360.249 264.68 357.87 262.71 353.641 261.92C348.726 261 337.648 268.61 330.149 265.17C322.65 261.74 325.463 252.1 318.296 244.15C311.129 236.2 299.039 246.51 290.769 239.03C286.525 235.18 288.518 232 281.477 226.11" stroke="#FF0000" stroke-width="2" stroke-linecap="round"/>
<path id="wave06" d="M1316 568C1322 575.5 1341.5 566 1347.5 574.5C1353.5 583 1340.5 593.5 1347.5 601C1354.5 608.5 1365.5 605 1369.5 609.5C1372.5 614 1368 622 1375.5 629" stroke="#FF0000" stroke-width="2" stroke-linecap="round"/>
<path id="wave07" d="M662.85 90.6001C651.725 77.1601 662.241 69.7099 658.561 63.4399C654.882 57.1699 647.839 57.78 644.314 49.99C640.788 42.21 647.604 43 645.642 36.12C643.68 29.23 633.171 24.74 630.825 19.22C628.48 13.7 628.226 5.96 624.405 1" stroke="#FF0000" stroke-width="2" stroke-linecap="round"/>
<path id="wave08" d="M1536.22 388.79C1552.78 383.3 1557.64 396.19 1564.82 395.04C1572 393.88 1574.82 387.25 1583.36 386.79C1591.89 386.33 1594.38 393.41 1601.5 394.08C1608.63 394.75 1610.76 389.66 1618.34 388.9C1624.29 388.3 1630.46 390.78 1635.35 390.78" stroke="#FF0000" stroke-width="2" stroke-linecap="round"/>
<path id="wave09" d="M243.473 317.96C226.456 321.81 222.868 308.51 215.612 308.96C208.357 309.41 204.899 315.74 196.363 315.36C187.827 314.99 186.037 307.71 179.009 306.34C171.981 304.98 169.366 309.85 161.751 309.86C155.767 309.88 149.87 306.81 145 306.33" stroke="#FF0000" stroke-width="2" stroke-linecap="round"/>
<path id="wave10" d="M1476 607.55C1487.71 620.49 1494.54 607.67 1500.22 612.21C1505.9 616.75 1506.33 627.11 1513.53 631.71C1520.73 636.32 1520.92 629.46 1527.46 632.39C1533.99 635.31 1537.11 647.46 1542.24 650.57C1547.53 653.78 1555.67 653.4 1559.33 657.87" stroke="#FF0000" stroke-width="2" stroke-linecap="round"/>
<path id="wave11" d="M313.068 149.01C296.19 144.59 299.125 131.14 292.478 128.2C285.831 125.25 279.847 129.28 272.442 125.02C265.036 120.76 266.8 113.47 261.188 109.02C255.576 104.58 251.015 107.69 244.246 104.2C238.928 101.46 235.105 96.0201 231 93.3601" stroke="#FF0000" stroke-width="2" stroke-linecap="round"/>
</g>
</svg>
